<?xml version="1.0" encoding="UTF-8" standalone="no"?>
<svg
   width="1444"
   zoomAndPan="magnify"
   viewBox="0 0 1083 1538.249998"
   height="2051"
   preserveAspectRatio="xMidYMid meet"
   version="1.0"
   id="svg14"
   sodipodi:docname="weather.svg"
   inkscape:version="1.4 (e7c3feb1, 2024-10-09)"
   xmlns:inkscape="http://www.inkscape.org/namespaces/inkscape"
   xmlns:sodipodi="http://sodipodi.sourceforge.net/DTD/sodipodi-0.dtd"
   xmlns="http://www.w3.org/2000/svg"
   xmlns:svg="http://www.w3.org/2000/svg">
  <sodipodi:namedview
     id="namedview14"
     pagecolor="#ffffff"
     bordercolor="#000000"
     borderopacity="0.25"
     inkscape:showpageshadow="2"
     inkscape:pageopacity="0.0"
     inkscape:pagecheckerboard="0"
     inkscape:deskcolor="#d1d1d1"
     inkscape:zoom="0.28684195"
     inkscape:cx="460.18373"
     inkscape:cy="1579.2669"
     inkscape:window-width="1680"
     inkscape:window-height="923"
     inkscape:window-x="0"
     inkscape:window-y="25"
     inkscape:window-maximized="1"
     inkscape:current-layer="svg14" />
  <defs
     id="defs5">
    <clipPath
       id="983e608108">
      <path
         d="M 0.265625 0 L 1081.988281 0 L 1081.988281 1254.136719 L 0.265625 1254.136719 Z M 0.265625 0 "
         clip-rule="nonzero"
         id="path1" />
    </clipPath>
    <clipPath
       id="f8d93cedcc">
      <path
         d="M 0.265625 0 L 424 0 L 424 32 L 0.265625 32 Z M 0.265625 0 "
         clip-rule="nonzero"
         id="path2" />
    </clipPath>
    <clipPath
       id="cdc0a5317b">
      <path
         d="M 0.265625 1 L 1081.988281 1 L 1081.988281 1253 L 0.265625 1253 Z M 0.265625 1 "
         clip-rule="nonzero"
         id="path3" />
    </clipPath>
    <clipPath
       id="6e98e67910">
      <path
         d="M 469.179688 1393.519531 L 613.109375 1393.519531 L 613.109375 1537.449219 L 469.179688 1537.449219 Z M 469.179688 1393.519531 "
         clip-rule="nonzero"
         id="path4" />
    </clipPath>
    <clipPath
       id="bf0833c8f3">
      <path
         d="M 491.667969 1393.519531 L 590.621094 1393.519531 C 603.039062 1393.519531 613.109375 1403.585938 613.109375 1416.007812 L 613.109375 1514.960938 C 613.109375 1527.378906 603.039062 1537.449219 590.621094 1537.449219 L 491.667969 1537.449219 C 479.246094 1537.449219 469.179688 1527.378906 469.179688 1514.960938 L 469.179688 1416.007812 C 469.179688 1403.585938 479.246094 1393.519531 491.667969 1393.519531 Z M 491.667969 1393.519531 "
         clip-rule="nonzero"
         id="path5" />
    </clipPath>
  </defs>
  <g
     clip-path="url(#f8d93cedcc)"
     id="g7">
    <path
       fill="#7ed957"
       d="M -1308.429688 31.140625 C -1352.074219 -44.429688 -1393.167969 -121.386719 -1431.804688 -199.640625 C -1470.394531 -277.941406 -1506.390625 -357.355469 -1539.792969 -438.023438 C -1573.195312 -518.648438 -1603.917969 -600.257812 -1631.953125 -682.9375 C -1660.035156 -765.574219 -1685.34375 -849.058594 -1707.925781 -933.347656 C -1730.507812 -1017.640625 -1750.320312 -1102.601562 -1767.355469 -1188.1875 C -1784.390625 -1273.777344 -1798.613281 -1359.855469 -1809.96875 -1446.382812 C -1821.371094 -1532.90625 -1829.914062 -1619.703125 -1835.636719 -1706.808594 C -1841.359375 -1793.917969 -1844.179688 -1881.070312 -1844.179688 -1968.355469 C -1844.179688 -2055.644531 -1841.359375 -2142.796875 -1835.636719 -2229.902344 C -1829.914062 -2317.011719 -1821.371094 -2403.804688 -1809.96875 -2490.332031 C -1798.613281 -2576.859375 -1784.390625 -2662.9375 -1767.355469 -2748.523438 C -1750.320312 -2834.113281 -1730.507812 -2919.074219 -1707.925781 -3003.363281 C -1685.34375 -3087.652344 -1660.035156 -3171.140625 -1631.953125 -3253.777344 C -1603.917969 -3336.457031 -1573.195312 -3418.0625 -1539.792969 -3498.6875 C -1506.390625 -3579.355469 -1470.394531 -3658.773438 -1431.804688 -3737.070312 C -1393.167969 -3815.324219 -1352.074219 -3892.28125 -1308.429688 -3967.851562 L 423.167969 -2968.128906 C 401.347656 -2930.296875 380.824219 -2891.839844 361.503906 -2852.714844 C 342.1875 -2813.585938 324.210938 -2773.835938 307.488281 -2733.542969 C 290.808594 -2693.210938 275.425781 -2652.382812 261.429688 -2611.066406 C 247.390625 -2569.75 234.734375 -2528.027344 223.421875 -2485.859375 C 212.152344 -2443.691406 202.226562 -2401.257812 193.730469 -2358.417969 C 185.1875 -2315.625 178.125 -2272.605469 172.398438 -2229.320312 C 166.722656 -2186.082031 162.429688 -2142.660156 159.566406 -2099.152344 C 156.75 -2055.597656 155.316406 -2012 155.316406 -1968.355469 C 155.316406 -1924.714844 156.75 -1881.113281 159.566406 -1837.5625 C 162.429688 -1794.050781 166.722656 -1750.632812 172.398438 -1707.390625 C 178.125 -1664.105469 185.1875 -1621.089844 193.730469 -1578.292969 C 202.226562 -1535.457031 212.152344 -1493.019531 223.421875 -1450.851562 C 234.734375 -1408.683594 247.390625 -1366.964844 261.429688 -1325.648438 C 275.425781 -1284.328125 290.808594 -1243.503906 307.488281 -1203.167969 C 324.210938 -1162.878906 342.1875 -1123.125 361.503906 -1084 C 380.824219 -1044.871094 401.347656 -1006.414062 423.167969 -968.585938 Z M -1308.429688 31.140625 "
       fill-opacity="1"
       fill-rule="nonzero"
       id="path7" />
  </g>
  <g
     clip-path="url(#cdc0a5317b)"
     id="g8">
    <path
       fill="#406078"
       d="M 1082.335938 921.132812 L 884.0625 580.035156 C 905.480469 579.003906 925.648438 574.710938 944.027344 566.664062 C 949.035156 564.472656 951.359375 558.613281 949.171875 553.605469 C 946.980469 548.554688 941.121094 546.226562 936.066406 548.464844 C 917.109375 556.738281 895.867188 560.628906 872.570312 560.402344 L 857.8125 534.960938 C 863.179688 535.40625 868.589844 535.71875 874 535.71875 C 905.792969 535.71875 938.167969 528.519531 960.4375 515.597656 C 965.179688 512.871094 966.789062 506.789062 964.015625 502.046875 C 961.289062 497.308594 955.207031 495.652344 950.464844 498.425781 C 924.621094 513.40625 881.066406 519.398438 845.25 513.40625 L 827.628906 483.042969 C 837.019531 483.714844 846.277344 484.164062 855.265625 484.164062 C 901.457031 484.164062 942.328125 475.355469 977.164062 457.871094 C 982.082031 455.410156 984.046875 449.460938 981.589844 444.542969 C 979.128906 439.667969 973.183594 437.703125 968.265625 440.117188 C 926.632812 461 875.164062 468.289062 815.332031 462.027344 L 793.78125 424.914062 C 808.3125 426.882812 823.828125 427.910156 839.75 427.910156 C 907.136719 427.910156 980.023438 411.8125 998.269531 392.226562 C 1002.023438 388.203125 1001.757812 381.894531 997.777344 378.183594 C 993.75 374.429688 987.445312 374.652344 983.734375 378.675781 C 967.234375 396.386719 855.042969 418.429688 780.855469 402.644531 L 761.71875 369.777344 C 775.402344 370.402344 789.308594 370.851562 803.394531 370.851562 C 883.617188 370.851562 1010.96875 357.570312 1010.96875 321.976562 C 1010.96875 307.53125 993.304688 300.242188 979.980469 296.039062 C 974.746094 294.339844 969.203125 297.246094 967.503906 302.476562 C 965.847656 307.710938 968.753906 313.300781 973.988281 314.953125 C 983.691406 318.039062 988.117188 320.679688 990.085938 322.199219 C 978.546875 332.796875 908.476562 350.949219 803.394531 350.949219 C 785.148438 350.949219 767.21875 350.371094 749.824219 349.25 L 711.949219 284.101562 C 747.8125 290.003906 791.410156 293.355469 835.230469 293.355469 C 915.5 293.355469 1042.804688 280.074219 1042.804688 244.390625 C 1042.804688 201.242188 856.472656 199.988281 835.230469 199.988281 C 829.105469 199.988281 797.714844 200.75 785.550781 215.371094 C 781.257812 220.558594 779.648438 226.863281 780.902344 233.613281 C 785.464844 257.941406 839.523438 258.253906 884.019531 254.273438 C 889.472656 253.78125 893.496094 248.953125 893.007812 243.496094 C 892.511719 238.042969 887.773438 233.929688 882.230469 234.507812 C 844.308594 237.863281 805.183594 235.3125 800.441406 229.949219 C 800.21875 228.917969 800.398438 228.605469 800.847656 228.070312 C 805.226562 222.75 823.652344 219.886719 835.234375 219.886719 C 948.992188 219.886719 1011.371094 235.449219 1022.058594 244.527344 C 1010.878906 255.167969 940.675781 273.503906 835.234375 273.503906 C 785.417969 273.503906 736.097656 269.121094 698.804688 261.519531 L 682.125 232.765625 C 698.757812 229.097656 719.863281 226.011719 744.191406 223.777344 C 749.644531 223.285156 753.671875 218.457031 753.179688 213 C 752.640625 207.5 747.855469 203.476562 742.355469 204.011719 C 714.273438 206.605469 690.039062 210.273438 671.660156 214.789062 L 550.566406 6.410156 C 548.78125 3.324219 545.515625 1.445312 541.984375 1.445312 C 538.449219 1.445312 535.140625 3.324219 533.398438 6.410156 L 399.695312 236.386719 C 390.796875 221.675781 381.628906 206.875 372.460938 192.339844 C 335.125 132.867188 296.535156 71.339844 290.183594 25.234375 C 289.511719 20.316406 285.308594 16.652344 280.347656 16.652344 C 280.300781 16.652344 280.253906 16.652344 280.210938 16.652344 C 275.203125 16.742188 271.046875 20.496094 270.464844 25.503906 C 265.320312 72.1875 225.746094 134.746094 187.46875 195.203125 C 144.230469 263.53125 103.359375 328.054688 103.359375 378.316406 C 103.359375 453.128906 150.890625 519.84375 220.382812 544.796875 L 1.628906 921.128906 C -0.160156 924.214844 -0.203125 928.015625 1.582031 931.101562 C 3.371094 934.1875 6.636719 936.066406 10.214844 936.066406 L 379.035156 936.066406 C 363.605469 965.265625 359.71875 994.6875 367.675781 1023.933594 C 347.554688 1019.550781 335.210938 1005.957031 329.308594 982.078125 C 328.28125 977.742188 324.4375 974.65625 319.964844 974.523438 C 315.851562 974.746094 311.511719 977.25 310.214844 981.496094 C 287.542969 1054.742188 294.519531 1119.136719 330.339844 1167.652344 C 370.851562 1222.652344 446.019531 1252.925781 541.980469 1252.925781 C 691.738281 1252.925781 786.535156 1166.625 789.398438 1027.734375 C 789.488281 1023.890625 787.296875 1020.3125 783.808594 1018.613281 C 780.320312 1016.914062 776.160156 1017.40625 773.164062 1019.863281 L 752.953125 1036.363281 C 758.140625 1005.734375 751.96875 972.597656 734.484375 936.066406 L 1073.75 936.066406 C 1077.28125 936.066406 1080.589844 934.1875 1082.378906 931.101562 C 1084.125 928.015625 1084.125 924.214844 1082.332031 921.128906 Z M 950.691406 856.828125 L 133.230469 856.828125 L 541.9375 147.089844 Z M 123.210938 378.273438 C 123.210938 333.824219 164.394531 268.761719 204.238281 205.847656 C 234.332031 158.269531 265.230469 109.484375 280.703125 66.285156 C 296.445312 108.589844 326.449219 156.34375 355.648438 202.894531 C 366.691406 220.425781 377.917969 238.488281 388.292969 255.929688 L 230.578125 527.269531 C 167.035156 506.074219 123.210938 445.972656 123.210938 378.273438 Z M 541.980469 992.007812 C 577.039062 1028.675781 593.585938 1071.511719 589.875 1116.496094 C 589.425781 1121.730469 593.09375 1126.335938 598.28125 1127.140625 C 603.378906 1127.988281 608.296875 1124.636719 609.460938 1119.539062 C 614.558594 1097.3125 629.445312 1080.1875 654.890625 1067.445312 C 667.007812 1105.363281 664.503906 1141.582031 647.691406 1170.335938 C 628.375 1203.292969 590.855469 1225.472656 541.9375 1232.9375 C 493.0625 1225.472656 455.542969 1203.292969 436.226562 1170.335938 C 419.414062 1141.582031 416.910156 1105.363281 429.027344 1067.445312 C 454.472656 1080.1875 469.363281 1097.3125 474.460938 1119.539062 C 475.621094 1124.636719 480.585938 1127.945312 485.640625 1127.140625 C 490.824219 1126.335938 494.449219 1121.730469 494.046875 1116.496094 C 490.378906 1071.511719 506.878906 1028.675781 541.980469 992.007812 Z M 727.554688 1072.71875 C 731.222656 1075.582031 736.363281 1075.539062 739.941406 1072.585938 L 768.203125 1049.558594 C 759.304688 1138.230469 708.058594 1198.863281 625.066406 1222.207031 C 641.566406 1210.804688 655.160156 1196.851562 664.816406 1180.351562 C 686.238281 1143.773438 688.070312 1097.582031 669.914062 1050.316406 C 668.976562 1047.8125 667.054688 1045.800781 664.550781 1044.726562 C 662.089844 1043.65625 659.273438 1043.65625 656.8125 1044.679688 C 635.976562 1053.445312 619.789062 1064.757812 608.296875 1078.441406 C 602.214844 1039.269531 582.046875 1002.601562 548.824219 970.808594 C 544.976562 967.144531 538.941406 967.144531 535.09375 970.808594 C 501.871094 1002.601562 481.75 1039.269531 475.667969 1078.441406 C 464.175781 1064.714844 447.988281 1053.445312 427.105469 1044.679688 C 424.644531 1043.652344 421.828125 1043.652344 419.371094 1044.726562 C 416.910156 1045.753906 414.988281 1047.8125 414.003906 1050.316406 C 395.894531 1097.582031 397.683594 1143.773438 419.144531 1180.351562 C 429.476562 1198.058594 444.367188 1212.90625 462.609375 1224.710938 C 411.363281 1213.128906 371.253906 1189.699219 346.300781 1155.847656 C 318.9375 1118.734375 310.707031 1070.617188 321.976562 1015.394531 C 334.722656 1034.890625 354.753906 1044.949219 381.941406 1045.308594 C 385.160156 1045.488281 388.425781 1043.742188 390.304688 1040.972656 C 392.183594 1038.199219 392.539062 1034.667969 391.242188 1031.582031 C 378.09375 999.699219 381.71875 968.398438 402.0625 936.066406 L 644.472656 936.066406 C 653.460938 957.308594 652.742188 978.054688 642.054688 999.339844 C 640.132812 1003.230469 640.894531 1007.882812 643.980469 1010.921875 C 647.066406 1013.917969 651.761719 1014.632812 655.5625 1012.578125 C 683.730469 997.6875 704.972656 976.578125 718.925781 949.617188 C 737.929688 991.785156 739.808594 1028.273438 724.648438 1060.691406 C 722.679688 1064.894531 723.886719 1069.902344 727.554688 1072.71875 Z M 669.335938 979.933594 C 671.839844 965.3125 670.675781 950.644531 665.800781 936.066406 L 703.273438 936.066406 C 695.089844 953.460938 683.957031 968.082031 669.335938 979.933594 Z M 669.335938 979.933594 "
       fill-opacity="1"
       fill-rule="nonzero"
       id="path8" />
  </g>
  <path
     fill="#406078"
     d="M 541.980469 708.058594 C 517.207031 708.058594 497.085938 728.179688 497.085938 752.953125 C 497.085938 777.636719 517.207031 797.714844 541.980469 797.714844 C 566.710938 797.714844 586.875 777.636719 586.875 752.953125 C 586.832031 728.179688 566.710938 708.058594 541.980469 708.058594 Z M 541.980469 708.058594 "
     fill-opacity="1"
     fill-rule="nonzero"
     id="path9" />
  <path
     fill="#406078"
     d="M 499.859375 296.578125 C 498.023438 298.5 496.996094 301.136719 497.085938 303.820312 L 508.21875 651.714844 C 508.9375 670.003906 523.738281 684.3125 541.980469 684.3125 C 550.746094 684.3125 559.0625 680.871094 565.234375 674.878906 C 571.71875 668.839844 575.429688 660.570312 575.742188 651.625 L 586.832031 303.820312 C 586.921875 301.136719 585.9375 298.5 584.058594 296.578125 C 582.179688 294.652344 579.632812 293.535156 576.90625 293.535156 L 507.011719 293.535156 C 504.328125 293.582031 501.738281 294.65625 499.859375 296.578125 Z M 499.859375 296.578125 "
     fill-opacity="1"
     fill-rule="nonzero"
     id="path10" />
  <path
     fill="#406078"
     d="M 219.484375 345.316406 C 219.484375 326.3125 204.015625 310.839844 185.011719 310.839844 C 166.050781 310.839844 150.621094 326.3125 150.621094 345.316406 C 150.621094 364.320312 166.050781 379.792969 185.011719 379.792969 C 204.015625 379.792969 219.484375 364.320312 219.484375 345.316406 Z M 170.476562 345.316406 C 170.476562 337.269531 177.003906 330.695312 185.011719 330.695312 C 193.058594 330.695312 199.585938 337.269531 199.585938 345.316406 C 199.585938 353.367188 193.058594 359.894531 185.011719 359.894531 C 177.003906 359.894531 170.476562 353.367188 170.476562 345.316406 Z M 170.476562 345.316406 "
     fill-opacity="1"
     fill-rule="nonzero"
     id="path11" />
  <path
     fill="#406078"
     d="M 228.519531 391.019531 C 226.058594 391.0625 168.332031 392.628906 162.652344 432.558594 C 157.015625 470.835938 213.496094 496.773438 219.933594 499.632812 C 219.980469 499.632812 219.980469 499.632812 220.023438 499.632812 C 221.277344 500.214844 222.617188 500.527344 223.960938 500.527344 C 226.507812 500.527344 229.058594 499.542969 231.023438 497.621094 C 231.335938 497.265625 231.472656 496.863281 231.742188 496.503906 C 232.097656 496.011719 232.5 495.519531 232.769531 494.9375 C 232.992188 494.445312 233.171875 494 233.351562 493.460938 C 233.574219 492.835938 233.664062 492.121094 233.753906 491.449219 C 233.753906 491.046875 233.84375 490.644531 233.84375 490.242188 C 233.796875 489.171875 233.664062 488.140625 233.261719 487.113281 C 222.128906 456.707031 223.46875 430.144531 237.332031 405.863281 C 239.121094 402.734375 239.074219 398.933594 237.238281 395.847656 C 235.40625 392.761719 232.367188 390.972656 228.519531 391.015625 Z M 208.039062 470.300781 C 194.398438 461.132812 180.449219 448.164062 182.328125 435.375 C 184.203125 422.050781 199.585938 415.925781 212.152344 413.152344 C 205.667969 431.039062 204.328125 450.175781 208.039062 470.300781 Z M 208.039062 470.300781 "
     fill-opacity="1"
     fill-rule="nonzero"
     id="path12" />
  <g
     clip-path="url(#6e98e67910)"
     id="g14"
     transform="translate(7.8440409,-31.376164)">
    <g
       clip-path="url(#bf0833c8f3)"
       id="g13">
      <path
         fill="#ff5757"
         d="m 469.17969,1393.5195 h 143.92968 v 143.9297 H 469.17969 Z m 0,0"
         fill-opacity="1"
         fill-rule="nonzero"
         id="path13" />
    </g>
  </g>
</svg>
