<svg xmlns="http://www.w3.org/2000/svg" xmlns:xlink="http://www.w3.org/1999/xlink" width="438" zoomAndPan="magnify" viewBox="0 0 328.5 328.499999" height="438" preserveAspectRatio="xMidYMid meet" version="1.0"><defs><clipPath id="0c5c4c61fa"><path d="M 0 0 L 327.25 0 L 327.25 327.25 L 0 327.25 Z M 0 0 " clip-rule="nonzero"/></clipPath><clipPath id="b6da212562"><path d="M 117.46875 30.683594 L 300.742188 30.683594 L 300.742188 205.097656 L 117.46875 205.097656 Z M 117.46875 30.683594 " clip-rule="nonzero"/></clipPath><clipPath id="603113e966"><path d="M 208.914062 30.683594 C 158.410156 30.683594 117.46875 69.726562 117.46875 117.890625 C 117.46875 166.054688 158.410156 205.097656 208.914062 205.097656 C 259.417969 205.097656 300.359375 166.054688 300.359375 117.890625 C 300.359375 69.726562 259.417969 30.683594 208.914062 30.683594 Z M 208.914062 30.683594 " clip-rule="nonzero"/></clipPath></defs><g clip-path="url(#0c5c4c61fa)"><path fill="#7d7f8a" d="M 15.351562 312.125 C 8.285156 305.089844 8.78125 293.984375 16.339844 287.441406 L 103.035156 212.839844 L 115.128906 224.933594 L 40.03125 311.136719 C 33.492188 318.695312 22.386719 319.1875 15.351562 312.152344 Z M 96.984375 191.152344 L 109.605469 178.5625 C 114.632812 186.617188 120.1875 194.175781 127.222656 200.746094 C 133.792969 207.289062 141.351562 213.335938 149.402344 218.363281 L 136.816406 230.980469 C 136.320312 231.476562 136.320312 231.476562 135.796875 231.476562 C 135.796875 231.476562 135.304688 231.476562 134.808594 230.980469 L 96.984375 193.1875 C 96.492188 192.171875 96.492188 191.675781 96.984375 191.152344 Z M 133.792969 41.457031 C 175.628906 -0.378906 244.179688 -0.378906 286.015625 41.457031 C 327.851562 83.292969 327.851562 151.847656 286.015625 193.683594 C 251.246094 228.453125 199.320312 234.003906 159 212.316406 C 149.925781 207.289062 141.351562 201.242188 133.792969 193.683594 C 126.234375 186.121094 120.1875 177.546875 115.128906 168.476562 C 93.46875 128.152344 99.019531 76.226562 133.792969 41.457031 Z M 47.59375 318.171875 L 121.699219 232.492188 L 127.25 238.046875 C 131.785156 242.582031 138.820312 242.582031 143.386719 238.046875 L 157.980469 223.421875 C 201.328125 244.589844 256.273438 238.046875 293.082031 200.746094 C 338.929688 154.871094 338.929688 80.269531 293.082031 34.394531 C 247.203125 -11.484375 172.605469 -11.484375 126.726562 34.394531 C 89.949219 71.199219 82.886719 126.144531 104.050781 169.492188 L 89.425781 184.089844 C 84.890625 188.652344 84.890625 195.6875 89.425781 200.222656 L 94.980469 205.777344 L 9.304688 279.882812 C -2.296875 289.941406 -3.3125 308.113281 7.761719 319.1875 C 19.363281 330.789062 37.53125 329.769531 47.59375 318.171875 " fill-opacity="1" fill-rule="nonzero"/></g><path fill="#7d7f8a" d="M 209.90625 82.277344 C 238.628906 82.277344 265.347656 95.386719 282.992188 117.570312 C 265.347656 140.246094 238.628906 152.863281 209.90625 152.863281 C 181.179688 152.863281 154.464844 140.246094 136.816406 117.570312 C 154.464844 95.386719 181.675781 82.277344 209.90625 82.277344 Z M 126.726562 120.59375 C 146.378906 147.3125 177.632812 162.953125 210.429688 162.953125 C 243.65625 162.953125 274.417969 147.3125 294.097656 120.59375 C 295.609375 118.585938 295.609375 116.550781 294.097656 114.546875 C 274.417969 87.828125 243.164062 72.214844 210.429688 72.214844 C 177.632812 72.214844 146.378906 87.828125 126.726562 114.546875 C 125.214844 116.058594 125.214844 118.585938 126.726562 120.59375 " fill-opacity="1" fill-rule="nonzero"/><path fill="#7d7f8a" d="M 209.90625 99.921875 C 219.46875 99.921875 227.550781 108.003906 227.550781 117.570312 C 227.550781 127.132812 219.46875 135.21875 209.90625 135.21875 C 200.308594 135.21875 192.257812 127.132812 192.257812 117.570312 C 192.257812 108.003906 200.308594 99.921875 209.90625 99.921875 Z M 209.90625 145.304688 C 225.023438 145.304688 237.609375 132.6875 237.609375 117.570312 C 237.609375 102.453125 225.023438 89.835938 209.90625 89.835938 C 194.785156 89.835938 182.167969 102.453125 182.167969 117.570312 C 182.167969 132.6875 194.785156 145.304688 209.90625 145.304688 " fill-opacity="1" fill-rule="nonzero"/><g clip-path="url(#b6da212562)"><g clip-path="url(#603113e966)"><path fill="#ffffff" d="M 117.46875 30.683594 L 300.0625 30.683594 L 300.0625 205.097656 L 117.46875 205.097656 Z M 117.46875 30.683594 " fill-opacity="1" fill-rule="nonzero"/></g></g><path fill="#7d7f8a" d="M 154.9375 65.46875 C 141.394531 79.097656 133.9375 97.464844 133.9375 116.902344 C 133.9375 136.34375 141.390625 154.507812 154.9375 168.132812 C 168.550781 181.832031 186.847656 189.375 206.460938 189.375 L 209.398438 189.375 L 209.398438 44.136719 L 206.460938 44.136719 C 186.847656 44.136719 168.550781 51.765625 154.9375 65.46875 Z M 193.796875 50.820312 C 186.339844 56.644531 180.140625 66.542969 176.121094 80.652344 L 149.523438 80.652344 C 159.226562 64.882812 175.023438 54.261719 193.796875 50.820312 Z M 147.953125 83.144531 L 175.378906 83.144531 C 172.726562 93.101562 171.210938 104.722656 171.167969 116.339844 L 139.1875 116.339844 C 139.28125 104.722656 142.441406 93.101562 147.953125 83.144531 Z M 139.222656 118.828125 L 171.183594 118.828125 C 171.339844 130.449219 172.816406 141.238281 175.308594 150.367188 L 147.820312 150.367188 C 142.621094 141.238281 139.554688 130.449219 139.222656 118.828125 Z M 149.371094 152.855469 L 176.050781 152.855469 C 180.0625 166.136719 186.296875 177.066406 193.796875 182.925781 C 174.925781 179.472656 159.0625 167.796875 149.371094 152.855469 Z M 204.417969 184.023438 C 202.757812 183.976562 201.710938 183.902344 200.523438 183.796875 C 191.578125 179.785156 183.601562 167.796875 178.851562 152.855469 L 204.417969 152.855469 Z M 204.417969 150.367188 L 178.089844 150.367188 C 175.511719 141.238281 173.964844 130.449219 173.800781 118.828125 L 204.417969 118.828125 Z M 204.417969 116.339844 L 173.785156 116.339844 C 173.828125 104.722656 175.421875 93.101562 178.160156 83.144531 L 204.417969 83.144531 Z M 204.417969 80.652344 L 178.929688 80.652344 C 183.683594 64.882812 191.621094 53.855469 200.523438 49.863281 C 201.710938 49.757812 202.757812 49.59375 204.417969 49.550781 Z M 204.417969 80.652344 " fill-opacity="1" fill-rule="nonzero"/><path fill="#7d7f8a" d="M 292.921875 117.539062 C 292.921875 109.5625 288.402344 104.746094 285.597656 102.523438 C 286.945312 99.574219 288.742188 94.175781 286.894531 88.996094 C 284.800781 83.164062 280.214844 80.78125 276.761719 79.804688 C 276.65625 79.671875 276.554688 79.550781 276.4375 79.429688 C 277.144531 77.128906 277.484375 74.003906 276.046875 70.613281 C 273.253906 64.070312 268.058594 62.136719 264.910156 61.578125 C 264.554688 58.492188 263.035156 53.449219 257.261719 50.1875 C 254.578125 48.671875 251.8125 47.894531 249.046875 47.894531 C 247.660156 47.894531 246.441406 48.085938 245.410156 48.355469 C 244.738281 47.945312 243.953125 47.695312 243.109375 47.695312 C 242.707031 47.695312 242.324219 47.773438 241.949219 47.867188 C 239.339844 46.1875 235.277344 44.214844 230.480469 44.214844 C 228.632812 44.214844 226.792969 44.511719 225.023438 45.101562 C 212.996094 49.105469 211.757812 60.785156 211.703125 61.28125 L 211.695312 177.917969 L 211.992188 178.484375 C 212.21875 178.929688 217.820312 189.304688 233.289062 189.304688 C 242.753906 189.304688 250.113281 183.613281 254.585938 178.894531 L 255.449219 179.207031 C 255.539062 179.242188 255.625 179.339844 255.640625 179.433594 L 255.992188 181.300781 C 256.007812 181.394531 256.09375 181.484375 256.191406 181.5 C 256.191406 181.5 256.242188 181.5 256.347656 181.515625 C 256.925781 181.597656 257.882812 181.605469 257.882812 181.605469 C 257.980469 181.605469 258.074219 181.535156 258.109375 181.449219 L 258.761719 179.625 C 258.789062 179.539062 258.894531 179.449219 258.992188 179.433594 L 259.863281 179.234375 C 259.957031 179.207031 260.082031 179.242188 260.152344 179.3125 L 261.449219 180.699219 C 261.511719 180.757812 261.632812 180.785156 261.71875 180.742188 L 263.238281 179.898438 C 263.316406 179.84375 263.367188 179.722656 263.34375 179.636719 L 262.90625 177.742188 C 262.890625 177.648438 262.925781 177.515625 262.992188 177.453125 L 263.535156 176.898438 C 263.59375 176.828125 263.71875 176.792969 263.8125 176.808594 L 265.660156 177.273438 C 265.75 177.300781 265.863281 177.246094 265.914062 177.167969 L 266.761719 175.570312 C 266.796875 175.484375 266.777344 175.363281 266.707031 175.300781 L 265.3125 173.933594 C 265.242188 173.871094 265.207031 173.742188 265.226562 173.644531 L 265.355469 173.015625 C 265.375 172.929688 265.460938 172.824219 265.546875 172.789062 L 267.351562 172.179688 C 267.449219 172.152344 267.519531 172.046875 267.519531 171.953125 L 267.476562 171.394531 C 274.6875 168.464844 283.722656 162.238281 287.238281 149.105469 C 288.902344 142.878906 286.835938 137.191406 285.40625 134.277344 C 288.097656 131.667969 292.921875 125.851562 292.921875 117.539062 Z M 287.6875 117.539062 C 287.6875 126.136719 280.597656 131.546875 280.539062 131.589844 L 279.449219 132.394531 L 273.414062 132.410156 L 273.246094 131.441406 C 273.230469 131.363281 273.144531 131.292969 273.0625 131.285156 L 271.355469 131.121094 C 271.277344 131.109375 271.179688 131.042969 271.136719 130.972656 L 270.933594 130.554688 C 270.902344 130.472656 270.902344 130.359375 270.945312 130.292969 L 271.867188 128.835938 C 271.910156 128.765625 271.902344 128.652344 271.851562 128.589844 L 270.734375 127.351562 C 270.671875 127.292969 270.570312 127.273438 270.492188 127.316406 L 268.984375 128.09375 C 268.972656 128.101562 268.957031 128.101562 268.949219 128.109375 L 280.226562 107.988281 C 280.558594 108.070312 280.902344 108.128906 281.257812 108.128906 C 282.046875 108.128906 282.773438 107.902344 283.40625 107.53125 C 285.332031 109.371094 287.6875 112.621094 287.6875 117.539062 Z M 257.757812 128.992188 L 258.734375 130.351562 C 258.789062 130.421875 258.796875 130.542969 258.761719 130.613281 L 258.597656 130.980469 L 242.765625 124.5625 C 242.96875 123.984375 243.070312 123.375 243.070312 122.730469 C 243.070312 121.542969 242.707031 120.4375 242.078125 119.519531 L 249.542969 112.527344 C 251.148438 113.949219 253.257812 114.8125 255.570312 114.8125 C 256.378906 114.8125 257.164062 114.699219 257.914062 114.496094 L 261.472656 125.992188 L 261.679688 126.648438 L 261.660156 127.585938 C 261.667969 127.675781 261.554688 127.773438 261.484375 127.8125 L 260.855469 128.207031 C 260.785156 128.257812 260.660156 128.265625 260.582031 128.230469 L 259.003906 127.527344 C 258.925781 127.492188 258.816406 127.515625 258.757812 127.578125 C 258.757812 127.578125 258.03125 128.335938 257.683594 128.851562 L 257.671875 128.863281 C 257.671875 128.863281 257.714844 128.921875 257.757812 128.992188 Z M 256.757812 136.945312 L 257.367188 138.183594 L 252.691406 141.210938 L 252.585938 141.078125 C 252.519531 140.992188 252.492188 140.828125 252.535156 140.722656 L 253.40625 138.53125 C 253.449219 138.429688 253.414062 138.28125 253.328125 138.203125 L 251.472656 136.824219 C 251.375 136.761719 251.226562 136.761719 251.132812 136.832031 L 249.265625 138.289062 C 249.167969 138.367188 249.011719 138.386719 248.90625 138.339844 L 248.304688 138.113281 C 248.191406 138.070312 248.089844 137.960938 248.070312 137.84375 L 247.617188 135.507812 C 247.589844 135.394531 247.484375 135.289062 247.363281 135.273438 L 245.070312 135.089844 C 244.957031 135.089844 244.824219 135.175781 244.789062 135.28125 L 244.003906 137.503906 C 243.96875 137.609375 243.890625 137.707031 243.832031 137.714844 L 243.777344 137.722656 C 243.464844 137.777344 243.046875 137.871094 243.046875 137.871094 C 242.933594 137.898438 242.777344 137.855469 242.695312 137.765625 L 241.050781 136.039062 C 240.96875 135.960938 240.824219 135.925781 240.71875 135.980469 L 238.710938 137.027344 C 238.617188 137.078125 238.554688 137.21875 238.582031 137.332031 L 239.070312 139.414062 L 219.832031 119.425781 C 219.847656 119.394531 219.863281 119.367188 219.882812 119.332031 L 231.710938 122.324219 C 231.699219 122.460938 231.683594 122.59375 231.683594 122.730469 C 231.683594 125.882812 234.238281 128.425781 237.378906 128.425781 C 239.261719 128.425781 240.917969 127.519531 241.957031 126.117188 L 256.355469 131.957031 L 256.164062 133.433594 C 256.164062 133.519531 256.226562 133.605469 256.292969 133.640625 L 257.863281 134.269531 C 257.941406 134.296875 258.019531 134.390625 258.027344 134.480469 L 258.167969 135.34375 C 258.1875 135.421875 258.152344 135.535156 258.089844 135.585938 L 256.816406 136.710938 C 256.746094 136.761719 256.722656 136.867188 256.753906 136.945312 Z M 246.316406 154.089844 C 242.488281 154.691406 238.894531 152.074219 238.300781 148.246094 C 237.699219 144.417969 240.316406 140.835938 244.144531 140.234375 C 247.972656 139.628906 251.558594 142.25 252.160156 146.074219 C 252.761719 149.90625 250.136719 153.488281 246.316406 154.089844 Z M 268.269531 87.199219 L 260.191406 97.832031 C 258.832031 97.039062 257.253906 96.566406 255.570312 96.566406 C 254.453125 96.566406 253.390625 96.777344 252.40625 97.140625 L 244.066406 79.875 C 245.246094 79.117188 246.1875 78.015625 246.746094 76.71875 L 266.742188 82.570312 C 266.714844 82.804688 266.691406 83.050781 266.691406 83.292969 C 266.6875 84.8125 267.300781 86.1875 268.269531 87.199219 Z M 264.683594 105.601562 L 276.992188 104.207031 C 277.105469 105.4375 277.722656 106.511719 278.652344 107.226562 L 268.144531 125.976562 L 268.121094 126.488281 L 268.324219 125.976562 L 268.324219 125.859375 C 268.324219 125.773438 268.171875 125.6875 268.09375 125.660156 L 266.472656 125.214844 C 266.394531 125.199219 266.265625 125.242188 266.222656 125.3125 L 265.375 126.886719 C 265.332031 126.964844 265.214844 127.128906 265.136719 127.128906 L 264.535156 127.128906 C 264.449219 127.128906 264.34375 126.964844 264.300781 126.894531 L 263.359375 125.394531 C 263.3125 125.324219 263.210938 125.261719 263.121094 125.277344 L 263.082031 125.28125 L 263.078125 125.269531 L 259.546875 113.886719 C 262.589844 112.40625 264.695312 109.300781 264.695312 105.691406 C 264.691406 105.664062 264.683594 105.628906 264.683594 105.601562 Z M 260.636719 130.917969 C 262.222656 128.609375 265.382812 128.015625 267.691406 129.601562 C 270.011719 131.1875 270.597656 134.347656 269.019531 136.65625 C 267.429688 138.96875 264.273438 139.5625 261.960938 137.972656 C 259.640625 136.394531 259.058594 133.238281 260.636719 130.917969 Z M 277.546875 85.449219 C 279.292969 86.398438 281.042969 87.96875 281.96875 90.558594 C 283.082031 93.664062 282.097656 97.222656 281.164062 99.523438 C 279.316406 99.566406 277.773438 100.769531 277.203125 102.429688 L 264.507812 103.867188 C 264.109375 101.886719 263.0625 100.152344 261.605469 98.859375 L 269.652344 88.257812 C 270.457031 88.683594 271.363281 88.9375 272.332031 88.9375 C 274.6875 88.9375 276.699219 87.488281 277.546875 85.449219 Z M 271.234375 72.566406 C 272.070312 74.554688 271.867188 76.386719 271.449219 77.730469 C 269.574219 78.023438 268.015625 79.238281 267.238281 80.894531 L 247.222656 75.042969 C 247.285156 74.667969 247.328125 74.28125 247.328125 73.890625 C 247.328125 73.273438 247.242188 72.671875 247.09375 72.101562 L 258.921875 66.542969 C 259.492188 67.191406 260.320312 67.609375 261.253906 67.609375 C 262.15625 67.609375 262.957031 67.222656 263.527344 66.617188 C 263.550781 66.609375 263.570312 66.605469 263.59375 66.597656 C 265.519531 66.84375 269.242188 67.917969 271.234375 72.566406 Z M 243.472656 56.492188 C 245.339844 56.335938 246.867188 55.035156 247.34375 53.285156 C 247.859375 53.1875 248.417969 53.128906 249.046875 53.128906 C 250.894531 53.128906 252.796875 53.667969 254.6875 54.742188 C 258.292969 56.777344 259.367188 59.851562 259.667969 61.804688 C 258.75 62.351562 258.128906 63.339844 258.128906 64.484375 C 258.128906 64.652344 258.152344 64.808594 258.179688 64.96875 L 246.457031 70.472656 C 245.523438 68.78125 243.933594 67.515625 242.023438 67.011719 Z M 242.496094 80.632812 L 250.832031 97.902344 C 249.945312 98.441406 249.152344 99.121094 248.496094 99.933594 L 221.425781 83.066406 C 221.589844 82.578125 221.6875 82.066406 221.6875 81.523438 C 221.6875 81.472656 221.679688 81.417969 221.679688 81.375 L 233.835938 77.074219 C 235.003906 79.414062 237.410156 81.015625 240.203125 81.015625 C 241.003906 81.015625 241.773438 80.878906 242.496094 80.632812 Z M 217.695312 61.683594 C 217.695312 60.617188 218.746094 52.839844 227.054688 50.066406 C 228.285156 49.65625 229.378906 49.449219 230.667969 49.449219 C 233.976562 49.449219 236.808594 50.789062 238.796875 52.019531 C 238.796875 52.054688 238.742188 52.082031 238.742188 52.117188 C 238.742188 54.070312 240 55.710938 241.761719 56.292969 L 240.304688 66.777344 C 240.28125 66.777344 240.242188 66.765625 240.207031 66.765625 C 236.273438 66.765625 233.082031 69.960938 233.082031 73.890625 C 233.082031 74.425781 233.140625 74.929688 233.253906 75.425781 L 221.695312 79.65625 C 220.960938 77.949219 219.355469 76.753906 217.695312 76.753906 Z M 217.695312 86.285156 C 218.527344 86.285156 220.070312 85.621094 220.953125 84.585938 L 247.71875 101.382812 C 247.03125 102.664062 246.542969 104.128906 246.542969 105.691406 C 246.542969 107.789062 247.210938 109.71875 248.398438 111.253906 L 240.910156 118.25 C 239.941406 117.496094 238.71875 117.035156 237.394531 117.035156 C 234.996094 117.035156 232.941406 118.519531 232.105469 120.621094 L 220.554688 117.601562 C 220.519531 115.628906 219.355469 114.007812 217.699219 113.648438 L 217.699219 86.285156 Z M 217.324219 144.472656 L 217.695312 144.464844 L 217.695312 121.738281 C 218.527344 121.597656 218.683594 121.292969 219.183594 120.855469 L 237.933594 140.539062 L 235.796875 140.058594 C 235.695312 140.03125 235.515625 140.082031 235.453125 140.179688 L 234.339844 142.082031 C 234.289062 142.1875 234.304688 142.335938 234.394531 142.414062 L 236.066406 144.027344 C 236.152344 144.105469 236.183594 144.261719 236.15625 144.375 L 235.921875 145.332031 C 235.894531 145.445312 235.789062 145.570312 235.675781 145.613281 L 233.425781 146.390625 C 233.320312 146.425781 233.234375 146.554688 233.234375 146.667969 C 233.234375 146.667969 233.558594 147.332031 233.601562 148.019531 L 223.320312 149.652344 L 222.488281 148.367188 C 222.464844 148.308594 222.21875 148.253906 222.148438 148.265625 L 220.632812 148.394531 C 220.5625 148.402344 220.433594 148.359375 220.386719 148.308594 L 220.125 147.976562 C 220.082031 147.925781 220.058594 147.828125 220.082031 147.757812 L 220.597656 146.441406 C 220.625 146.371094 220.605469 146.285156 220.554688 146.242188 L 219.429688 145.40625 C 219.367188 145.371094 219.28125 145.371094 219.21875 145.414062 L 218.097656 146.292969 C 218.035156 146.339844 217.9375 146.347656 217.878906 146.320312 L 217.511719 146.191406 C 217.449219 146.164062 217.382812 146.09375 217.371094 146.023438 L 217.214844 144.613281 C 217.203125 144.539062 217.394531 144.480469 217.324219 144.472656 Z M 217.695312 155.6875 L 217.695312 147.628906 C 218.527344 148.097656 220.355469 149.355469 220.617188 151.003906 C 220.941406 153.105469 219.355469 155.078125 217.695312 155.6875 Z M 251.636719 164.050781 L 250.335938 165.28125 C 250.265625 165.347656 250.25 165.46875 250.300781 165.550781 L 251.234375 167.207031 C 251.277344 167.285156 251.269531 167.414062 251.226562 167.496094 L 250.808594 168.199219 C 250.765625 168.28125 250.652344 168.351562 250.554688 168.359375 L 248.621094 168.4375 C 248.523438 168.4375 248.425781 168.515625 248.394531 168.601562 C 248.394531 168.601562 248.050781 169.746094 247.957031 170.441406 C 247.957031 170.449219 248.027344 170.484375 248.105469 170.527344 L 249.78125 171.417969 C 249.867188 171.460938 249.9375 171.574219 249.9375 171.671875 L 249.980469 172.59375 C 249.988281 172.691406 249.929688 172.8125 249.847656 172.867188 L 248.269531 173.972656 C 248.191406 174.035156 248.15625 174.148438 248.183594 174.234375 L 248.742188 175.824219 C 248.777344 175.910156 248.878906 175.972656 248.976562 175.972656 L 250.304688 175.855469 C 246.472656 179.71875 240.878906 184.070312 233.667969 184.070312 C 223.109375 184.070312 218.527344 178.289062 217.699219 176.546875 L 217.699219 158.796875 C 217.699219 158.710938 218.277344 158.554688 218.277344 158.554688 C 218.34375 158.535156 218.207031 158.46875 218.214844 158.398438 L 218.191406 156.96875 C 218.199219 156.898438 218.203125 156.808594 218.265625 156.785156 L 218.820312 156.453125 C 218.878906 156.417969 218.96875 156.410156 219.019531 156.445312 L 220.238281 157.152344 C 220.296875 157.183594 220.382812 157.175781 220.4375 157.125 L 221.332031 156.199219 C 221.375 156.148438 221.386719 156.050781 221.351562 155.992188 L 220.632812 154.742188 C 220.601562 154.683594 220.601562 154.578125 220.632812 154.519531 L 220.894531 154.011719 C 220.929688 153.949219 221.007812 153.890625 221.078125 153.890625 L 222.492188 153.820312 C 222.5625 153.820312 222.632812 153.757812 222.648438 153.691406 L 222.910156 152.382812 C 222.917969 152.3125 222.875 152.234375 222.816406 152.199219 L 221.636719 151.578125 L 235.589844 149.425781 L 235.851562 149.476562 C 235.964844 149.496094 236.089844 149.609375 236.121094 149.722656 L 236.488281 150.785156 C 236.53125 150.898438 236.515625 151.054688 236.4375 151.152344 L 234.980469 153.007812 C 234.910156 153.097656 234.902344 153.253906 234.972656 153.347656 L 236.183594 155.007812 C 236.253906 155.101562 236.402344 155.136719 236.507812 155.09375 L 238.679688 154.238281 C 238.78125 154.195312 238.949219 154.222656 239.035156 154.289062 L 240.003906 155.023438 C 240.101562 155.09375 240.167969 155.242188 240.152344 155.355469 L 239.933594 157.691406 C 239.925781 157.804688 239.996094 157.9375 240.109375 157.980469 L 242.019531 158.695312 C 242.121094 158.730469 242.273438 158.683594 242.339844 158.589844 L 243.710938 156.679688 C 243.78125 156.59375 243.929688 156.523438 244.042969 156.53125 L 245.234375 156.609375 C 245.359375 156.609375 245.488281 156.699219 245.542969 156.800781 L 246.613281 158.867188 C 246.667969 158.972656 246.804688 159.042969 246.917969 159.035156 C 246.917969 159.035156 246.980469 159.015625 247.109375 159 C 247.816406 158.894531 248.933594 158.5625 248.933594 158.5625 C 249.046875 158.527344 249.144531 158.40625 249.144531 158.292969 L 249.214844 157.027344 L 253.007812 164.660156 L 251.917969 164.023438 C 251.835938 163.980469 251.707031 163.988281 251.636719 164.050781 Z M 263.339844 172.597656 C 263.332031 172.667969 263.3125 172.746094 263.296875 172.816406 C 262.765625 175.839844 259.945312 177.917969 256.878906 177.488281 C 256.582031 177.445312 256.300781 177.386719 256.023438 177.300781 C 254.21875 176.773438 252.832031 175.386719 252.238281 173.671875 C 251.957031 172.851562 251.863281 171.953125 251.984375 171.035156 C 252.421875 167.90625 255.308594 165.707031 258.449219 166.144531 C 259.789062 166.328125 260.957031 166.960938 261.8125 167.878906 C 262.972656 169.097656 263.585938 170.808594 263.339844 172.597656 Z M 282.1875 147.75 C 279.246094 158.714844 271.921875 163.964844 265.929688 166.484375 L 264.980469 165.203125 C 264.917969 165.132812 264.796875 165.097656 264.710938 165.132812 L 262.90625 165.828125 C 262.816406 165.863281 262.6875 165.847656 262.617188 165.785156 L 262.199219 165.464844 C 262.121094 165.410156 262.066406 165.289062 262.078125 165.191406 L 262.269531 163.265625 C 262.277344 163.171875 262.214844 163.066406 262.128906 163.019531 L 260.375 162.339844 C 260.289062 162.304688 260.167969 162.351562 260.117188 162.417969 L 258.980469 163.972656 C 258.929688 164.050781 258.84375 164.113281 258.796875 164.101562 L 258.753906 164.09375 C 258.492188 164.058594 258.144531 164.03125 258.144531 164.03125 C 258.046875 164.03125 257.945312 163.953125 257.898438 163.875 L 257.011719 162.132812 C 256.976562 162.054688 256.863281 161.992188 256.765625 162 L 254.953125 162.351562 C 254.867188 162.375 254.789062 162.472656 254.777344 162.566406 L 254.683594 164.101562 L 250.246094 155.191406 L 250.425781 155.085938 C 250.523438 155.015625 250.6875 155.015625 250.785156 155.078125 L 252.796875 156.238281 C 252.894531 156.296875 253.050781 156.273438 253.128906 156.195312 L 254.613281 154.660156 C 254.691406 154.570312 254.699219 154.421875 254.648438 154.316406 L 253.472656 152.25 C 253.410156 152.15625 253.410156 151.988281 253.460938 151.882812 L 253.898438 151.046875 C 253.949219 150.941406 254.082031 150.855469 254.203125 150.847656 L 256.53125 150.734375 C 256.644531 150.734375 256.757812 150.636719 256.792969 150.523438 L 257.21875 148.351562 C 257.230469 148.238281 257.160156 148.101562 257.0625 148.058594 L 254.945312 146.949219 C 254.839844 146.898438 254.753906 146.757812 254.742188 146.644531 L 254.675781 145.851562 C 254.65625 145.738281 254.726562 145.589844 254.8125 145.527344 L 256.722656 144.167969 C 256.820312 144.097656 256.863281 143.957031 256.828125 143.84375 L 256.007812 141.722656 C 255.957031 141.621094 255.824219 141.542969 255.710938 141.550781 L 255.320312 141.585938 L 259.96875 138.585938 L 260.140625 138.777344 C 260.203125 138.828125 260.238281 138.941406 260.210938 139.019531 L 259.75 140.644531 C 259.722656 140.722656 259.757812 140.832031 259.828125 140.878906 C 259.828125 140.878906 259.863281 140.902344 259.949219 140.957031 C 260.371094 141.253906 261.117188 141.636719 261.117188 141.636719 C 261.199219 141.671875 261.3125 141.652344 261.363281 141.59375 L 262.601562 140.414062 C 262.664062 140.355469 262.777344 140.328125 262.863281 140.355469 L 263.640625 140.539062 C 263.71875 140.554688 263.804688 140.632812 263.832031 140.710938 L 264.3125 142.324219 C 264.335938 142.402344 264.425781 142.472656 264.511719 142.472656 L 266.046875 142.394531 C 266.132812 142.386719 266.210938 142.316406 266.238281 142.230469 L 266.640625 140.554688 C 266.65625 140.476562 266.742188 140.390625 266.820312 140.363281 L 267.46875 140.136719 C 267.546875 140.109375 267.660156 140.128906 267.722656 140.179688 L 269.003906 141.28125 C 269.070312 141.332031 269.175781 141.339844 269.246094 141.296875 L 270.546875 140.363281 C 270.617188 140.3125 270.640625 140.207031 270.617188 140.128906 L 270.046875 138.496094 C 270.023438 138.417969 270.046875 138.296875 270.101562 138.234375 L 270.449219 137.78125 C 270.503906 137.722656 270.605469 137.667969 270.695312 137.6875 L 272.367188 137.914062 C 272.445312 137.929688 272.542969 137.871094 272.585938 137.800781 L 273.207031 136.273438 C 273.234375 136.195312 273.199219 136.089844 273.136719 136.039062 L 271.855469 135.035156 L 271.777344 134.855469 C 271.738281 134.824219 271.710938 134.597656 271.695312 134.597656 L 271.855469 134.597656 L 279.824219 134.789062 L 279.921875 135.046875 C 279.960938 135.109375 283.929688 141.21875 282.1875 147.75 Z M 282.1875 147.75 " fill-opacity="1" fill-rule="nonzero"/></svg>