<svg xmlns="http://www.w3.org/2000/svg" xmlns:xlink="http://www.w3.org/1999/xlink" width="194" zoomAndPan="magnify" viewBox="0 0 145.5 143.999998" height="192" preserveAspectRatio="xMidYMid meet" version="1.0"><defs><clipPath id="0526e293f8"><path d="M 0 0.246094 L 144 0.246094 L 144 143.007812 L 0 143.007812 Z M 0 0.246094 " clip-rule="nonzero"/></clipPath><clipPath id="26a93607f3"><path d="M 128.246094 108.269531 L 131.4375 108.269531 L 131.4375 111.457031 L 128.246094 111.457031 Z M 128.246094 108.269531 " clip-rule="nonzero"/></clipPath><clipPath id="6a2bb4b932"><path d="M 129.84375 108.269531 C 128.960938 108.269531 128.246094 108.980469 128.246094 109.863281 C 128.246094 110.742188 128.960938 111.457031 129.84375 111.457031 C 130.722656 111.457031 131.4375 110.742188 131.4375 109.863281 C 131.4375 108.980469 130.722656 108.269531 129.84375 108.269531 Z M 129.84375 108.269531 " clip-rule="nonzero"/></clipPath></defs><g clip-path="url(#0526e293f8)"><path fill="#7d7f8a" d="M 143.722656 45.511719 C 143.722656 20.554688 123.148438 0.246094 97.859375 0.246094 C 95.3125 0.246094 92.785156 0.457031 90.269531 0.875 C 87.757812 1.292969 85.296875 1.910156 82.886719 2.734375 C 80.476562 3.558594 78.152344 4.574219 75.910156 5.785156 C 73.667969 6.992188 71.539062 8.375 69.527344 9.933594 C 65.902344 8.675781 62.171875 8.042969 58.335938 8.042969 C 43.3125 8.042969 30.179688 17.738281 25.847656 31.8125 C 11.355469 34.113281 0.621094 46.429688 0.621094 61.097656 C 0.621094 77.429688 14.050781 90.714844 30.574219 90.765625 L 7.308594 114.054688 C 6.839844 114.519531 6.605469 115.085938 6.605469 115.746094 L 6.628906 126.90625 C 6.3125 127 6 127.113281 5.699219 127.246094 C 5.394531 127.378906 5.101562 127.527344 4.816406 127.695312 C 4.53125 127.863281 4.257812 128.046875 3.992188 128.246094 C 3.730469 128.445312 3.480469 128.660156 3.242188 128.890625 C 3.003906 129.121094 2.78125 129.363281 2.570312 129.621094 C 2.363281 129.875 2.167969 130.144531 1.992188 130.425781 C 1.816406 130.703125 1.65625 130.992188 1.511719 131.289062 C 1.371094 131.589844 1.246094 131.894531 1.140625 132.207031 C 1.035156 132.519531 0.945312 132.839844 0.878906 133.164062 C 0.808594 133.484375 0.761719 133.8125 0.730469 134.140625 C 0.699219 134.472656 0.691406 134.800781 0.699219 135.132812 C 0.710938 135.460938 0.738281 135.789062 0.789062 136.117188 C 0.835938 136.445312 0.90625 136.769531 0.992188 137.085938 C 1.078125 137.40625 1.183594 137.71875 1.308594 138.023438 C 1.433594 138.332031 1.574219 138.628906 1.734375 138.917969 C 1.894531 139.207031 2.070312 139.488281 2.265625 139.753906 C 2.457031 140.023438 2.667969 140.28125 2.890625 140.523438 C 3.113281 140.769531 3.351562 140.996094 3.601562 141.210938 C 3.851562 141.429688 4.113281 141.628906 4.390625 141.8125 C 4.664062 141.996094 4.949219 142.164062 5.242188 142.3125 C 5.539062 142.464844 5.839844 142.597656 6.148438 142.710938 C 6.460938 142.824219 6.777344 142.921875 7.097656 143 C 7.417969 143.074219 7.746094 143.132812 8.074219 143.171875 C 8.402344 143.210938 8.730469 143.226562 9.0625 143.226562 C 9.390625 143.226562 9.722656 143.203125 10.050781 143.164062 C 10.378906 143.125 10.703125 143.066406 11.023438 142.984375 C 11.34375 142.90625 11.660156 142.808594 11.96875 142.691406 C 12.277344 142.578125 12.582031 142.441406 12.875 142.289062 C 13.167969 142.136719 13.453125 141.96875 13.726562 141.78125 C 14 141.597656 14.257812 141.394531 14.507812 141.179688 C 14.757812 140.960938 14.992188 140.730469 15.214844 140.484375 C 15.4375 140.242188 15.644531 139.984375 15.835938 139.714844 C 16.027344 139.445312 16.203125 139.164062 16.359375 138.871094 C 16.519531 138.582031 16.660156 138.285156 16.78125 137.976562 C 16.902344 137.667969 17.007812 137.355469 17.09375 137.035156 C 17.175781 136.71875 17.242188 136.394531 17.289062 136.066406 C 17.335938 135.738281 17.363281 135.410156 17.371094 135.078125 C 17.378906 134.75 17.367188 134.417969 17.335938 134.089844 C 17.304688 133.761719 17.253906 133.433594 17.183594 133.113281 C 17.113281 132.789062 17.023438 132.46875 16.914062 132.160156 C 16.804688 131.847656 16.679688 131.539062 16.535156 131.242188 C 16.390625 130.945312 16.230469 130.660156 16.050781 130.378906 C 15.871094 130.101562 15.675781 129.835938 15.464844 129.582031 C 15.253906 129.324219 15.03125 129.082031 14.792969 128.855469 C 14.550781 128.628906 14.300781 128.414062 14.035156 128.214844 C 13.769531 128.015625 13.496094 127.835938 13.210938 127.667969 C 12.921875 127.503906 12.628906 127.355469 12.324219 127.226562 C 12.019531 127.09375 11.710938 126.984375 11.394531 126.890625 L 11.375 116.722656 L 37.304688 90.777344 L 53.113281 90.777344 L 53.113281 99.316406 L 38.28125 114.054688 C 37.8125 114.523438 37.578125 115.089844 37.578125 115.753906 L 37.597656 126.910156 C 37.28125 127.007812 36.972656 127.121094 36.671875 127.253906 C 36.367188 127.386719 36.074219 127.535156 35.789062 127.703125 C 35.503906 127.871094 35.226562 128.054688 34.964844 128.253906 C 34.703125 128.453125 34.449219 128.667969 34.214844 128.898438 C 33.976562 129.128906 33.75 129.371094 33.542969 129.625 C 33.332031 129.882812 33.140625 130.152344 32.964844 130.429688 C 32.785156 130.710938 32.628906 130.996094 32.484375 131.296875 C 32.339844 131.59375 32.21875 131.898438 32.109375 132.214844 C 32.003906 132.527344 31.917969 132.84375 31.847656 133.167969 C 31.78125 133.492188 31.730469 133.816406 31.703125 134.148438 C 31.671875 134.476562 31.664062 134.808594 31.671875 135.136719 C 31.679688 135.46875 31.710938 135.796875 31.757812 136.125 C 31.808594 136.449219 31.875 136.773438 31.964844 137.09375 C 32.050781 137.410156 32.15625 137.722656 32.28125 138.03125 C 32.40625 138.335938 32.546875 138.636719 32.707031 138.925781 C 32.867188 139.214844 33.042969 139.492188 33.234375 139.761719 C 33.429688 140.03125 33.636719 140.285156 33.859375 140.53125 C 34.085938 140.773438 34.320312 141.003906 34.574219 141.21875 C 34.824219 141.433594 35.085938 141.632812 35.359375 141.816406 C 35.636719 142.003906 35.917969 142.167969 36.214844 142.320312 C 36.507812 142.46875 36.8125 142.601562 37.121094 142.71875 C 37.429688 142.832031 37.746094 142.925781 38.070312 143.003906 C 38.390625 143.082031 38.714844 143.140625 39.042969 143.175781 C 39.371094 143.214844 39.703125 143.234375 40.03125 143.234375 C 40.363281 143.230469 40.691406 143.210938 41.019531 143.171875 C 41.347656 143.128906 41.675781 143.070312 41.996094 142.992188 C 42.316406 142.914062 42.632812 142.816406 42.941406 142.699219 C 43.25 142.582031 43.550781 142.449219 43.84375 142.296875 C 44.140625 142.144531 44.421875 141.976562 44.695312 141.789062 C 44.96875 141.601562 45.230469 141.402344 45.480469 141.183594 C 45.730469 140.96875 45.964844 140.738281 46.1875 140.492188 C 46.410156 140.246094 46.617188 139.988281 46.808594 139.71875 C 47 139.449219 47.171875 139.167969 47.332031 138.878906 C 47.488281 138.589844 47.628906 138.289062 47.753906 137.984375 C 47.875 137.675781 47.976562 137.363281 48.0625 137.042969 C 48.148438 136.722656 48.214844 136.398438 48.261719 136.070312 C 48.308594 135.746094 48.335938 135.414062 48.34375 135.085938 C 48.351562 134.753906 48.339844 134.425781 48.308594 134.097656 C 48.273438 133.765625 48.222656 133.441406 48.152344 133.117188 C 48.082031 132.792969 47.992188 132.476562 47.886719 132.164062 C 47.777344 131.851562 47.652344 131.546875 47.507812 131.25 C 47.363281 130.953125 47.199219 130.664062 47.019531 130.386719 C 46.84375 130.109375 46.648438 129.839844 46.4375 129.585938 C 46.226562 129.332031 46.003906 129.089844 45.761719 128.859375 C 45.523438 128.632812 45.273438 128.417969 45.007812 128.222656 C 44.742188 128.023438 44.46875 127.839844 44.179688 127.675781 C 43.894531 127.511719 43.597656 127.363281 43.296875 127.230469 C 42.992188 127.101562 42.679688 126.988281 42.363281 126.894531 L 42.347656 116.734375 L 57.175781 102 C 57.644531 101.535156 57.878906 100.96875 57.875 100.308594 L 57.875 90.777344 L 69.789062 90.777344 L 69.789062 126.515625 C 69.804688 126.640625 69.828125 126.761719 69.863281 126.882812 C 69.542969 126.972656 69.230469 127.082031 68.925781 127.210938 C 68.621094 127.339844 68.324219 127.488281 68.035156 127.652344 C 67.75 127.816406 67.472656 128 67.203125 128.195312 C 66.9375 128.394531 66.683594 128.605469 66.441406 128.835938 C 66.203125 129.0625 65.976562 129.304688 65.761719 129.558594 C 65.550781 129.8125 65.355469 130.082031 65.175781 130.359375 C 64.992188 130.636719 64.832031 130.925781 64.683594 131.222656 C 64.539062 131.519531 64.410156 131.828125 64.300781 132.140625 C 64.191406 132.453125 64.101562 132.769531 64.027344 133.09375 C 63.957031 133.417969 63.90625 133.746094 63.871094 134.078125 C 63.839844 134.40625 63.828125 134.738281 63.835938 135.070312 C 63.839844 135.402344 63.867188 135.730469 63.914062 136.058594 C 63.960938 136.386719 64.027344 136.710938 64.113281 137.03125 C 64.195312 137.351562 64.300781 137.667969 64.421875 137.976562 C 64.546875 138.285156 64.6875 138.585938 64.84375 138.875 C 65.003906 139.167969 65.179688 139.449219 65.371094 139.71875 C 65.5625 139.988281 65.769531 140.246094 65.992188 140.492188 C 66.214844 140.738281 66.453125 140.972656 66.703125 141.1875 C 66.953125 141.40625 67.214844 141.609375 67.488281 141.792969 C 67.765625 141.980469 68.050781 142.148438 68.34375 142.300781 C 68.640625 142.453125 68.941406 142.589844 69.253906 142.703125 C 69.5625 142.820312 69.878906 142.917969 70.203125 142.996094 C 70.523438 143.074219 70.851562 143.132812 71.179688 143.171875 C 71.507812 143.210938 71.839844 143.230469 72.171875 143.230469 C 72.503906 143.230469 72.832031 143.210938 73.164062 143.171875 C 73.492188 143.132812 73.816406 143.074219 74.140625 142.996094 C 74.464844 142.917969 74.78125 142.820312 75.089844 142.703125 C 75.402344 142.589844 75.703125 142.453125 76 142.300781 C 76.292969 142.148438 76.578125 141.980469 76.851562 141.792969 C 77.125 141.609375 77.390625 141.40625 77.640625 141.1875 C 77.890625 140.972656 78.125 140.738281 78.351562 140.492188 C 78.574219 140.246094 78.78125 139.988281 78.972656 139.71875 C 79.164062 139.449219 79.339844 139.167969 79.496094 138.875 C 79.65625 138.585938 79.796875 138.285156 79.917969 137.976562 C 80.042969 137.667969 80.144531 137.351562 80.230469 137.03125 C 80.316406 136.710938 80.382812 136.386719 80.429688 136.058594 C 80.472656 135.730469 80.5 135.402344 80.507812 135.070312 C 80.515625 134.738281 80.503906 134.40625 80.46875 134.078125 C 80.4375 133.746094 80.386719 133.417969 80.3125 133.09375 C 80.242188 132.769531 80.152344 132.453125 80.042969 132.140625 C 79.933594 131.828125 79.804688 131.519531 79.660156 131.222656 C 79.511719 130.925781 79.347656 130.636719 79.167969 130.359375 C 78.988281 130.082031 78.792969 129.8125 78.578125 129.558594 C 78.367188 129.304688 78.140625 129.0625 77.898438 128.835938 C 77.660156 128.605469 77.40625 128.394531 77.136719 128.195312 C 76.871094 128 76.59375 127.816406 76.304688 127.652344 C 76.019531 127.488281 75.722656 127.339844 75.414062 127.210938 C 75.109375 127.082031 74.796875 126.972656 74.480469 126.882812 C 74.515625 126.761719 74.539062 126.640625 74.554688 126.515625 L 74.554688 90.777344 L 86.464844 90.777344 L 86.464844 100.308594 C 86.464844 100.964844 86.699219 101.527344 87.164062 101.992188 L 101.953125 116.734375 L 101.953125 126.90625 C 101.632812 127 101.324219 127.113281 101.019531 127.242188 C 100.71875 127.375 100.421875 127.523438 100.136719 127.691406 C 99.851562 127.855469 99.578125 128.039062 99.3125 128.238281 C 99.046875 128.4375 98.796875 128.652344 98.558594 128.882812 C 98.320312 129.109375 98.097656 129.351562 97.886719 129.609375 C 97.675781 129.863281 97.484375 130.128906 97.304688 130.410156 C 97.128906 130.6875 96.964844 130.976562 96.824219 131.273438 C 96.679688 131.570312 96.554688 131.878906 96.445312 132.191406 C 96.339844 132.503906 96.25 132.820312 96.179688 133.144531 C 96.113281 133.46875 96.0625 133.792969 96.03125 134.125 C 96 134.453125 95.988281 134.78125 96 135.113281 C 96.007812 135.445312 96.035156 135.773438 96.082031 136.097656 C 96.128906 136.425781 96.199219 136.75 96.285156 137.070312 C 96.371094 137.386719 96.476562 137.703125 96.597656 138.007812 C 96.722656 138.316406 96.863281 138.613281 97.023438 138.902344 C 97.179688 139.191406 97.355469 139.472656 97.546875 139.742188 C 97.742188 140.011719 97.949219 140.269531 98.171875 140.511719 C 98.394531 140.757812 98.628906 140.988281 98.878906 141.203125 C 99.128906 141.417969 99.390625 141.621094 99.667969 141.804688 C 99.941406 141.992188 100.222656 142.160156 100.519531 142.308594 C 100.8125 142.460938 101.113281 142.59375 101.425781 142.710938 C 101.734375 142.824219 102.050781 142.921875 102.371094 143 C 102.691406 143.078125 103.015625 143.136719 103.34375 143.175781 C 103.671875 143.214844 104.003906 143.234375 104.332031 143.234375 C 104.664062 143.234375 104.992188 143.214844 105.324219 143.175781 C 105.652344 143.136719 105.976562 143.078125 106.296875 143 C 106.617188 142.921875 106.933594 142.824219 107.242188 142.710938 C 107.554688 142.59375 107.855469 142.460938 108.148438 142.308594 C 108.445312 142.160156 108.726562 141.992188 109 141.804688 C 109.277344 141.621094 109.539062 141.417969 109.789062 141.203125 C 110.039062 140.988281 110.273438 140.757812 110.496094 140.511719 C 110.71875 140.269531 110.925781 140.011719 111.121094 139.742188 C 111.3125 139.472656 111.488281 139.191406 111.644531 138.902344 C 111.804688 138.613281 111.945312 138.316406 112.070312 138.007812 C 112.191406 137.703125 112.296875 137.386719 112.382812 137.070312 C 112.46875 136.75 112.539062 136.425781 112.585938 136.097656 C 112.632812 135.773438 112.660156 135.445312 112.667969 135.113281 C 112.679688 134.78125 112.667969 134.453125 112.636719 134.125 C 112.605469 133.792969 112.554688 133.46875 112.488281 133.144531 C 112.417969 132.820312 112.328125 132.503906 112.222656 132.191406 C 112.113281 131.878906 111.988281 131.570312 111.84375 131.273438 C 111.703125 130.976562 111.539062 130.6875 111.363281 130.410156 C 111.183594 130.128906 110.992188 129.863281 110.78125 129.609375 C 110.570312 129.351562 110.347656 129.109375 110.109375 128.882812 C 109.871094 128.652344 109.621094 128.4375 109.355469 128.238281 C 109.089844 128.039062 108.816406 127.855469 108.53125 127.691406 C 108.246094 127.523438 107.949219 127.375 107.648438 127.242188 C 107.34375 127.113281 107.03125 127 106.714844 126.90625 L 106.714844 115.746094 C 106.714844 115.085938 106.484375 114.527344 106.015625 114.0625 L 91.230469 99.320312 L 91.230469 90.777344 L 97.863281 90.777344 C 100.664062 90.769531 103.445312 90.507812 106.199219 89.992188 C 106.316406 90.117188 106.445312 90.226562 106.582031 90.324219 L 132.96875 116.730469 L 132.949219 126.894531 C 132.632812 126.988281 132.320312 127.101562 132.019531 127.230469 C 131.714844 127.363281 131.417969 127.511719 131.132812 127.675781 C 130.847656 127.839844 130.570312 128.023438 130.308594 128.222656 C 130.042969 128.417969 129.789062 128.632812 129.550781 128.859375 C 129.3125 129.089844 129.085938 129.332031 128.875 129.585938 C 128.664062 129.839844 128.472656 130.109375 128.292969 130.386719 C 128.113281 130.664062 127.953125 130.953125 127.808594 131.25 C 127.664062 131.546875 127.535156 131.851562 127.429688 132.164062 C 127.320312 132.476562 127.230469 132.792969 127.160156 133.117188 C 127.089844 133.441406 127.039062 133.765625 127.007812 134.097656 C 126.976562 134.425781 126.964844 134.753906 126.972656 135.085938 C 126.976562 135.414062 127.003906 135.746094 127.050781 136.070312 C 127.097656 136.398438 127.164062 136.722656 127.25 137.042969 C 127.335938 137.363281 127.4375 137.675781 127.5625 137.984375 C 127.683594 138.289062 127.824219 138.589844 127.980469 138.878906 C 128.140625 139.167969 128.316406 139.449219 128.507812 139.71875 C 128.699219 139.988281 128.90625 140.246094 129.125 140.492188 C 129.347656 140.738281 129.585938 140.96875 129.832031 141.183594 C 130.082031 141.402344 130.34375 141.601562 130.617188 141.789062 C 130.890625 141.976562 131.175781 142.144531 131.46875 142.296875 C 131.761719 142.449219 132.0625 142.582031 132.371094 142.699219 C 132.683594 142.816406 132.996094 142.914062 133.320312 142.992188 C 133.640625 143.070312 133.964844 143.128906 134.292969 143.171875 C 134.621094 143.210938 134.949219 143.230469 135.28125 143.234375 C 135.613281 143.234375 135.941406 143.214844 136.269531 143.175781 C 136.597656 143.140625 136.921875 143.082031 137.246094 143.003906 C 137.566406 142.925781 137.882812 142.832031 138.191406 142.71875 C 138.503906 142.601562 138.804688 142.46875 139.101562 142.320312 C 139.394531 142.167969 139.679688 142.003906 139.953125 141.816406 C 140.226562 141.632812 140.492188 141.433594 140.742188 141.21875 C 140.992188 141.003906 141.230469 140.773438 141.453125 140.53125 C 141.675781 140.285156 141.882812 140.03125 142.078125 139.761719 C 142.269531 139.492188 142.445312 139.214844 142.605469 138.925781 C 142.765625 138.636719 142.910156 138.335938 143.03125 138.03125 C 143.15625 137.722656 143.261719 137.410156 143.351562 137.09375 C 143.4375 136.773438 143.503906 136.449219 143.554688 136.125 C 143.601562 135.796875 143.632812 135.46875 143.640625 135.136719 C 143.652344 134.808594 143.640625 134.476562 143.613281 134.148438 C 143.582031 133.816406 143.535156 133.492188 143.464844 133.167969 C 143.398438 132.84375 143.308594 132.527344 143.203125 132.214844 C 143.097656 131.898438 142.972656 131.59375 142.828125 131.296875 C 142.6875 130.996094 142.527344 130.710938 142.351562 130.429688 C 142.171875 130.152344 141.980469 129.882812 141.769531 129.625 C 141.5625 129.371094 141.339844 129.128906 141.101562 128.898438 C 140.863281 128.667969 140.613281 128.453125 140.347656 128.253906 C 140.085938 128.054688 139.8125 127.871094 139.527344 127.703125 C 139.242188 127.535156 138.945312 127.386719 138.644531 127.253906 C 138.339844 127.121094 138.03125 127.007812 137.714844 126.910156 L 137.734375 115.753906 C 137.738281 115.089844 137.503906 114.527344 137.035156 114.0625 L 111.667969 88.671875 C 130.242188 82.875 143.722656 65.722656 143.722656 45.511719 Z M 12.609375 134.851562 C 12.609375 135.328125 12.519531 135.78125 12.339844 136.222656 C 12.15625 136.660156 11.898438 137.046875 11.5625 137.378906 C 11.230469 137.714844 10.84375 137.972656 10.40625 138.15625 C 9.96875 138.335938 9.511719 138.425781 9.039062 138.425781 C 8.5625 138.425781 8.105469 138.335938 7.667969 138.15625 C 7.230469 137.972656 6.84375 137.714844 6.511719 137.378906 C 6.175781 137.046875 5.917969 136.660156 5.734375 136.222656 C 5.554688 135.78125 5.464844 135.328125 5.464844 134.851562 C 5.464844 134.378906 5.554688 133.921875 5.734375 133.484375 C 5.917969 133.046875 6.175781 132.660156 6.511719 132.328125 C 6.84375 131.992188 7.230469 131.734375 7.667969 131.550781 C 8.105469 131.371094 8.5625 131.28125 9.039062 131.28125 C 9.511719 131.28125 9.96875 131.371094 10.40625 131.550781 C 10.84375 131.734375 11.230469 131.992188 11.5625 132.328125 C 11.898438 132.660156 12.15625 133.046875 12.339844 133.484375 C 12.519531 133.921875 12.609375 134.378906 12.609375 134.851562 Z M 43.582031 134.851562 C 43.582031 135.328125 43.492188 135.78125 43.308594 136.222656 C 43.128906 136.660156 42.871094 137.046875 42.535156 137.378906 C 42.199219 137.714844 41.8125 137.972656 41.375 138.15625 C 40.9375 138.335938 40.484375 138.425781 40.007812 138.425781 C 39.535156 138.425781 39.078125 138.335938 38.640625 138.15625 C 38.203125 137.972656 37.816406 137.714844 37.480469 137.378906 C 37.148438 137.046875 36.886719 136.660156 36.707031 136.222656 C 36.527344 135.78125 36.433594 135.328125 36.433594 134.851562 C 36.433594 134.378906 36.527344 133.921875 36.707031 133.484375 C 36.886719 133.046875 37.148438 132.660156 37.480469 132.328125 C 37.816406 131.992188 38.203125 131.734375 38.640625 131.550781 C 39.078125 131.371094 39.535156 131.28125 40.007812 131.28125 C 40.484375 131.28125 40.9375 131.371094 41.375 131.550781 C 41.8125 131.734375 42.199219 131.992188 42.535156 132.328125 C 42.871094 132.660156 43.128906 133.046875 43.308594 133.484375 C 43.492188 133.921875 43.582031 134.378906 43.582031 134.851562 Z M 107.90625 134.851562 C 107.90625 135.328125 107.816406 135.78125 107.636719 136.222656 C 107.453125 136.660156 107.195312 137.046875 106.859375 137.378906 C 106.527344 137.714844 106.140625 137.972656 105.703125 138.15625 C 105.261719 138.335938 104.808594 138.425781 104.332031 138.425781 C 103.859375 138.425781 103.402344 138.335938 102.964844 138.15625 C 102.527344 137.972656 102.140625 137.714844 101.808594 137.378906 C 101.472656 137.046875 101.214844 136.660156 101.03125 136.222656 C 100.851562 135.78125 100.761719 135.328125 100.761719 134.851562 C 100.761719 134.378906 100.851562 133.921875 101.03125 133.484375 C 101.214844 133.046875 101.472656 132.660156 101.808594 132.328125 C 102.140625 131.992188 102.527344 131.734375 102.964844 131.550781 C 103.402344 131.371094 103.859375 131.28125 104.332031 131.28125 C 104.808594 131.28125 105.261719 131.371094 105.703125 131.550781 C 106.140625 131.734375 106.527344 131.992188 106.859375 132.328125 C 107.195312 132.660156 107.453125 133.046875 107.636719 133.484375 C 107.816406 133.921875 107.90625 134.378906 107.90625 134.851562 Z M 138.878906 134.851562 C 138.878906 135.328125 138.789062 135.78125 138.605469 136.222656 C 138.425781 136.660156 138.167969 137.046875 137.832031 137.378906 C 137.496094 137.714844 137.109375 137.972656 136.671875 138.15625 C 136.234375 138.335938 135.777344 138.425781 135.304688 138.425781 C 134.832031 138.425781 134.375 138.335938 133.9375 138.15625 C 133.5 137.972656 133.113281 137.714844 132.777344 137.378906 C 132.441406 137.046875 132.183594 136.660156 132.003906 136.222656 C 131.824219 135.78125 131.730469 135.328125 131.730469 134.851562 C 131.730469 134.378906 131.824219 133.921875 132.003906 133.484375 C 132.183594 133.046875 132.441406 132.660156 132.777344 132.328125 C 133.113281 131.992188 133.5 131.734375 133.9375 131.550781 C 134.375 131.371094 134.832031 131.28125 135.304688 131.28125 C 135.777344 131.28125 136.234375 131.371094 136.671875 131.550781 C 137.109375 131.734375 137.496094 131.992188 137.832031 132.328125 C 138.167969 132.660156 138.425781 133.046875 138.605469 133.484375 C 138.789062 133.921875 138.878906 134.378906 138.878906 134.851562 Z M 36.433594 59.808594 C 36.117188 59.808594 35.816406 59.746094 35.523438 59.625 C 35.230469 59.503906 34.972656 59.332031 34.75 59.109375 C 34.527344 58.886719 34.355469 58.628906 34.234375 58.335938 C 34.113281 58.042969 34.050781 57.742188 34.050781 57.425781 C 34.050781 57.109375 34.113281 56.804688 34.234375 56.511719 C 34.355469 56.222656 34.527344 55.964844 34.75 55.738281 C 34.972656 55.515625 35.230469 55.34375 35.523438 55.222656 C 35.816406 55.101562 36.117188 55.042969 36.433594 55.042969 C 36.75 55.042969 37.054688 55.101562 37.347656 55.222656 C 37.636719 55.34375 37.894531 55.515625 38.121094 55.738281 C 38.34375 55.964844 38.515625 56.222656 38.636719 56.511719 C 38.757812 56.804688 38.816406 57.109375 38.816406 57.425781 C 38.816406 57.742188 38.757812 58.042969 38.636719 58.335938 C 38.515625 58.628906 38.34375 58.886719 38.121094 59.109375 C 37.894531 59.332031 37.636719 59.503906 37.347656 59.625 C 37.054688 59.746094 36.75 59.808594 36.433594 59.808594 Z M 55.496094 74.101562 C 55.179688 74.101562 54.875 74.042969 54.582031 73.921875 C 54.289062 73.800781 54.03125 73.628906 53.808594 73.402344 C 53.585938 73.179688 53.414062 72.921875 53.292969 72.628906 C 53.171875 72.339844 53.113281 72.035156 53.113281 71.71875 C 53.113281 71.402344 53.171875 71.097656 53.292969 70.808594 C 53.414062 70.515625 53.585938 70.257812 53.808594 70.035156 C 54.03125 69.8125 54.289062 69.640625 54.582031 69.519531 C 54.875 69.398438 55.179688 69.335938 55.496094 69.335938 C 55.808594 69.335938 56.113281 69.398438 56.40625 69.519531 C 56.699219 69.640625 56.957031 69.8125 57.179688 70.035156 C 57.402344 70.257812 57.574219 70.515625 57.695312 70.808594 C 57.816406 71.097656 57.875 71.402344 57.875 71.71875 C 57.875 72.035156 57.816406 72.339844 57.695312 72.628906 C 57.574219 72.921875 57.402344 73.179688 57.179688 73.402344 C 56.957031 73.628906 56.699219 73.800781 56.40625 73.921875 C 56.113281 74.042969 55.808594 74.101562 55.496094 74.101562 Z M 75.746094 134.851562 C 75.746094 135.328125 75.652344 135.78125 75.472656 136.222656 C 75.292969 136.660156 75.035156 137.046875 74.699219 137.378906 C 74.363281 137.714844 73.976562 137.972656 73.539062 138.15625 C 73.101562 138.335938 72.644531 138.425781 72.171875 138.425781 C 71.699219 138.425781 71.242188 138.335938 70.804688 138.15625 C 70.367188 137.972656 69.980469 137.714844 69.644531 137.378906 C 69.308594 137.046875 69.050781 136.660156 68.871094 136.222656 C 68.6875 135.78125 68.597656 135.328125 68.597656 134.851562 C 68.597656 134.378906 68.6875 133.921875 68.871094 133.484375 C 69.050781 133.046875 69.308594 132.660156 69.644531 132.328125 C 69.980469 131.992188 70.367188 131.734375 70.804688 131.550781 C 71.242188 131.371094 71.699219 131.28125 72.171875 131.28125 C 72.644531 131.28125 73.101562 131.371094 73.539062 131.550781 C 73.976562 131.734375 74.363281 131.992188 74.699219 132.328125 C 75.035156 132.660156 75.292969 133.046875 75.472656 133.484375 C 75.652344 133.921875 75.746094 134.378906 75.746094 134.851562 Z M 72.171875 43.128906 C 71.855469 43.128906 71.550781 43.070312 71.257812 42.949219 C 70.96875 42.828125 70.710938 42.65625 70.488281 42.433594 C 70.261719 42.207031 70.089844 41.953125 69.96875 41.660156 C 69.847656 41.367188 69.789062 41.0625 69.789062 40.746094 C 69.789062 40.433594 69.847656 40.128906 69.96875 39.835938 C 70.089844 39.542969 70.261719 39.285156 70.488281 39.0625 C 70.710938 38.839844 70.96875 38.667969 71.257812 38.546875 C 71.550781 38.425781 71.855469 38.367188 72.171875 38.367188 C 72.488281 38.367188 72.792969 38.425781 73.082031 38.546875 C 73.375 38.667969 73.632812 38.839844 73.855469 39.0625 C 74.078125 39.285156 74.25 39.542969 74.371094 39.835938 C 74.492188 40.128906 74.554688 40.433594 74.554688 40.746094 C 74.554688 41.0625 74.492188 41.367188 74.371094 41.660156 C 74.25 41.953125 74.078125 42.207031 73.855469 42.433594 C 73.632812 42.65625 73.375 42.828125 73.082031 42.949219 C 72.792969 43.070312 72.488281 43.128906 72.171875 43.128906 Z M 88.847656 74.101562 C 88.53125 74.101562 88.226562 74.042969 87.9375 73.921875 C 87.644531 73.800781 87.386719 73.628906 87.164062 73.402344 C 86.941406 73.179688 86.769531 72.921875 86.648438 72.628906 C 86.527344 72.339844 86.464844 72.035156 86.464844 71.71875 C 86.464844 71.402344 86.527344 71.097656 86.648438 70.808594 C 86.769531 70.515625 86.941406 70.257812 87.164062 70.035156 C 87.386719 69.8125 87.644531 69.640625 87.9375 69.519531 C 88.226562 69.398438 88.53125 69.335938 88.847656 69.335938 C 89.164062 69.335938 89.46875 69.398438 89.761719 69.519531 C 90.050781 69.640625 90.308594 69.8125 90.53125 70.035156 C 90.757812 70.257812 90.929688 70.515625 91.050781 70.808594 C 91.171875 71.097656 91.230469 71.402344 91.230469 71.71875 C 91.230469 72.035156 91.171875 72.339844 91.050781 72.628906 C 90.929688 72.921875 90.757812 73.179688 90.53125 73.402344 C 90.308594 73.628906 90.050781 73.800781 89.761719 73.921875 C 89.46875 74.042969 89.164062 74.101562 88.847656 74.101562 Z M 107.90625 59.808594 C 107.589844 59.808594 107.289062 59.746094 106.996094 59.625 C 106.703125 59.503906 106.445312 59.332031 106.222656 59.109375 C 106 58.886719 105.828125 58.628906 105.707031 58.335938 C 105.585938 58.042969 105.523438 57.742188 105.523438 57.425781 C 105.523438 57.109375 105.585938 56.804688 105.707031 56.511719 C 105.828125 56.222656 106 55.964844 106.222656 55.738281 C 106.445312 55.515625 106.703125 55.34375 106.996094 55.222656 C 107.289062 55.101562 107.589844 55.042969 107.90625 55.042969 C 108.222656 55.042969 108.527344 55.101562 108.820312 55.222656 C 109.109375 55.34375 109.367188 55.515625 109.59375 55.738281 C 109.816406 55.964844 109.988281 56.222656 110.109375 56.511719 C 110.230469 56.804688 110.289062 57.109375 110.289062 57.425781 C 110.289062 57.742188 110.230469 58.042969 110.109375 58.335938 C 109.988281 58.628906 109.816406 58.886719 109.59375 59.109375 C 109.367188 59.332031 109.109375 59.503906 108.820312 59.625 C 108.527344 59.746094 108.222656 59.808594 107.90625 59.808594 Z M 110.289062 84.109375 L 110.289062 64.132812 C 110.550781 64.042969 110.808594 63.933594 111.058594 63.8125 C 111.308594 63.6875 111.550781 63.550781 111.785156 63.398438 C 112.019531 63.25 112.242188 63.085938 112.457031 62.90625 C 112.671875 62.730469 112.875 62.542969 113.066406 62.339844 C 113.261719 62.140625 113.441406 61.925781 113.609375 61.707031 C 113.777344 61.484375 113.929688 61.253906 114.074219 61.011719 C 114.214844 60.773438 114.339844 60.523438 114.453125 60.269531 C 114.5625 60.015625 114.660156 59.753906 114.742188 59.488281 C 114.824219 59.222656 114.890625 58.953125 114.9375 58.675781 C 114.988281 58.402344 115.023438 58.128906 115.039062 57.847656 C 115.058594 57.570312 115.058594 57.292969 115.042969 57.015625 C 115.03125 56.738281 115 56.460938 114.953125 56.1875 C 114.90625 55.914062 114.84375 55.640625 114.761719 55.375 C 114.683594 55.109375 114.589844 54.847656 114.480469 54.589844 C 114.371094 54.332031 114.246094 54.085938 114.109375 53.84375 C 113.972656 53.601562 113.820312 53.367188 113.652344 53.144531 C 113.488281 52.921875 113.308594 52.707031 113.121094 52.503906 C 112.929688 52.300781 112.726562 52.109375 112.515625 51.929688 C 112.300781 51.75 112.078125 51.585938 111.847656 51.433594 C 111.613281 51.277344 111.375 51.140625 111.125 51.011719 C 110.875 50.886719 110.621094 50.777344 110.359375 50.683594 C 110.097656 50.585938 109.832031 50.507812 109.5625 50.441406 C 109.289062 50.378906 109.015625 50.328125 108.738281 50.296875 C 108.464844 50.265625 108.1875 50.25 107.90625 50.25 C 107.628906 50.25 107.351562 50.265625 107.074219 50.296875 C 106.796875 50.328125 106.523438 50.378906 106.253906 50.441406 C 105.984375 50.507812 105.714844 50.585938 105.457031 50.683594 C 105.195312 50.777344 104.9375 50.886719 104.691406 51.011719 C 104.441406 51.140625 104.199219 51.277344 103.96875 51.433594 C 103.734375 51.585938 103.511719 51.75 103.300781 51.929688 C 103.085938 52.109375 102.886719 52.300781 102.695312 52.503906 C 102.503906 52.707031 102.328125 52.921875 102.160156 53.144531 C 101.996094 53.367188 101.84375 53.601562 101.707031 53.84375 C 101.566406 54.085938 101.441406 54.332031 101.332031 54.589844 C 101.226562 54.847656 101.128906 55.109375 101.050781 55.375 C 100.972656 55.640625 100.910156 55.914062 100.863281 56.1875 C 100.816406 56.460938 100.785156 56.738281 100.769531 57.015625 C 100.753906 57.292969 100.757812 57.570312 100.773438 57.847656 C 100.792969 58.128906 100.824219 58.402344 100.875 58.675781 C 100.925781 58.953125 100.992188 59.222656 101.074219 59.488281 C 101.15625 59.753906 101.25 60.015625 101.363281 60.269531 C 101.476562 60.523438 101.601562 60.773438 101.742188 61.011719 C 101.882812 61.253906 102.039062 61.484375 102.207031 61.707031 C 102.375 61.925781 102.554688 62.140625 102.746094 62.339844 C 102.9375 62.542969 103.144531 62.730469 103.359375 62.90625 C 103.574219 63.085938 103.796875 63.25 104.03125 63.398438 C 104.265625 63.550781 104.507812 63.6875 104.757812 63.8125 C 105.007812 63.933594 105.261719 64.042969 105.523438 64.132812 L 105.523438 85.277344 C 102.992188 85.761719 100.441406 86.003906 97.863281 86.011719 L 91.230469 86.011719 L 91.230469 78.429688 C 91.492188 78.335938 91.75 78.226562 92 78.105469 C 92.25 77.984375 92.492188 77.84375 92.726562 77.695312 C 92.957031 77.542969 93.183594 77.378906 93.398438 77.203125 C 93.613281 77.023438 93.816406 76.835938 94.007812 76.632812 C 94.203125 76.433594 94.382812 76.222656 94.550781 76 C 94.71875 75.777344 94.871094 75.546875 95.011719 75.304688 C 95.152344 75.066406 95.28125 74.820312 95.390625 74.5625 C 95.503906 74.308594 95.601562 74.046875 95.683594 73.78125 C 95.765625 73.515625 95.828125 73.246094 95.878906 72.972656 C 95.929688 72.699219 95.964844 72.421875 95.980469 72.144531 C 96 71.867188 96 71.589844 95.984375 71.308594 C 95.96875 71.03125 95.941406 70.757812 95.890625 70.480469 C 95.84375 70.207031 95.78125 69.9375 95.703125 69.667969 C 95.625 69.402344 95.53125 69.140625 95.421875 68.882812 C 95.3125 68.628906 95.1875 68.378906 95.050781 68.136719 C 94.910156 67.894531 94.761719 67.664062 94.59375 67.441406 C 94.429688 67.214844 94.25 67.003906 94.058594 66.800781 C 93.871094 66.597656 93.667969 66.40625 93.453125 66.226562 C 93.242188 66.046875 93.019531 65.878906 92.785156 65.726562 C 92.554688 65.574219 92.3125 65.433594 92.066406 65.308594 C 91.816406 65.183594 91.5625 65.070312 91.300781 64.976562 C 91.039062 64.882812 90.773438 64.800781 90.5 64.738281 C 90.230469 64.671875 89.957031 64.625 89.679688 64.589844 C 89.402344 64.558594 89.125 64.542969 88.847656 64.542969 C 88.570312 64.542969 88.292969 64.558594 88.015625 64.589844 C 87.738281 64.625 87.464844 64.671875 87.195312 64.738281 C 86.921875 64.800781 86.65625 64.882812 86.394531 64.976562 C 86.132812 65.070312 85.878906 65.183594 85.628906 65.308594 C 85.382812 65.433594 85.140625 65.574219 84.910156 65.726562 C 84.675781 65.878906 84.453125 66.046875 84.242188 66.226562 C 84.027344 66.40625 83.828125 66.597656 83.636719 66.800781 C 83.445312 67.003906 83.269531 67.214844 83.101562 67.441406 C 82.9375 67.664062 82.785156 67.894531 82.644531 68.136719 C 82.507812 68.378906 82.382812 68.628906 82.273438 68.882812 C 82.164062 69.140625 82.070312 69.402344 81.992188 69.667969 C 81.914062 69.9375 81.851562 70.207031 81.804688 70.480469 C 81.757812 70.757812 81.726562 71.03125 81.710938 71.308594 C 81.695312 71.589844 81.699219 71.867188 81.714844 72.144531 C 81.734375 72.421875 81.765625 72.699219 81.816406 72.972656 C 81.867188 73.246094 81.933594 73.515625 82.015625 73.78125 C 82.09375 74.046875 82.191406 74.308594 82.304688 74.5625 C 82.417969 74.820312 82.542969 75.066406 82.683594 75.304688 C 82.824219 75.546875 82.980469 75.777344 83.148438 76 C 83.3125 76.222656 83.496094 76.433594 83.6875 76.632812 C 83.878906 76.835938 84.082031 77.023438 84.296875 77.203125 C 84.511719 77.378906 84.738281 77.542969 84.972656 77.695312 C 85.207031 77.84375 85.445312 77.984375 85.695312 78.105469 C 85.945312 78.226562 86.203125 78.335938 86.464844 78.429688 L 86.464844 86.011719 L 74.554688 86.011719 L 74.554688 47.457031 C 74.816406 47.363281 75.074219 47.257812 75.324219 47.132812 C 75.570312 47.011719 75.8125 46.875 76.046875 46.722656 C 76.28125 46.570312 76.507812 46.40625 76.722656 46.230469 C 76.9375 46.054688 77.140625 45.863281 77.332031 45.664062 C 77.523438 45.460938 77.703125 45.25 77.871094 45.027344 C 78.039062 44.804688 78.195312 44.574219 78.335938 44.335938 C 78.476562 44.09375 78.601562 43.847656 78.714844 43.59375 C 78.828125 43.335938 78.925781 43.078125 79.003906 42.8125 C 79.085938 42.542969 79.152344 42.273438 79.203125 42 C 79.253906 41.726562 79.285156 41.449219 79.304688 41.171875 C 79.320312 40.894531 79.324219 40.617188 79.308594 40.339844 C 79.292969 40.0625 79.261719 39.785156 79.214844 39.511719 C 79.167969 39.234375 79.105469 38.964844 79.027344 38.699219 C 78.949219 38.429688 78.855469 38.167969 78.746094 37.914062 C 78.636719 37.65625 78.511719 37.40625 78.375 37.167969 C 78.234375 36.925781 78.082031 36.691406 77.917969 36.46875 C 77.75 36.246094 77.574219 36.03125 77.382812 35.828125 C 77.191406 35.625 76.992188 35.433594 76.777344 35.253906 C 76.566406 35.074219 76.34375 34.910156 76.109375 34.753906 C 75.878906 34.601562 75.636719 34.460938 75.390625 34.335938 C 75.140625 34.210938 74.886719 34.101562 74.625 34.003906 C 74.363281 33.910156 74.097656 33.828125 73.824219 33.765625 C 73.554688 33.699219 73.28125 33.652344 73.003906 33.621094 C 72.726562 33.585938 72.449219 33.570312 72.171875 33.570312 C 71.894531 33.570312 71.617188 33.585938 71.339844 33.621094 C 71.0625 33.652344 70.789062 33.699219 70.519531 33.765625 C 70.246094 33.828125 69.980469 33.910156 69.71875 34.003906 C 69.457031 34.101562 69.203125 34.210938 68.953125 34.335938 C 68.707031 34.460938 68.464844 34.601562 68.230469 34.753906 C 68 34.910156 67.777344 35.074219 67.5625 35.253906 C 67.351562 35.433594 67.148438 35.625 66.960938 35.828125 C 66.769531 36.03125 66.589844 36.246094 66.425781 36.46875 C 66.257812 36.691406 66.109375 36.925781 65.96875 37.167969 C 65.832031 37.40625 65.707031 37.65625 65.597656 37.914062 C 65.488281 38.167969 65.394531 38.429688 65.316406 38.699219 C 65.238281 38.964844 65.175781 39.234375 65.125 39.511719 C 65.078125 39.785156 65.050781 40.0625 65.035156 40.339844 C 65.019531 40.617188 65.019531 40.894531 65.039062 41.171875 C 65.054688 41.449219 65.089844 41.726562 65.140625 42 C 65.191406 42.273438 65.253906 42.542969 65.335938 42.8125 C 65.417969 43.078125 65.515625 43.335938 65.628906 43.59375 C 65.738281 43.847656 65.867188 44.09375 66.007812 44.335938 C 66.148438 44.574219 66.300781 44.804688 66.46875 45.027344 C 66.636719 45.25 66.816406 45.460938 67.011719 45.664062 C 67.203125 45.863281 67.40625 46.054688 67.621094 46.230469 C 67.835938 46.40625 68.058594 46.570312 68.292969 46.722656 C 68.527344 46.875 68.769531 47.011719 69.019531 47.132812 C 69.269531 47.257812 69.527344 47.363281 69.789062 47.457031 L 69.789062 86.011719 L 57.875 86.011719 L 57.875 78.429688 C 58.140625 78.335938 58.394531 78.226562 58.644531 78.105469 C 58.894531 77.984375 59.136719 77.84375 59.371094 77.695312 C 59.605469 77.542969 59.828125 77.378906 60.042969 77.203125 C 60.257812 77.023438 60.460938 76.835938 60.65625 76.632812 C 60.847656 76.433594 61.027344 76.222656 61.195312 76 C 61.363281 75.777344 61.519531 75.546875 61.660156 75.304688 C 61.800781 75.066406 61.925781 74.820312 62.039062 74.5625 C 62.148438 74.308594 62.246094 74.046875 62.328125 73.78125 C 62.410156 73.515625 62.476562 73.246094 62.527344 72.972656 C 62.574219 72.699219 62.609375 72.421875 62.628906 72.144531 C 62.644531 71.867188 62.644531 71.589844 62.632812 71.308594 C 62.617188 71.03125 62.585938 70.757812 62.539062 70.480469 C 62.492188 70.207031 62.429688 69.9375 62.351562 69.667969 C 62.269531 69.402344 62.175781 69.140625 62.066406 68.882812 C 61.957031 68.628906 61.835938 68.378906 61.695312 68.136719 C 61.558594 67.894531 61.40625 67.664062 61.242188 67.441406 C 61.074219 67.214844 60.898438 67.003906 60.707031 66.800781 C 60.515625 66.597656 60.3125 66.40625 60.101562 66.226562 C 59.886719 66.046875 59.664062 65.878906 59.433594 65.726562 C 59.199219 65.574219 58.960938 65.433594 58.710938 65.308594 C 58.464844 65.183594 58.207031 65.070312 57.945312 64.976562 C 57.683594 64.882812 57.417969 64.800781 57.148438 64.738281 C 56.878906 64.671875 56.601562 64.625 56.328125 64.589844 C 56.050781 64.558594 55.773438 64.542969 55.496094 64.542969 C 55.214844 64.542969 54.9375 64.558594 54.660156 64.589844 C 54.386719 64.625 54.113281 64.671875 53.839844 64.738281 C 53.570312 64.800781 53.304688 64.882812 53.042969 64.976562 C 52.78125 65.070312 52.527344 65.183594 52.277344 65.308594 C 52.027344 65.433594 51.789062 65.574219 51.554688 65.726562 C 51.324219 65.878906 51.101562 66.046875 50.886719 66.226562 C 50.675781 66.40625 50.472656 66.597656 50.28125 66.800781 C 50.09375 67.003906 49.914062 67.214844 49.75 67.441406 C 49.582031 67.664062 49.429688 67.894531 49.292969 68.136719 C 49.152344 68.378906 49.03125 68.628906 48.921875 68.882812 C 48.8125 69.140625 48.71875 69.402344 48.640625 69.667969 C 48.558594 69.9375 48.496094 70.207031 48.449219 70.480469 C 48.402344 70.757812 48.371094 71.03125 48.355469 71.308594 C 48.34375 71.589844 48.34375 71.867188 48.363281 72.144531 C 48.378906 72.421875 48.414062 72.699219 48.464844 72.972656 C 48.511719 73.246094 48.578125 73.515625 48.660156 73.78125 C 48.742188 74.046875 48.839844 74.308594 48.949219 74.5625 C 49.0625 74.820312 49.1875 75.066406 49.328125 75.304688 C 49.46875 75.546875 49.625 75.777344 49.792969 76 C 49.960938 76.222656 50.140625 76.433594 50.332031 76.632812 C 50.527344 76.835938 50.730469 77.023438 50.945312 77.203125 C 51.160156 77.378906 51.382812 77.542969 51.617188 77.695312 C 51.851562 77.84375 52.09375 77.984375 52.34375 78.105469 C 52.59375 78.226562 52.847656 78.335938 53.113281 78.429688 L 53.113281 86.011719 L 38.816406 86.011719 L 38.816406 64.132812 C 39.078125 64.042969 39.335938 63.933594 39.585938 63.8125 C 39.835938 63.6875 40.078125 63.550781 40.3125 63.398438 C 40.546875 63.25 40.769531 63.085938 40.984375 62.90625 C 41.199219 62.730469 41.402344 62.542969 41.597656 62.339844 C 41.789062 62.140625 41.96875 61.925781 42.136719 61.707031 C 42.304688 61.484375 42.457031 61.253906 42.601562 61.011719 C 42.742188 60.773438 42.867188 60.523438 42.980469 60.269531 C 43.089844 60.015625 43.1875 59.753906 43.269531 59.488281 C 43.351562 59.222656 43.417969 58.953125 43.464844 58.675781 C 43.515625 58.402344 43.550781 58.128906 43.566406 57.847656 C 43.585938 57.570312 43.585938 57.292969 43.570312 57.015625 C 43.558594 56.738281 43.527344 56.460938 43.480469 56.1875 C 43.433594 55.914062 43.371094 55.640625 43.289062 55.375 C 43.210938 55.109375 43.117188 54.847656 43.007812 54.589844 C 42.898438 54.332031 42.773438 54.085938 42.636719 53.84375 C 42.5 53.601562 42.347656 53.367188 42.179688 53.144531 C 42.015625 52.921875 41.835938 52.707031 41.648438 52.503906 C 41.457031 52.300781 41.253906 52.109375 41.042969 51.929688 C 40.828125 51.75 40.605469 51.585938 40.375 51.433594 C 40.140625 51.277344 39.902344 51.140625 39.652344 51.011719 C 39.402344 50.886719 39.148438 50.777344 38.886719 50.683594 C 38.625 50.585938 38.359375 50.507812 38.089844 50.441406 C 37.816406 50.378906 37.542969 50.328125 37.265625 50.296875 C 36.992188 50.265625 36.714844 50.25 36.433594 50.25 C 36.15625 50.25 35.878906 50.265625 35.601562 50.296875 C 35.324219 50.328125 35.050781 50.378906 34.78125 50.441406 C 34.511719 50.507812 34.246094 50.585938 33.984375 50.683594 C 33.722656 50.777344 33.464844 50.886719 33.21875 51.011719 C 32.96875 51.140625 32.726562 51.277344 32.496094 51.433594 C 32.261719 51.585938 32.042969 51.75 31.828125 51.929688 C 31.617188 52.109375 31.414062 52.300781 31.222656 52.503906 C 31.03125 52.707031 30.855469 52.921875 30.6875 53.144531 C 30.523438 53.367188 30.371094 53.601562 30.234375 53.84375 C 30.09375 54.085938 29.96875 54.332031 29.863281 54.589844 C 29.753906 54.847656 29.65625 55.109375 29.578125 55.375 C 29.5 55.640625 29.4375 55.914062 29.390625 56.1875 C 29.34375 56.460938 29.3125 56.738281 29.296875 57.015625 C 29.28125 57.292969 29.285156 57.570312 29.300781 57.847656 C 29.320312 58.128906 29.355469 58.402344 29.402344 58.675781 C 29.453125 58.953125 29.519531 59.222656 29.601562 59.488281 C 29.683594 59.753906 29.777344 60.015625 29.890625 60.269531 C 30.003906 60.523438 30.128906 60.773438 30.269531 61.011719 C 30.410156 61.253906 30.566406 61.484375 30.734375 61.707031 C 30.902344 61.925781 31.082031 62.140625 31.273438 62.339844 C 31.464844 62.542969 31.671875 62.730469 31.886719 62.90625 C 32.101562 63.085938 32.324219 63.25 32.558594 63.398438 C 32.792969 63.550781 33.035156 63.6875 33.285156 63.8125 C 33.535156 63.933594 33.789062 64.042969 34.050781 64.132812 L 34.050781 86.011719 L 30.671875 86.011719 C 16.730469 86.011719 5.386719 74.839844 5.386719 61.105469 C 5.386719 48.339844 15.089844 37.695312 27.960938 36.347656 C 28.457031 36.292969 28.894531 36.101562 29.273438 35.777344 C 29.648438 35.449219 29.898438 35.042969 30.019531 34.558594 C 33.296875 21.753906 44.941406 12.800781 58.339844 12.800781 C 62.054688 12.800781 65.644531 13.480469 69.105469 14.839844 C 69.507812 14.996094 69.921875 15.039062 70.347656 14.972656 C 70.773438 14.902344 71.152344 14.734375 71.484375 14.457031 C 73.332031 12.941406 75.289062 11.59375 77.367188 10.414062 C 79.445312 9.238281 81.605469 8.246094 83.851562 7.441406 C 86.101562 6.636719 88.402344 6.03125 90.753906 5.621094 C 93.105469 5.214844 95.476562 5.011719 97.863281 5.011719 C 120.519531 5.011719 138.960938 23.175781 138.960938 45.511719 C 138.957031 63.578125 126.890625 78.90625 110.289062 84.109375 Z M 110.289062 84.109375 " fill-opacity="1" fill-rule="nonzero"/></g><path fill="#7d7f8a" d="M 97.863281 9.777344 C 97.546875 9.777344 97.242188 9.835938 96.949219 9.957031 C 96.660156 10.078125 96.402344 10.25 96.179688 10.472656 C 95.953125 10.699219 95.78125 10.953125 95.660156 11.246094 C 95.539062 11.539062 95.480469 11.84375 95.480469 12.160156 C 95.480469 12.472656 95.539062 12.777344 95.660156 13.070312 C 95.78125 13.363281 95.953125 13.621094 96.179688 13.84375 C 96.402344 14.066406 96.660156 14.238281 96.949219 14.359375 C 97.242188 14.480469 97.546875 14.542969 97.863281 14.542969 C 99.929688 14.53125 101.980469 14.726562 104.011719 15.117188 C 106.042969 15.511719 108.015625 16.097656 109.929688 16.878906 C 111.847656 17.660156 113.667969 18.617188 115.394531 19.757812 C 117.125 20.894531 118.722656 22.1875 120.199219 23.640625 C 120.421875 23.859375 120.683594 24.03125 120.976562 24.148438 C 121.269531 24.265625 121.574219 24.324219 121.890625 24.320312 C 122.203125 24.316406 122.507812 24.253906 122.800781 24.132812 C 123.089844 24.007812 123.347656 23.832031 123.566406 23.609375 C 123.789062 23.382812 123.957031 23.125 124.078125 22.832031 C 124.195312 22.539062 124.253906 22.234375 124.25 21.917969 C 124.25 21.601562 124.183594 21.296875 124.0625 21.007812 C 123.9375 20.714844 123.765625 20.460938 123.539062 20.238281 C 121.84375 18.570312 120.003906 17.082031 118.019531 15.773438 C 116.03125 14.464844 113.9375 13.363281 111.734375 12.464844 C 109.535156 11.570312 107.265625 10.894531 104.929688 10.441406 C 102.597656 9.988281 100.242188 9.765625 97.863281 9.777344 Z M 97.863281 9.777344 " fill-opacity="1" fill-rule="nonzero"/><path fill="#7d7f8a" d="M 129.347656 28.835938 C 129.347656 29.152344 129.289062 29.457031 129.167969 29.746094 C 129.046875 30.039062 128.875 30.296875 128.652344 30.519531 C 128.429688 30.742188 128.171875 30.914062 127.878906 31.035156 C 127.585938 31.15625 127.28125 31.21875 126.96875 31.21875 C 126.652344 31.21875 126.347656 31.15625 126.054688 31.035156 C 125.761719 30.914062 125.503906 30.742188 125.28125 30.519531 C 125.058594 30.296875 124.886719 30.039062 124.765625 29.746094 C 124.644531 29.457031 124.585938 29.152344 124.585938 28.835938 C 124.585938 28.519531 124.644531 28.214844 124.765625 27.925781 C 124.886719 27.632812 125.058594 27.375 125.28125 27.152344 C 125.503906 26.925781 125.761719 26.753906 126.054688 26.632812 C 126.347656 26.511719 126.652344 26.453125 126.96875 26.453125 C 127.28125 26.453125 127.585938 26.511719 127.878906 26.632812 C 128.171875 26.753906 128.429688 26.925781 128.652344 27.152344 C 128.875 27.375 129.046875 27.632812 129.167969 27.925781 C 129.289062 28.214844 129.347656 28.519531 129.347656 28.835938 Z M 129.347656 28.835938 " fill-opacity="1" fill-rule="nonzero"/><g clip-path="url(#26a93607f3)"><g clip-path="url(#6a2bb4b932)"><path fill="#7d7f8a" d="M 128.246094 108.269531 L 131.4375 108.269531 L 131.4375 111.457031 L 128.246094 111.457031 Z M 128.246094 108.269531 " fill-opacity="1" fill-rule="nonzero"/></g></g></svg>