<svg xmlns="http://www.w3.org/2000/svg" xmlns:xlink="http://www.w3.org/1999/xlink" width="194" zoomAndPan="magnify" viewBox="0 0 145.5 141.000003" height="188" preserveAspectRatio="xMidYMid meet" version="1.0"><defs><clipPath id="1a8193403b"><path d="M 0.265625 0 L 144.738281 0 L 144.738281 139.261719 L 0.265625 139.261719 Z M 0.265625 0 " clip-rule="nonzero"/></clipPath><clipPath id="586162b4f4"><path d="M 13.847656 99.375 L 17.023438 99.375 L 17.023438 102.550781 L 13.847656 102.550781 Z M 13.847656 99.375 " clip-rule="nonzero"/></clipPath><clipPath id="c3095a5195"><path d="M 15.4375 99.375 C 14.558594 99.375 13.847656 100.085938 13.847656 100.960938 C 13.847656 101.839844 14.558594 102.550781 15.4375 102.550781 C 16.3125 102.550781 17.023438 101.839844 17.023438 100.960938 C 17.023438 100.085938 16.3125 99.375 15.4375 99.375 Z M 15.4375 99.375 " clip-rule="nonzero"/></clipPath></defs><g clip-path="url(#1a8193403b)"><path fill="#7d7f8a" d="M 140.179688 126.808594 L 137.898438 126.808594 L 137.898438 123.015625 C 137.898438 120.265625 135.664062 118.03125 132.914062 118.03125 L 130.195312 118.03125 L 130.195312 54.085938 L 140.308594 54.085938 C 141.300781 54.085938 142.105469 53.277344 142.105469 52.289062 L 142.105469 42.738281 C 142.105469 42.082031 141.753906 41.511719 141.230469 41.199219 L 141.230469 41.195312 L 72.765625 0.414062 C 72.199219 0.0742188 71.492188 0.0742188 70.925781 0.414062 L 2.457031 41.195312 L 2.457031 41.199219 C 1.933594 41.511719 1.582031 42.082031 1.582031 42.738281 L 1.582031 52.289062 C 1.582031 53.277344 2.386719 54.085938 3.378906 54.085938 L 13.492188 54.085938 L 13.492188 118.035156 L 11.9375 118.035156 C 9.191406 118.035156 6.953125 120.269531 6.953125 123.019531 L 6.953125 126.808594 L 4.671875 126.808594 C 2.242188 126.808594 0.265625 128.789062 0.265625 131.21875 L 0.265625 137.378906 C 0.265625 138.371094 1.070312 139.175781 2.0625 139.175781 L 142.792969 139.175781 C 143.78125 139.175781 144.589844 138.371094 144.589844 137.378906 L 144.589844 131.21875 C 144.589844 128.785156 142.609375 126.808594 140.179688 126.808594 Z M 126.601562 118.035156 L 114.359375 118.035156 L 114.359375 54.085938 L 126.601562 54.085938 Z M 110.765625 54.085938 L 110.765625 118.035156 L 32.921875 118.035156 L 32.921875 54.085938 Z M 71.84375 4.042969 L 133.785156 40.941406 L 9.902344 40.941406 Z M 5.175781 44.53125 L 138.515625 44.53125 L 138.515625 50.488281 L 5.175781 50.488281 Z M 17.085938 54.085938 L 29.328125 54.085938 L 29.328125 118.035156 L 17.085938 118.035156 Z M 10.546875 123.015625 C 10.546875 122.25 11.167969 121.625 11.9375 121.625 L 132.914062 121.625 C 133.679688 121.625 134.304688 122.246094 134.304688 123.015625 L 134.304688 126.808594 L 10.546875 126.808594 Z M 140.996094 135.582031 L 3.855469 135.582031 L 3.855469 131.21875 C 3.855469 130.773438 4.230469 130.402344 4.671875 130.402344 L 140.175781 130.402344 C 140.621094 130.402344 140.992188 130.777344 140.992188 131.21875 L 140.992188 135.582031 Z M 72.425781 115.066406 C 88.429688 115.066406 101.453125 102.042969 101.453125 86.039062 C 101.453125 70.035156 88.429688 57.011719 72.425781 57.011719 C 56.421875 57.011719 43.398438 70.035156 43.398438 86.039062 C 43.398438 102.042969 56.421875 115.066406 72.425781 115.066406 Z M 72.425781 60.601562 C 86.453125 60.601562 97.859375 72.011719 97.859375 86.035156 C 97.859375 100.0625 86.449219 111.46875 72.425781 111.46875 C 58.402344 111.46875 46.992188 100.0625 46.992188 86.035156 C 46.992188 72.015625 58.402344 60.601562 72.425781 60.601562 Z M 72.425781 103.679688 C 77.925781 103.679688 87.234375 102.464844 87.234375 97.921875 L 87.234375 74.15625 C 87.234375 69.609375 77.925781 68.398438 72.425781 68.398438 C 66.925781 68.398438 57.617188 69.609375 57.617188 74.15625 L 57.617188 97.921875 C 57.617188 102.464844 66.925781 103.679688 72.425781 103.679688 Z M 72.425781 100.085938 C 65.609375 100.085938 61.800781 98.503906 61.210938 97.777344 L 61.210938 93.972656 C 64.417969 95.320312 69.113281 95.757812 72.425781 95.757812 C 75.738281 95.757812 80.433594 95.320312 83.644531 93.972656 L 83.644531 97.777344 C 83.054688 98.503906 79.246094 100.085938 72.425781 100.085938 Z M 61.210938 86.046875 C 64.417969 87.394531 69.113281 87.832031 72.425781 87.832031 C 75.738281 87.832031 80.433594 87.394531 83.644531 86.046875 L 83.644531 89.851562 C 83.054688 90.582031 79.246094 92.164062 72.425781 92.164062 C 65.605469 92.164062 61.796875 90.582031 61.210938 89.851562 Z M 61.210938 78.128906 C 64.417969 79.472656 69.113281 79.914062 72.425781 79.914062 C 75.738281 79.914062 80.433594 79.472656 83.644531 78.128906 L 83.644531 81.929688 C 83.054688 82.660156 79.246094 84.242188 72.425781 84.242188 C 65.605469 84.242188 61.796875 82.660156 61.210938 81.929688 Z M 72.425781 71.992188 C 78.800781 71.992188 82.550781 73.375 83.488281 74.15625 C 82.546875 74.933594 78.800781 76.320312 72.425781 76.320312 C 66.050781 76.320312 62.300781 74.933594 61.363281 74.15625 C 62.300781 73.375 66.050781 71.992188 72.425781 71.992188 Z M 72.425781 71.992188 " fill-opacity="1" fill-rule="nonzero"/></g><g clip-path="url(#586162b4f4)"><g clip-path="url(#c3095a5195)"><path fill="#7d7f8a" d="M 13.847656 99.375 L 17.023438 99.375 L 17.023438 102.550781 L 13.847656 102.550781 Z M 13.847656 99.375 " fill-opacity="1" fill-rule="nonzero"/></g></g></svg>