<svg xmlns="http://www.w3.org/2000/svg" xmlns:xlink="http://www.w3.org/1999/xlink" width="1573" zoomAndPan="magnify" viewBox="0 0 1179.75 1647.749951" height="2197" preserveAspectRatio="xMidYMid meet" version="1.0"><defs><clipPath id="5865b95847"><path d="M 990 476 L 1178.75 476 L 1178.75 554 L 990 554 Z M 990 476 " clip-rule="nonzero"/></clipPath><clipPath id="26abcc1951"><path d="M 517.777344 1502.757812 L 661.746094 1502.757812 L 661.746094 1646.726562 L 517.777344 1646.726562 Z M 517.777344 1502.757812 " clip-rule="nonzero"/></clipPath><clipPath id="18153991ca"><path d="M 540.273438 1502.757812 L 639.253906 1502.757812 C 651.675781 1502.757812 661.746094 1512.828125 661.746094 1525.253906 L 661.746094 1624.230469 C 661.746094 1636.65625 651.675781 1646.726562 639.253906 1646.726562 L 540.273438 1646.726562 C 527.847656 1646.726562 517.777344 1636.65625 517.777344 1624.230469 L 517.777344 1525.253906 C 517.777344 1512.828125 527.847656 1502.757812 540.273438 1502.757812 Z M 540.273438 1502.757812 " clip-rule="nonzero"/></clipPath></defs><path fill="#406078" d="M 590.207031 324.523438 C 410.480469 324.710938 264.28125 470.910156 264.28125 650.636719 C 264.464844 743.015625 303.765625 831.480469 374.351562 894.429688 C 374.722656 894.804688 401.730469 914.546875 397.257812 948.070312 C 396.699219 954.214844 395.769531 960.175781 394.835938 965.949219 C 389.0625 1003.382812 381.054688 1054.972656 446.800781 1071.734375 C 449.222656 1072.480469 451.640625 1072.851562 454.4375 1073.410156 L 454.4375 1159.457031 C 454.4375 1163.367188 454.25 1167.277344 454.0625 1171.5625 C 453.316406 1185.53125 452.386719 1201.175781 458.347656 1216.820312 C 468.03125 1241.960938 492.800781 1261.703125 525.953125 1271.390625 C 527.070312 1280.515625 530.238281 1292.0625 538.804688 1301.933594 C 545.882812 1310.3125 559.476562 1320 583.503906 1320 C 606.96875 1320 620.9375 1310.5 628.574219 1302.492188 C 637.515625 1293.179688 641.425781 1282.191406 643.289062 1273.4375 C 649.0625 1271.949219 654.648438 1270.457031 660.234375 1268.035156 C 681.28125 1259.28125 698.042969 1242.707031 707.167969 1221.289062 C 718.15625 1195.402344 717.226562 1166.347656 716.109375 1141.019531 C 715.738281 1133.195312 715.550781 1125.375 715.550781 1117.925781 L 716.109375 1074.15625 C 721.882812 1073.226562 726.351562 1072.109375 729.332031 1070.992188 C 779.433594 1051.433594 798.429688 1013.253906 787.8125 954.773438 C 779.246094 907.28125 815.003906 885.304688 816.867188 884.1875 C 818.355469 883.257812 819.847656 882.324219 820.964844 881.019531 C 882.609375 819.5625 916.507812 737.425781 916.507812 650.449219 C 916.320312 470.726562 770.121094 324.523438 590.207031 324.523438 Z M 644.777344 1230.789062 C 630.808594 1236.5625 612.929688 1236.746094 595.050781 1237.121094 L 587.785156 1237.121094 C 574.003906 1237.304688 560.96875 1237.492188 548.304688 1235.257812 C 524.089844 1230.789062 505.09375 1219.613281 498.015625 1206.015625 L 669.734375 1206.015625 C 664.890625 1217.191406 655.953125 1226.132812 644.777344 1230.789062 Z M 494.476562 1165.789062 C 494.851562 1163.554688 494.851562 1161.503906 494.851562 1159.457031 L 494.851562 1144.929688 L 675.695312 1144.929688 C 676.253906 1151.820312 676.4375 1158.710938 676.4375 1165.601562 Z M 677.929688 513.5625 C 686.683594 517.84375 697.113281 515.425781 702.886719 507.601562 C 704.5625 505.179688 707.914062 503.875 711.453125 504.0625 C 726.726562 505.179688 742.742188 524.175781 746.652344 538.890625 C 747.585938 544.105469 748.144531 557.886719 747.585938 568.316406 C 734.546875 566.640625 719.460938 567.386719 706.796875 574.089844 C 691.898438 562.355469 676.996094 557.140625 674.578125 556.398438 C 664.332031 552.671875 652.972656 558.445312 649.246094 569.0625 C 645.894531 579.492188 651.480469 590.851562 661.910156 594.578125 C 662.285156 594.578125 679.792969 600.910156 689.664062 613.761719 C 693.386719 618.789062 695.4375 623.816406 695.621094 629.40625 C 696.367188 640.207031 705.308594 648.214844 715.738281 648.214844 L 717.226562 648.214844 C 728.402344 647.285156 736.597656 637.601562 735.851562 626.613281 C 735.476562 620.09375 733.988281 613.945312 731.941406 607.988281 C 733.058594 607.800781 734.359375 607.800781 735.476562 607.800781 C 740.507812 607.800781 746.09375 608.546875 750.378906 609.851562 C 756.898438 615.625 771.050781 628.472656 772.914062 630.335938 C 787.066406 645.980469 792.097656 657.15625 789.304688 667.398438 C 788 672.613281 785.207031 678.386719 781.109375 684.347656 C 778.128906 687.140625 764.71875 693.847656 752.984375 698.128906 C 745.164062 701.109375 740.132812 708.746094 740.132812 717.125 C 740.132812 726.4375 745.347656 733.703125 749.820312 740.035156 C 751.867188 742.828125 755.59375 747.855469 755.777344 750.089844 C 758.015625 763.128906 755.59375 775.980469 748.703125 785.292969 C 742.929688 792.925781 735.105469 797.398438 725.234375 798.886719 C 722.8125 785.664062 716.109375 770.765625 702.886719 759.03125 C 706.984375 752.328125 710.707031 745.25 714.058594 737.054688 C 718.714844 726.996094 714.058594 715.078125 704.003906 710.421875 C 693.761719 706.136719 681.839844 710.609375 677.183594 720.851562 C 671.222656 734.445312 665.449219 743.757812 660.421875 750.464844 L 660.234375 751.023438 C 659.492188 751.582031 659.117188 752.328125 658.558594 752.886719 C 658.1875 753.070312 657.816406 753.257812 657.816406 753.445312 C 649.0625 763.316406 642.542969 764.992188 639.75 764.058594 C 630.25 759.21875 618.515625 762.570312 613.300781 771.695312 C 607.527344 781.378906 610.695312 793.488281 620.378906 799.261719 C 622.242188 800.5625 629.878906 804.476562 641.425781 804.476562 C 645.707031 804.476562 650.921875 803.917969 656.511719 802.054688 C 663.960938 799.820312 670.851562 795.90625 677.558594 790.320312 C 687.425781 800.003906 686.683594 812.667969 686.308594 815.835938 C 685.9375 816.953125 685.9375 817.882812 685.9375 819.1875 C 683.703125 823.65625 681.46875 827.941406 679.417969 832.039062 C 672.527344 845.820312 668.617188 853.644531 656.136719 859.417969 C 638.074219 867.796875 618.332031 856.4375 608.460938 849.359375 L 608.460938 705.578125 C 622.429688 719.359375 638.257812 726.253906 655.578125 726.253906 C 656.699219 726.253906 658.1875 726.066406 659.492188 726.066406 C 666.195312 725.695312 672.15625 722.15625 675.695312 716.382812 C 678.859375 710.609375 679.234375 703.714844 676.4375 697.757812 C 673.460938 690.867188 663.773438 661.8125 674.578125 646.914062 C 681.09375 637.972656 679.046875 625.308594 670.105469 618.789062 C 660.792969 612.269531 648.316406 614.503906 641.984375 623.445312 C 631.925781 637.601562 628.761719 653.804688 629.320312 668.703125 C 624.289062 661.8125 618.890625 652.871094 614.046875 641.882812 L 612.183594 637.972656 C 611.066406 635.921875 609.949219 634.246094 608.273438 632.945312 L 608.273438 458.621094 C 624.847656 442.042969 647.011719 450.050781 652.785156 452.472656 C 669.734375 465.136719 670.851562 476.871094 667.3125 490.09375 C 664.707031 499.59375 669.175781 509.464844 677.929688 513.5625 Z M 675.695312 1078.625 L 675.507812 1104.699219 L 494.851562 1104.699219 L 494.851562 1078.066406 C 522.414062 1080.300781 556.496094 1081.234375 590.023438 1081.234375 C 620.753906 1081.234375 650.921875 1080.300781 675.695312 1078.625 Z M 794.332031 850.851562 C 782.039062 858.859375 735.851562 893.871094 748.144531 961.851562 C 757.457031 1012.324219 736.78125 1024.800781 714.617188 1033.554688 C 704.75 1037.09375 659.675781 1039.886719 609.019531 1040.632812 C 621.125 1012.695312 632.671875 966.695312 622.429688 900.203125 C 628.945312 901.878906 635.652344 902.625 642.730469 902.625 C 652.414062 902.625 662.84375 900.949219 672.902344 896.105469 C 698.230469 884.1875 707.355469 866.121094 715.550781 849.917969 C 717.039062 846.753906 718.714844 843.214844 720.765625 839.675781 C 723.371094 839.675781 726.351562 839.300781 730.078125 838.929688 C 750.75 836.136719 768.816406 825.707031 781.109375 809.132812 C 794.519531 791.25 799.734375 767.039062 795.636719 743.015625 C 794.519531 736.867188 791.910156 731.09375 789.117188 726.253906 C 799.546875 721.222656 808.671875 715.078125 813.328125 708.558594 C 818.171875 701.480469 825.0625 690.492188 828.414062 677.457031 C 836.609375 645.609375 817.796875 619.90625 802.898438 603.332031 C 796.378906 595.882812 790.605469 590.480469 785.949219 586.011719 C 790.980469 562.730469 785.765625 530.136719 785.765625 529.578125 C 778.316406 499.40625 749.445312 466.628906 714.621094 463.835938 L 707.726562 463.835938 C 703.816406 446.699219 692.828125 431.613281 674.578125 418.761719 C 673.832031 418.019531 672.898438 417.460938 671.96875 417.085938 C 653.902344 407.960938 614.976562 399.578125 584.808594 425.09375 C 570.28125 417.644531 547.558594 409.449219 523.160156 415.222656 C 499.878906 420.996094 480.695312 437.945312 466.726562 465.324219 C 446.800781 469.234375 409.738281 481.714844 394.652344 521.011719 C 384.78125 546.527344 386.269531 566.453125 392.042969 580.609375 C 375.28125 593.644531 353.679688 616.367188 351.441406 648.402344 C 349.023438 684.71875 358.707031 711.726562 381.429688 730.535156 C 376.957031 747.855469 374.164062 776.539062 390.554688 805.40625 C 405.828125 832.785156 430.222656 841.539062 449.964844 842.65625 C 454.4375 861.277344 466.167969 886.792969 496.714844 900.949219 C 506.585938 905.234375 516.640625 907.09375 525.953125 907.09375 C 547 907.09375 565.996094 898.34375 580.152344 890.148438 C 597.472656 978.425781 574.003906 1025.175781 563.574219 1040.632812 C 518.503906 1040.261719 476.414062 1037.839844 457.042969 1032.808594 C 429.105469 1025.734375 427.988281 1015.675781 434.695312 972.09375 C 435.625 965.949219 436.742188 959.617188 437.300781 953.285156 C 444.566406 896.105469 399.867188 863.140625 399.679688 863.140625 C 339.335938 809.132812 304.695312 731.46875 304.695312 650.636719 C 304.507812 493.261719 432.832031 364.9375 590.207031 364.9375 C 747.769531 364.753906 876.09375 493.074219 876.09375 650.449219 C 876.09375 726.066406 847.039062 797.210938 794.332031 850.851562 Z M 490.007812 532.371094 C 499.132812 549.691406 524.089844 578.375 559.105469 578.375 C 562.085938 578.375 565.066406 578 568.042969 577.816406 L 568.042969 849.359375 C 556.683594 857.925781 532.472656 872.828125 513.476562 864.257812 C 487.585938 852.339844 487.585938 822.914062 487.585938 821.796875 C 487.585938 821.421875 487.585938 821.421875 487.585938 821.238281 L 524.089844 772.441406 C 524.089844 772.441406 524.089844 772.253906 524.277344 771.882812 C 525.953125 771.324219 531.539062 772.628906 535.453125 774.863281 C 544.765625 780.449219 557.242188 777.46875 563.015625 767.972656 C 568.789062 758.660156 565.808594 746.179688 556.3125 740.40625 C 547.371094 734.820312 536.011719 731.46875 525.207031 731.652344 C 522.042969 716.195312 516.082031 699.0625 503.417969 689.75 C 494.476562 683.417969 481.8125 685.09375 475.296875 693.847656 C 468.589844 702.972656 470.453125 715.636719 479.394531 722.15625 C 482.929688 725.507812 486.285156 740.035156 487.585938 754.003906 L 451.457031 802.425781 C 443.632812 801.867188 432.644531 798.328125 425.566406 785.664062 C 410.855469 759.402344 422.960938 732.398438 423.519531 731.46875 C 428.175781 721.78125 424.636719 710.609375 415.511719 705.207031 C 402.289062 697.570312 389.4375 685.464844 391.671875 651.195312 C 392.976562 629.40625 414.019531 613.574219 423.890625 607.429688 C 437.300781 609.664062 454.996094 614.878906 466.542969 623.074219 C 458.535156 630.894531 452.386719 639.835938 449.035156 646.914062 C 444.378906 657.15625 448.847656 669.074219 458.90625 673.730469 C 461.699219 675.035156 464.492188 675.59375 467.472656 675.59375 C 475.109375 675.59375 482.1875 671.308594 485.726562 664.046875 C 487.027344 661.253906 498.574219 637.972656 520.550781 646.914062 C 530.796875 650.824219 542.714844 645.980469 546.8125 635.738281 C 551.097656 625.308594 545.882812 613.574219 535.636719 609.476562 C 524.464844 605.007812 514.21875 603.703125 504.90625 604.261719 C 485.351562 579.863281 447.171875 570.550781 430.410156 567.757812 C 427.988281 563.476562 425.007812 553.789062 432.085938 535.539062 C 443.261719 506.671875 479.765625 503.875 481.253906 503.875 C 488.890625 503.503906 495.78125 498.660156 498.761719 491.769531 C 507.886719 470.351562 519.433594 457.875 532.472656 454.523438 C 544.949219 451.355469 559.105469 456.941406 568.042969 461.972656 L 568.042969 536.84375 C 567.484375 536.84375 566.925781 536.84375 566.183594 537.027344 C 542.15625 543.546875 526.324219 515.050781 525.582031 513.375 C 520.550781 503.691406 508.445312 499.78125 498.390625 505.179688 C 488.519531 510.210938 484.980469 522.316406 490.007812 532.371094 Z M 490.007812 532.371094 " fill-opacity="1" fill-rule="nonzero"/><path fill="#406078" d="M 167.0625 556.398438 C 164.824219 556.398438 162.589844 556.023438 160.542969 555.28125 L 16.761719 505.554688 C 6.144531 501.828125 0.746094 490.46875 4.285156 479.851562 C 8.007812 469.421875 19.371094 463.648438 29.984375 467.371094 L 173.765625 517.101562 C 184.382812 520.824219 189.78125 532.1875 186.246094 542.800781 C 183.265625 551.183594 175.441406 556.398438 167.0625 556.398438 Z M 167.0625 556.398438 " fill-opacity="1" fill-rule="nonzero"/><path fill="#406078" d="M 298.550781 306.457031 C 292.960938 306.457031 287.375 304.035156 283.277344 299.566406 L 183.265625 184.839844 C 176 176.460938 176.746094 163.792969 185.3125 156.34375 C 193.695312 149.082031 206.359375 149.828125 213.808594 158.394531 L 313.820312 273.121094 C 321.085938 281.5 320.339844 294.164062 311.773438 301.617188 C 308.046875 304.96875 303.207031 306.457031 298.550781 306.457031 Z M 298.550781 306.457031 " fill-opacity="1" fill-rule="nonzero"/><path fill="#406078" d="M 577.542969 199.179688 C 566.367188 199.179688 557.429688 190.242188 557.429688 179.253906 L 556.496094 27.089844 C 556.496094 15.917969 565.4375 6.976562 576.613281 6.789062 C 576.613281 6.789062 576.613281 6.789062 576.796875 6.789062 C 587.972656 6.789062 596.914062 15.730469 596.914062 26.71875 L 597.84375 178.878906 C 597.65625 190.054688 588.71875 199.179688 577.542969 199.179688 Z M 577.542969 199.179688 " fill-opacity="1" fill-rule="nonzero"/><path fill="#406078" d="M 870.132812 309.4375 C 865.847656 309.4375 861.566406 308.132812 858.027344 305.339844 C 849.085938 298.636719 847.410156 285.972656 854.117188 277.03125 L 946.121094 155.785156 C 952.824219 146.847656 965.488281 145.171875 974.429688 151.875 C 983.371094 158.578125 985.046875 171.246094 978.339844 180.183594 L 886.335938 301.429688 C 882.238281 306.832031 876.277344 309.4375 870.132812 309.4375 Z M 870.132812 309.4375 " fill-opacity="1" fill-rule="nonzero"/><g clip-path="url(#5865b95847)"><path fill="#406078" d="M 1010.375 553.230469 C 1001.25 553.230469 993.054688 547.085938 990.820312 537.960938 C 988.210938 527.15625 994.730469 516.167969 1005.53125 513.5625 L 1153.222656 476.871094 C 1164.027344 474.265625 1175.015625 480.78125 1177.621094 491.585938 C 1180.230469 502.386719 1173.710938 513.375 1162.910156 515.984375 L 1015.21875 552.671875 C 1013.539062 553.046875 1012.050781 553.230469 1010.375 553.230469 Z M 1010.375 553.230469 " fill-opacity="1" fill-rule="nonzero"/></g><g clip-path="url(#26abcc1951)"><g clip-path="url(#18153991ca)"><path fill="#a6a6a6" d="M 517.777344 1502.757812 L 661.746094 1502.757812 L 661.746094 1646.726562 L 517.777344 1646.726562 Z M 517.777344 1502.757812 " fill-opacity="1" fill-rule="nonzero"/></g></g></svg>