<?xml version="1.0" encoding="UTF-8" standalone="no"?>
<svg
   width="1700"
   zoomAndPan="magnify"
   viewBox="0 0 1275 1576.499953"
   height="2102"
   preserveAspectRatio="xMidYMid meet"
   version="1.0"
   id="svg12"
   sodipodi:docname="one-health.svg"
   inkscape:version="1.4 (e7c3feb1, 2024-10-09)"
   xmlns:inkscape="http://www.inkscape.org/namespaces/inkscape"
   xmlns:sodipodi="http://sodipodi.sourceforge.net/DTD/sodipodi-0.dtd"
   xmlns="http://www.w3.org/2000/svg"
   xmlns:svg="http://www.w3.org/2000/svg">
  <sodipodi:namedview
     id="namedview12"
     pagecolor="#ffffff"
     bordercolor="#000000"
     borderopacity="0.25"
     inkscape:showpageshadow="2"
     inkscape:pageopacity="0.0"
     inkscape:pagecheckerboard="0"
     inkscape:deskcolor="#d1d1d1"
     inkscape:zoom="0.19790676"
     inkscape:cx="1010.5769"
     inkscape:cy="1419.8606"
     inkscape:window-width="1680"
     inkscape:window-height="923"
     inkscape:window-x="0"
     inkscape:window-y="25"
     inkscape:window-maximized="1"
     inkscape:current-layer="svg12" />
  <defs
     id="defs6">
    <clipPath
       id="02939cb0d0">
      <path
         d="M 0.203125 0 L 1274.796875 0 L 1274.796875 1214.613281 L 0.203125 1214.613281 Z M 0.203125 0 "
         clip-rule="nonzero"
         id="path1" />
    </clipPath>
    <clipPath
       id="53300f841b">
      <path
         d="M 1 0 L 1274 0 L 1274 1214.613281 L 1 1214.613281 Z M 1 0 "
         clip-rule="nonzero"
         id="path2" />
    </clipPath>
    <clipPath
       id="d868cef847">
      <path
         d="M -103.832031 543.738281 L 966.347656 -175.753906 L 1631.230469 813.226562 L 561.046875 1532.722656 Z M -103.832031 543.738281 "
         clip-rule="nonzero"
         id="path3" />
    </clipPath>
    <clipPath
       id="f3b9226d10">
      <path
         d="M -103.832031 543.738281 L 966.347656 -175.753906 L 1631.230469 813.226562 L 561.046875 1532.722656 Z M -103.832031 543.738281 "
         clip-rule="nonzero"
         id="path4" />
    </clipPath>
    <clipPath
       id="149fe62c76">
      <path
         d="M 637.324219 1431.585938 L 781.28125 1431.585938 L 781.28125 1575.542969 L 637.324219 1575.542969 Z M 637.324219 1431.585938 "
         clip-rule="nonzero"
         id="path5" />
    </clipPath>
    <clipPath
       id="b0ae2324ee">
      <path
         d="M 659.820312 1431.585938 L 758.789062 1431.585938 C 771.210938 1431.585938 781.28125 1441.65625 781.28125 1454.078125 L 781.28125 1553.046875 C 781.28125 1565.472656 771.210938 1575.542969 758.789062 1575.542969 L 659.820312 1575.542969 C 647.398438 1575.542969 637.324219 1565.472656 637.324219 1553.046875 L 637.324219 1454.078125 C 637.324219 1441.65625 647.398438 1431.585938 659.820312 1431.585938 Z M 659.820312 1431.585938 "
         clip-rule="nonzero"
         id="path6" />
    </clipPath>
  </defs>
  <g
     clip-path="url(#53300f841b)"
     id="g10">
    <g
       clip-path="url(#d868cef847)"
       id="g9">
      <g
         clip-path="url(#f3b9226d10)"
         id="g8">
        <path
           fill="#406078"
           d="M 649.796875 508.535156 C 649.378906 505.894531 649.242188 503.023438 648.546875 500.289062 C 628.398438 422.285156 632.378906 344.792969 654.289062 267.945312 C 676.710938 189.339844 714.042969 119.257812 774.539062 62.933594 C 796.679688 42.320312 822.015625 26.433594 850.410156 16.101562 C 927.578125 -12.011719 1000.90625 -2.796875 1070.664062 39.726562 C 1141.117188 82.664062 1185.582031 146.125 1216.664062 221.023438 C 1249.738281 300.507812 1264.929688 383.839844 1270.765625 468.976562 C 1276.558594 554.066406 1272.988281 639.15625 1256.730469 722.996094 C 1247.191406 772.28125 1233.941406 820.964844 1220.140625 869.277344 C 1201.65625 933.800781 1179.191406 997.027344 1149.730469 1057.476562 C 1128.980469 1100.089844 1103.96875 1140.109375 1075.109375 1177.816406 C 1064.316406 1191.898438 1050.792969 1199.957031 1033.515625 1203.292969 C 986.871094 1212.277344 940.179688 1217.328125 892.46875 1213.296875 C 746.699219 1200.929688 607.320312 1164.242188 473.269531 1106.113281 C 401.707031 1075.078125 332.410156 1039.828125 267.007812 997.304688 C 218.601562 965.855469 174.179688 929.445312 137.078125 885.070312 C 113.734375 857.09375 91.222656 828.234375 70.097656 798.542969 C 39.992188 756.253906 18.5 709.5625 7.058594 658.65625 C -10.21875 581.441406 11.828125 515.851562 66.578125 459.988281 C 154.496094 370.175781 260.660156 343.496094 382.390625 366.050781 C 479.941406 384.164062 560.585938 433.308594 633.675781 497.554688 C 638.171875 501.492188 642.757812 505.292969 647.34375 509.136719 C 647.574219 509.273438 648.269531 508.949219 649.796875 508.535156 Z M 799.042969 594.875 C 856.710938 660.648438 908.078125 730.546875 961.394531 799.148438 C 962.179688 796.183594 961.859375 793.960938 961.023438 791.96875 C 950.136719 766.027344 938.699219 740.320312 928.320312 714.195312 C 895.710938 632.488281 863.472656 550.640625 840.5 465.546875 C 832.253906 434.976562 825.351562 404.035156 818.449219 373.09375 C 817.058594 366.699219 813.492188 357.855469 822.527344 354.054688 C 831.417969 350.351562 835.171875 358.871094 839.203125 364.292969 C 871.671875 408.019531 904.328125 451.605469 935.964844 495.933594 C 966.953125 539.289062 996.691406 583.480469 1027.078125 627.300781 C 1029.578125 630.867188 1032.773438 633.96875 1035.691406 637.351562 C 1035.226562 627.160156 1031.894531 618.359375 1029.625 609.328125 C 1025.269531 591.957031 1021.195312 574.492188 1017.671875 556.9375 C 1016.933594 553.046875 1019.015625 548.648438 1019.988281 543.644531 C 1040.648438 550.175781 1050.5625 567.683594 1066.402344 576.808594 C 1069.738281 575.003906 1072.425781 573.753906 1074.925781 572.132812 C 1125.785156 538.363281 1176.597656 504.503906 1227.597656 470.921875 C 1233.988281 466.707031 1236.351562 461.796875 1235.378906 454.476562 C 1232.96875 436.691406 1231.117188 418.8125 1228.476562 401.070312 C 1217.082031 323.53125 1196.5625 248.628906 1158.117188 179.890625 C 1136.578125 141.261719 1113.09375 103.695312 1077.335938 75.484375 C 1036.246094 43.0625 989.789062 26.433594 937.816406 27.035156 C 917.019531 27.265625 895.945312 30.460938 875.609375 35.140625 C 829.707031 45.65625 792.046875 70.019531 763.652344 107.863281 C 742.714844 135.792969 726.042969 166.132812 712.097656 198.09375 C 672.726562 288.417969 659.710938 381.941406 679.164062 478.933594 C 685.601562 511.171875 695.46875 542.671875 703.714844 574.539062 C 705.058594 579.726562 706.957031 584.960938 707.097656 590.242188 C 707.375 599.785156 699.59375 604.507812 691.394531 599.738281 C 686.296875 596.773438 681.757812 592.605469 677.589844 588.390625 C 667.445312 578.199219 657.765625 567.59375 647.714844 557.355469 C 600.375 509.089844 546.550781 469.253906 486.566406 438.449219 C 419.167969 403.804688 345.984375 392.316406 271.035156 390.183594 C 263.949219 390 256.679688 391.15625 249.730469 392.777344 C 193.820312 406.074219 144.8125 432.199219 102.847656 471.707031 C 73.15625 499.640625 49.210938 531.324219 36.054688 570.277344 C 32.859375 579.679688 30.914062 589.964844 30.679688 599.875 C 29.988281 629.800781 39.390625 657.730469 50.273438 685.011719 C 84.96875 772.003906 142.359375 842.828125 209.894531 905.867188 C 236.480469 930.695312 266.820312 951.492188 294.9375 974.746094 C 332.6875 1005.964844 376.089844 1027.414062 419.402344 1049.324219 C 427.96875 1053.675781 434.917969 1053.582031 442.375 1047.515625 C 449.695312 1041.632812 457.570312 1036.398438 465.488281 1030.65625 C 463.265625 1025.421875 461.785156 1021.621094 459.976562 1017.917969 C 444.042969 984.9375 431.445312 950.753906 422.320312 915.273438 C 420.375 907.628906 416.160156 899.382812 424.867188 889.75 C 431.121094 894.101562 437.835938 897.578125 443.164062 902.578125 C 469.703125 927.59375 495.921875 952.976562 522.230469 978.222656 C 524.871094 980.722656 527.605469 983.085938 530.246094 985.492188 C 520.609375 957.097656 507.828125 930.742188 497.171875 903.507812 C 466.183594 824.390625 436.078125 744.953125 405.691406 665.652344 C 404.4375 662.316406 403.234375 658.703125 403.328125 655.230469 C 403.421875 652.683594 405.042969 649.070312 407.078125 648.050781 C 409.117188 646.9375 413.101562 647.539062 415.1875 648.976562 C 418.613281 651.246094 421.484375 654.535156 423.988281 657.871094 C 435.753906 673.710938 448.121094 689.226562 458.910156 705.765625 C 513.105469 788.539062 574.34375 866.03125 635.578125 943.574219 C 643.082031 953.113281 651.558594 961.960938 659.523438 971.085938 C 660.777344 970.390625 661.933594 969.652344 663.136719 968.957031 C 660.542969 962.007812 657.859375 955.105469 655.355469 948.160156 C 647.761719 927.359375 639.976562 906.65625 633.03125 885.625 C 631.871094 882.011719 633.445312 876.039062 635.996094 873.167969 C 637.570312 871.453125 644.007812 872.515625 647.296875 874.183594 C 655.679688 878.445312 663.507812 883.726562 672.585938 889.238281 C 674.53125 870.710938 663.695312 853.480469 674.855469 836.574219 C 690.605469 840.277344 698.339844 854.40625 712.46875 860.472656 C 753.554688 834.441406 794.917969 808.269531 836.792969 781.683594 C 834.847656 775.660156 833.6875 771.074219 831.835938 766.769531 C 810.992188 717.898438 803.394531 665.605469 792.695312 614.097656 C 791.445312 608.027344 789.730469 600.847656 799.042969 594.875 Z M 452.054688 1062.753906 C 458.957031 1066.507812 461.875 1068.59375 465.117188 1069.84375 C 498.515625 1083.089844 531.726562 1096.753906 565.402344 1109.214844 C 638.726562 1136.265625 714.738281 1152.941406 791.675781 1165.308594 C 869.449219 1177.863281 947.40625 1183.375 1025.917969 1171.933594 C 1036.617188 1170.359375 1044.722656 1166.976562 1051.8125 1158.359375 C 1080.160156 1123.757812 1101.140625 1084.804688 1118.929688 1044.226562 C 1151.910156 968.957031 1176.597656 890.769531 1199.941406 812.070312 C 1228.847656 714.613281 1238.527344 614.976562 1238.15625 513.90625 C 1238.15625 506.589844 1237.140625 499.222656 1236.445312 489.773438 C 1229.078125 494.035156 1224.355469 496.445312 1220 499.269531 C 1179.375 525.765625 1138.894531 552.539062 1098.132812 578.800781 C 1086.78125 586.121094 1074.460938 592.050781 1062.882812 598.488281 C 1054.359375 590.101562 1047.550781 583.433594 1040.742188 576.761719 C 1040.046875 585.285156 1041.574219 592.234375 1043.84375 598.90625 C 1052.921875 625.539062 1062.464844 651.941406 1071.21875 678.667969 C 1072.46875 682.417969 1071.449219 690.292969 1069.414062 691.082031 C 1065.242188 692.796875 1059.5 691.683594 1054.730469 690.386719 C 1052.320312 689.738281 1050.46875 686.355469 1048.707031 683.949219 C 1018.785156 643.558594 988.257812 603.582031 959.214844 562.542969 C 928.785156 519.558594 899.925781 475.460938 870.097656 432.011719 C 863.195312 421.914062 855.273438 412.511719 847.816406 402.832031 C 846.65625 403.433594 845.546875 404.035156 844.390625 404.683594 C 858.839844 451.328125 872.550781 498.296875 888.023438 544.617188 C 902.613281 588.296875 918.175781 631.699219 935.039062 674.546875 C 956.253906 728.507812 975.152344 783.492188 1002.757812 834.8125 C 1004.472656 837.964844 1006.507812 841.34375 1006.648438 844.726562 C 1006.832031 849.035156 1006.695312 855.609375 1004.148438 857.277344 C 1000.441406 859.640625 994.328125 859.222656 989.417969 858.667969 C 986.917969 858.390625 984.554688 855.378906 982.515625 853.25 C 969.730469 839.816406 955.882812 827.171875 944.578125 812.578125 C 907.152344 764.3125 870.699219 715.351562 833.875 666.671875 C 830.445312 662.132812 827.019531 657.59375 823.589844 653.007812 C 822.433594 653.421875 821.226562 653.839844 820.070312 654.257812 C 821.414062 660.277344 822.386719 666.394531 824.148438 672.320312 C 833.921875 705.578125 843.785156 738.835938 853.792969 772.050781 C 858.332031 786.964844 857.960938 790.671875 846.660156 798.175781 C 805.664062 825.226562 764.207031 851.394531 719.183594 871.589844 C 708.996094 876.175781 700.65625 878.121094 689.492188 867.332031 C 691.394531 879.789062 693.292969 888.453125 694.03125 897.207031 C 695.191406 910.871094 688.011719 916.152344 675.089844 911.425781 C 669.855469 909.480469 664.851562 906.933594 657.578125 903.691406 C 661.144531 913.09375 663.554688 919.8125 666.242188 926.433594 C 677.125 953.023438 688.105469 979.5625 698.941406 1006.152344 C 701.582031 1012.589844 702.742188 1019.121094 696.257812 1024.078125 C 689.492188 1029.3125 683.703125 1025.421875 678.746094 1020.835938 C 669.484375 1012.40625 659.386719 1004.484375 651.695312 994.710938 C 608.480469 939.636719 565.355469 884.421875 523.25 828.515625 C 500.601562 798.40625 479.988281 766.722656 458.402344 735.828125 C 456.132812 732.585938 453.167969 729.804688 450.574219 726.839844 C 461.597656 762.738281 474.476562 796.832031 487.351562 830.921875 C 512.96875 898.6875 540.574219 965.621094 575.59375 1029.171875 C 577.027344 1031.8125 578.371094 1034.546875 579.113281 1037.417969 C 581.429688 1046.40625 576.65625 1052.242188 567.808594 1049.648438 C 561.882812 1047.933594 556 1043.808594 551.691406 1039.269531 C 525.75 1011.941406 500.273438 984.148438 474.476562 956.683594 C 467.710938 949.457031 460.347656 942.738281 453.214844 935.792969 C 452.195312 936.488281 451.175781 937.179688 450.15625 937.921875 C 452.703125 944.269531 455.019531 950.707031 457.753906 956.960938 C 466.230469 976.136719 475.125 995.128906 483.320312 1014.398438 C 491.984375 1034.777344 491.613281 1035.519531 473.828125 1048.070312 C 467.621094 1052.472656 461.226562 1056.59375 452.054688 1062.753906 Z M 452.054688 1062.753906 "
           fill-opacity="1"
           fill-rule="evenodd"
           id="path8" />
      </g>
    </g>
  </g>
  <g
     clip-path="url(#149fe62c76)"
     id="g12"
     transform="translate(-29.476664,-26.796967)">
    <g
       clip-path="url(#b0ae2324ee)"
       id="g11">
      <path
         fill="#0097b2"
         d="M 637.32422,1431.5859 H 781.28125 V 1575.543 H 637.32422 Z m 0,0"
         fill-opacity="1"
         fill-rule="nonzero"
         id="path10" />
    </g>
  </g>
</svg>
