<?xml version="1.0" encoding="UTF-8" standalone="no"?>
<svg
   width="1763"
   zoomAndPan="magnify"
   viewBox="0 0 1322.25 1656.749946"
   height="2209"
   preserveAspectRatio="xMidYMid meet"
   version="1.0"
   id="svg24"
   sodipodi:docname="climate.svg"
   inkscape:version="1.4 (e7c3feb1, 2024-10-09)"
   xmlns:inkscape="http://www.inkscape.org/namespaces/inkscape"
   xmlns:sodipodi="http://sodipodi.sourceforge.net/DTD/sodipodi-0.dtd"
   xmlns="http://www.w3.org/2000/svg"
   xmlns:svg="http://www.w3.org/2000/svg">
  <sodipodi:namedview
     id="namedview24"
     pagecolor="#ffffff"
     bordercolor="#000000"
     borderopacity="0.25"
     inkscape:showpageshadow="2"
     inkscape:pageopacity="0.0"
     inkscape:pagecheckerboard="0"
     inkscape:deskcolor="#d1d1d1"
     inkscape:zoom="0.53265083"
     inkscape:cx="786.63165"
     inkscape:cy="1907.4409"
     inkscape:window-width="1680"
     inkscape:window-height="923"
     inkscape:window-x="0"
     inkscape:window-y="25"
     inkscape:window-maximized="1"
     inkscape:current-layer="svg24" />
  <defs
     id="defs6">
    <clipPath
       id="c628f53af7">
      <path
         d="M 588.773438 1511.636719 L 732.691406 1511.636719 L 732.691406 1655.554688 L 588.773438 1655.554688 Z M 588.773438 1511.636719 "
         clip-rule="nonzero"
         id="path1" />
    </clipPath>
    <clipPath
       id="322cb29422">
      <path
         d="M 611.261719 1511.636719 L 710.203125 1511.636719 C 722.625 1511.636719 732.691406 1521.703125 732.691406 1534.125 L 732.691406 1633.066406 C 732.691406 1645.488281 722.625 1655.554688 710.203125 1655.554688 L 611.261719 1655.554688 C 598.839844 1655.554688 588.773438 1645.488281 588.773438 1633.066406 L 588.773438 1534.125 C 588.773438 1521.703125 598.839844 1511.636719 611.261719 1511.636719 Z M 611.261719 1511.636719 "
         clip-rule="nonzero"
         id="path2" />
    </clipPath>
    <clipPath
       id="7952edaf3e">
      <path
         d="M 0 0.34375 L 1321.5 0.34375 L 1321.5 1332.339844 L 0 1332.339844 Z M 0 0.34375 "
         clip-rule="nonzero"
         id="path3" />
    </clipPath>
    <clipPath
       id="0a2deeb23c">
      <path
         d="M 314 859 L 1013 859 L 1013 1330.941406 L 314 1330.941406 Z M 314 859 "
         clip-rule="nonzero"
         id="path4" />
    </clipPath>
    <clipPath
       id="203480b451">
      <path
         d="M 647 1.695312 L 680 1.695312 L 680 66 L 647 66 Z M 647 1.695312 "
         clip-rule="nonzero"
         id="path5" />
    </clipPath>
    <clipPath
       id="52bbb488ab">
      <path
         d="M 1084 509 L 1321.5 509 L 1321.5 827 L 1084 827 Z M 1084 509 "
         clip-rule="nonzero"
         id="path6" />
    </clipPath>
  </defs>
  <g
     clip-path="url(#c628f53af7)"
     id="g8"
     transform="translate(1.4080519,-21.120778)">
    <g
       clip-path="url(#322cb29422)"
       id="g7">
      <path
         fill="#ff914d"
         d="m 588.77344,1511.6367 h 143.91797 v 143.918 H 588.77344 Z m 0,0"
         fill-opacity="1"
         fill-rule="nonzero"
         id="path7" />
    </g>
  </g>
  <g
     clip-path="url(#7952edaf3e)"
     id="g9" />
  <g
     clip-path="url(#0a2deeb23c)"
     id="g10">
    <path
       fill="#406078"
       d="M 996.53125 1302.921875 L 949.011719 1302.921875 L 949.011719 1096.660156 C 949.011719 1087.894531 941.96875 1080.847656 933.160156 1080.847656 L 917.304688 1080.847656 L 917.304688 1049.140625 L 933.160156 1049.140625 C 941.96875 1049.140625 949.011719 1042.09375 949.011719 1033.285156 C 949.011719 1024.519531 941.96875 1017.472656 933.160156 1017.472656 L 821.9375 1017.472656 L 821.9375 938.246094 C 821.9375 929.4375 814.890625 922.394531 806.125 922.394531 L 758.566406 922.394531 L 758.566406 890.726562 L 806.125 890.726562 C 814.890625 890.726562 821.9375 883.679688 821.9375 874.875 C 821.9375 866.066406 814.890625 859.019531 806.125 859.019531 L 520.636719 859.019531 C 511.832031 859.019531 504.785156 866.066406 504.785156 874.875 C 504.785156 883.679688 511.832031 890.726562 520.636719 890.726562 L 568.15625 890.726562 L 568.15625 922.394531 L 520.636719 922.394531 C 511.832031 922.394531 504.785156 929.4375 504.785156 938.246094 L 504.785156 1017.472656 L 393.5625 1017.472656 C 384.796875 1017.472656 377.75 1024.519531 377.75 1033.285156 C 377.75 1042.09375 384.796875 1049.140625 393.5625 1049.140625 L 409.417969 1049.140625 L 409.417969 1080.847656 L 393.5625 1080.847656 C 384.796875 1080.847656 377.75 1087.894531 377.75 1096.660156 L 377.75 1302.921875 L 330.191406 1302.921875 C 321.421875 1302.921875 314.378906 1309.964844 314.378906 1318.773438 C 314.378906 1327.582031 321.421875 1334.628906 330.191406 1334.628906 L 996.53125 1334.628906 C 1005.339844 1334.628906 1012.386719 1327.582031 1012.386719 1318.773438 C 1012.386719 1309.964844 1005.339844 1302.921875 996.53125 1302.921875 Z M 885.640625 1048.851562 L 885.640625 1080.558594 L 822.226562 1080.558594 L 822.226562 1048.851562 Z M 599.863281 890.398438 L 726.898438 890.398438 L 726.898438 922.105469 L 599.863281 922.105469 Z M 441.125 1048.851562 L 504.785156 1048.851562 L 504.785156 1080.558594 L 441.410156 1080.558594 L 441.410156 1048.851562 Z M 409.417969 1207.59375 L 425.269531 1207.59375 C 434.078125 1207.59375 441.125 1200.546875 441.125 1191.742188 C 441.125 1182.933594 434.078125 1175.886719 425.269531 1175.886719 L 409.417969 1175.886719 L 409.417969 1112.511719 L 504.785156 1112.511719 L 504.785156 1302.921875 L 409.703125 1302.921875 L 409.703125 1207.59375 Z M 536.449219 1239.261719 L 711.046875 1239.261719 C 719.851562 1239.261719 726.898438 1232.214844 726.898438 1223.449219 C 726.898438 1214.640625 719.851562 1207.59375 711.046875 1207.59375 L 536.449219 1207.59375 L 536.449219 1144.222656 L 711.046875 1144.222656 C 719.851562 1144.222656 726.898438 1137.175781 726.898438 1128.367188 C 726.898438 1119.558594 719.851562 1112.511719 711.046875 1112.511719 L 536.449219 1112.511719 L 536.449219 1049.140625 L 711.046875 1049.140625 C 719.851562 1049.140625 726.898438 1042.09375 726.898438 1033.285156 C 726.898438 1024.519531 719.851562 1017.472656 711.046875 1017.472656 L 536.449219 1017.472656 L 536.449219 954.101562 L 790.273438 954.101562 L 790.273438 1303.25 L 536.449219 1303.25 Z M 821.9375 1302.921875 L 821.9375 1112.511719 L 917.019531 1112.511719 L 917.019531 1175.886719 L 901.164062 1175.886719 C 892.359375 1175.886719 885.3125 1182.933594 885.3125 1191.742188 C 885.3125 1200.546875 892.359375 1207.59375 901.164062 1207.59375 L 917.019531 1207.59375 L 917.019531 1302.632812 L 821.9375 1302.632812 Z M 821.9375 1302.921875 "
       fill-opacity="1"
       fill-rule="nonzero"
       id="path9" />
  </g>
  <path
     fill="#406078"
     d="M 663.238281 382.550781 C 741.851562 382.550781 806.125 318.5625 806.125 239.664062 C 806.125 160.722656 742.136719 96.777344 663.238281 96.777344 C 584.296875 96.777344 520.351562 160.722656 520.351562 239.664062 C 520.351562 318.5625 584.585938 382.550781 663.238281 382.550781 Z M 663.238281 128.730469 C 724.523438 128.730469 774.417969 178.625 774.417969 239.949219 C 774.417969 301.277344 724.523438 350.84375 663.238281 350.84375 C 601.914062 350.84375 552.019531 300.949219 552.019531 239.664062 C 552.019531 178.339844 602.199219 128.730469 663.238281 128.730469 Z M 663.238281 128.730469 "
     fill-opacity="1"
     fill-rule="nonzero"
     id="path10" />
  <g
     clip-path="url(#203480b451)"
     id="g11">
    <path
       fill="#406078"
       d="M 663.238281 65.070312 C 672.003906 65.070312 679.050781 58.023438 679.050781 49.214844 L 679.050781 17.550781 C 679.050781 8.742188 672.003906 1.695312 663.238281 1.695312 C 654.429688 1.695312 647.386719 8.742188 647.386719 17.550781 L 647.386719 49.214844 C 647.386719 58.023438 654.429688 65.070312 663.238281 65.070312 Z M 663.238281 65.070312 "
       fill-opacity="1"
       fill-rule="nonzero"
       id="path11" />
  </g>
  <path
     fill="#406078"
     d="M 647.386719 430.070312 L 647.386719 461.738281 C 647.386719 470.542969 654.429688 477.589844 663.238281 477.589844 C 672.003906 477.589844 679.050781 470.542969 679.050781 461.738281 L 679.050781 430.070312 C 679.050781 421.261719 672.003906 414.21875 663.238281 414.21875 C 654.429688 414.21875 647.386719 421.261719 647.386719 430.070312 Z M 647.386719 430.070312 "
     fill-opacity="1"
     fill-rule="nonzero"
     id="path12" />
  <path
     fill="#406078"
     d="M 797.890625 120.824219 C 801.988281 120.824219 806.125 119.347656 809.035156 116.113281 L 831.359375 93.539062 C 837.503906 87.355469 837.503906 77.398438 831.359375 71.214844 C 825.175781 65.070312 815.21875 65.070312 808.75 71.214844 L 786.464844 93.828125 C 780.277344 99.972656 780.277344 109.96875 786.464844 116.113281 C 789.984375 119.347656 793.796875 120.824219 797.890625 120.824219 Z M 797.890625 120.824219 "
     fill-opacity="1"
     fill-rule="nonzero"
     id="path13" />
  <path
     fill="#406078"
     d="M 506.257812 412.742188 C 510.355469 412.742188 514.453125 411.269531 517.402344 408.074219 L 539.6875 385.460938 C 545.875 379.316406 545.875 369.320312 539.6875 363.175781 C 533.542969 356.988281 523.546875 356.988281 517.117188 363.175781 L 494.789062 385.746094 C 488.644531 391.933594 488.644531 401.886719 494.789062 408.074219 C 498.027344 410.980469 502.121094 412.742188 506.257812 412.742188 Z M 506.257812 412.742188 "
     fill-opacity="1"
     fill-rule="nonzero"
     id="path14" />
  <path
     fill="#406078"
     d="M 853.644531 255.476562 L 885.3125 255.476562 C 894.121094 255.476562 901.167969 248.429688 901.167969 239.664062 C 901.167969 230.855469 894.121094 223.808594 885.3125 223.808594 L 853.644531 223.808594 C 844.839844 223.808594 837.792969 230.855469 837.792969 239.664062 C 837.792969 248.429688 844.839844 255.476562 853.644531 255.476562 Z M 853.644531 255.476562 "
     fill-opacity="1"
     fill-rule="nonzero"
     id="path15" />
  <path
     fill="#406078"
     d="M 441.125 255.476562 L 472.789062 255.476562 C 481.597656 255.476562 488.644531 248.429688 488.644531 239.664062 C 488.644531 230.855469 481.597656 223.808594 472.789062 223.808594 L 441.125 223.808594 C 432.316406 223.808594 425.269531 230.855469 425.269531 239.664062 C 425.269531 248.429688 432.316406 255.476562 441.125 255.476562 Z M 441.125 255.476562 "
     fill-opacity="1"
     fill-rule="nonzero"
     id="path16" />
  <path
     fill="#406078"
     d="M 809.320312 363.175781 C 803.175781 356.988281 793.179688 356.988281 786.75 363.175781 C 780.5625 369.320312 780.5625 379.316406 786.75 385.460938 L 809.035156 408.074219 C 812.269531 411.269531 816.082031 412.742188 820.175781 412.742188 C 824.316406 412.742188 828.410156 411.269531 831.359375 408.074219 C 837.503906 401.886719 837.503906 391.933594 831.359375 385.746094 Z M 809.320312 363.175781 "
     fill-opacity="1"
     fill-rule="nonzero"
     id="path17" />
  <path
     fill="#406078"
     d="M 517.402344 116.398438 C 520.636719 119.636719 524.449219 121.109375 528.542969 121.109375 C 532.640625 121.109375 536.777344 119.636719 539.6875 116.398438 C 545.875 110.253906 545.875 100.300781 539.6875 94.113281 L 517.402344 71.542969 C 511.257812 65.355469 501.261719 65.355469 494.789062 71.542969 C 488.644531 77.6875 488.644531 87.683594 494.789062 93.828125 Z M 517.402344 116.398438 "
     fill-opacity="1"
     fill-rule="nonzero"
     id="path18" />
  <g
     clip-path="url(#52bbb488ab)"
     id="g19">
    <path
       fill="#406078"
       d="M 1320.160156 614.621094 C 1317.785156 608.761719 1311.925781 604.953125 1305.492188 604.953125 L 1261.167969 604.953125 L 1293.449219 532.15625 C 1295.5 527.199219 1295.210938 521.585938 1292.261719 517.203125 C 1289.355469 512.820312 1284.355469 509.871094 1279.070312 509.871094 L 1142.328125 509.871094 C 1135.609375 509.871094 1129.425781 514.253906 1127.375 520.726562 L 1085.140625 647.1875 C 1083.378906 651.898438 1084.242188 657.46875 1087.1875 661.566406 C 1090.140625 665.664062 1095.097656 667.996094 1100.09375 667.996094 L 1145.277344 667.996094 L 1100.09375 805.929688 C 1097.757812 812.972656 1100.667969 820.59375 1106.851562 824.402344 C 1109.472656 825.878906 1112.425781 826.738281 1115.046875 826.738281 C 1119.183594 826.738281 1123.28125 825.265625 1126.230469 822.070312 L 1316.636719 631.621094 C 1321.308594 627.238281 1322.78125 620.476562 1320.160156 614.621094 Z M 1150.851562 752.796875 L 1182.269531 657.46875 C 1183.703125 652.757812 1183.128906 647.1875 1179.894531 643.089844 C 1176.984375 638.953125 1172.273438 636.617188 1166.988281 636.617188 L 1121.804688 636.617188 L 1153.511719 541.578125 L 1254.410156 541.578125 L 1222.171875 614.332031 C 1220.082031 619.332031 1220.410156 624.902344 1223.316406 629.285156 C 1226.265625 633.667969 1231.265625 636.617188 1236.550781 636.617188 L 1266.742188 636.617188 Z M 1150.851562 752.796875 "
       fill-opacity="1"
       fill-rule="nonzero"
       id="path19" />
  </g>
  <path
     fill="#406078"
     d="M 265.667969 666.851562 C 249.53125 635.429688 208.726562 586.4375 168.539062 550.671875 C 129.828125 516.015625 75.550781 479.066406 37.082031 498.730469 C -1.34375 518.390625 -3.105469 584.101562 2.179688 635.757812 C 7.75 689.421875 23.320312 751.035156 39.457031 782.457031 C 54.984375 812.648438 81.121094 834.972656 113.402344 845.542969 C 126.304688 849.636719 139.496094 851.6875 152.6875 851.6875 C 172.636719 851.6875 192.300781 846.976562 210.488281 837.59375 C 272.714844 805.929688 297.621094 729.035156 265.667969 666.851562 Z M 209.34375 800.644531 L 155.921875 696.46875 L 175.300781 636.332031 C 177.921875 627.8125 173.539062 619.003906 165.019531 616.382812 C 156.496094 613.71875 147.730469 618.144531 145.066406 626.664062 L 135.398438 656.570312 L 116.023438 618.429688 C 111.925781 610.523438 102.546875 607.574219 94.597656 611.382812 C 86.691406 615.480469 83.742188 624.902344 87.550781 632.808594 L 133.925781 723.464844 L 106.640625 716.417969 C 98.121094 714.085938 89.601562 719.367188 87.265625 727.890625 C 85.21875 736.371094 90.214844 744.890625 98.695312 747.226562 L 153.300781 761.316406 L 180.871094 815.023438 C 162.066406 820.882812 142.117188 821.167969 123.070312 815.023438 C 99.023438 807.074219 79.074219 790.363281 67.601562 767.789062 C 55.273438 743.988281 39.457031 688.277344 33.558594 632.234375 C 26.554688 564.722656 37.984375 533.34375 51.175781 526.871094 C 53.835938 525.726562 56.746094 524.824219 60.882812 524.824219 C 77.3125 524.824219 106.027344 537.726562 147.117188 574.144531 C 189.390625 611.671875 224.867188 657.46875 237.199219 681.230469 C 258.910156 723.179688 246.007812 773.648438 209.34375 800.644531 Z M 209.34375 800.644531 "
     fill-opacity="1"
     fill-rule="nonzero"
     id="path20" />
  <path
     fill="#406078"
     d="M 1074 876.347656 C 1066.339844 871.921875 1056.671875 874.875 1052.574219 882.492188 C 1034.097656 915.960938 1011.484375 946.769531 985.105469 974.335938 C 978.917969 980.769531 979.207031 990.765625 985.679688 996.621094 C 988.914062 999.570312 992.722656 1001.046875 996.535156 1001.046875 C 1000.628906 1001.046875 1005.054688 999.285156 1007.964844 996.050781 C 1036.148438 966.390625 1060.480469 933.25 1080.144531 897.445312 C 1084.566406 890.398438 1081.90625 880.730469 1074 876.347656 Z M 1074 876.347656 "
     fill-opacity="1"
     fill-rule="nonzero"
     id="path21" />
  <path
     fill="#406078"
     d="M 1096.859375 471.160156 C 1074.859375 422.738281 1044.953125 378.414062 1007.964844 339.703125 C 1001.816406 333.230469 991.824219 333.230469 985.679688 339.128906 C 979.207031 345.273438 979.207031 355.226562 985.105469 361.414062 C 1019.390625 397.503906 1047.289062 438.878906 1067.8125 484.0625 C 1070.476562 489.921875 1076.335938 493.445312 1082.191406 493.445312 C 1084.242188 493.445312 1086.617188 492.871094 1088.664062 491.96875 C 1096.859375 488.445312 1100.378906 479.066406 1096.859375 471.160156 Z M 1096.859375 471.160156 "
     fill-opacity="1"
     fill-rule="nonzero"
     id="path22" />
  <path
     fill="#406078"
     d="M 225.769531 524.25 C 227.53125 524.824219 229.292969 525.109375 231.339844 525.109375 C 237.773438 525.109375 243.957031 521.015625 246.292969 514.867188 C 267.429688 457.640625 299.382812 406.023438 341.660156 361.699219 C 347.804688 355.269531 347.519531 345.273438 341.046875 339.414062 C 334.902344 333.515625 324.617188 333.515625 318.761719 339.988281 C 273.574219 387.507812 238.960938 442.6875 216.675781 504.011719 C 213.4375 512.207031 217.535156 521.300781 225.769531 524.25 Z M 225.769531 524.25 "
     fill-opacity="1"
     fill-rule="nonzero"
     id="path23" />
  <path
     fill="#406078"
     d="M 330.191406 1001.332031 C 334.042969 1001.332031 338.136719 999.859375 341.046875 996.910156 C 347.519531 990.765625 347.519531 980.769531 341.660156 974.625 C 315.238281 947.054688 292.667969 915.960938 274.148438 882.78125 C 270.054688 875.160156 260.386719 872.210938 252.4375 876.636719 C 244.820312 880.730469 241.910156 890.398438 246.292969 898.058594 C 265.957031 933.824219 290.289062 967.003906 318.472656 996.621094 C 321.710938 999.859375 325.808594 1001.332031 330.191406 1001.332031 Z M 330.191406 1001.332031 "
     fill-opacity="1"
     fill-rule="nonzero"
     id="path24" />
</svg>
