<?xml version="1.0" encoding="UTF-8" standalone="no"?>
<svg
   width="1844"
   zoomAndPan="magnify"
   viewBox="0 0 1383 1652.999933"
   height="2204"
   preserveAspectRatio="xMidYMid meet"
   version="1.0"
   id="svg8"
   sodipodi:docname="agriculture.svg"
   inkscape:version="1.4 (e7c3feb1, 2024-10-09)"
   xmlns:inkscape="http://www.inkscape.org/namespaces/inkscape"
   xmlns:sodipodi="http://sodipodi.sourceforge.net/DTD/sodipodi-0.dtd"
   xmlns="http://www.w3.org/2000/svg"
   xmlns:svg="http://www.w3.org/2000/svg">
  <sodipodi:namedview
     id="namedview8"
     pagecolor="#ffffff"
     bordercolor="#000000"
     borderopacity="0.25"
     inkscape:showpageshadow="2"
     inkscape:pageopacity="0.0"
     inkscape:pagecheckerboard="0"
     inkscape:deskcolor="#d1d1d1"
     inkscape:zoom="0.37749546"
     inkscape:cx="614.57692"
     inkscape:cy="1751.0144"
     inkscape:window-width="1680"
     inkscape:window-height="923"
     inkscape:window-x="0"
     inkscape:window-y="25"
     inkscape:window-maximized="1"
     inkscape:current-layer="svg8" />
  <defs
     id="defs4">
    <clipPath
       id="7806c03ec4">
      <path
         d="M 0 0 L 1382.25 0 L 1382.25 1268.25 L 0 1268.25 Z M 0 0 "
         clip-rule="nonzero"
         id="path1" />
    </clipPath>
    <clipPath
       id="6a8fd69415">
      <path
         d="M 0.0546875 0 L 1382.25 0 L 1382.25 1268.25 L 0.0546875 1268.25 Z M 0.0546875 0 "
         clip-rule="nonzero"
         id="path2" />
    </clipPath>
    <clipPath
       id="d1ff4ec410">
      <path
         d="M 691.234375 1508.320312 L 835.234375 1508.320312 L 835.234375 1652.320312 L 691.234375 1652.320312 Z M 691.234375 1508.320312 "
         clip-rule="nonzero"
         id="path3" />
    </clipPath>
    <clipPath
       id="3ba59a9ad5">
      <path
         d="M 713.734375 1508.320312 L 812.734375 1508.320312 C 825.160156 1508.320312 835.234375 1518.394531 835.234375 1530.820312 L 835.234375 1629.820312 C 835.234375 1642.246094 825.160156 1652.320312 812.734375 1652.320312 L 713.734375 1652.320312 C 701.308594 1652.320312 691.234375 1642.246094 691.234375 1629.820312 L 691.234375 1530.820312 C 691.234375 1518.394531 701.308594 1508.320312 713.734375 1508.320312 Z M 713.734375 1508.320312 "
         clip-rule="nonzero"
         id="path4" />
    </clipPath>
  </defs>
  <g
     clip-path="url(#6a8fd69415)"
     id="g6">
    <path
       fill="#406078"
       d="M 133.703125 153.960938 C 161.035156 174.425781 180.3125 174.820312 189.75 163.15625 C 199.089844 151.589844 194.546875 131.96875 165.976562 110.515625 C 151.742188 100.136719 133.109375 94.355469 115.859375 91.390625 C 107.503906 89.957031 100.632812 89.261719 95.148438 88.867188 C 64.75 69.59375 33.660156 51.5 1.929688 34.648438 C 0.597656 33.90625 -0.789062 36.03125 0.691406 36.921875 C 31.285156 55.605469 62.820312 74.1875 90.992188 95.9375 C 100.730469 115.609375 115.261719 140.171875 133.699219 153.960938 Z M 146.996094 251.035156 C 183.71875 281.480469 226.917969 284.742188 258.898438 241.347656 C 232.257812 211.988281 193.160156 206.105469 147.390625 238.828125 C 130.6875 238.777344 113.980469 237.789062 97.472656 235.960938 C 79.824219 233.785156 61.933594 230.820312 45.96875 222.960938 C 44.980469 222.367188 43.84375 224.148438 44.878906 224.789062 C 68.308594 239.023438 96.332031 243.671875 123.121094 248.117188 C 131.078125 249.207031 138.9375 250.195312 146.996094 251.035156 Z M 313.316406 294.132812 C 286.28125 259.683594 240.859375 259.4375 201.859375 285.929688 C 167.757812 283.015625 131.921875 280.492188 101.277344 264.480469 C 100.292969 263.835938 99.054688 265.566406 100.089844 266.257812 C 129.894531 285.878906 166.171875 291.859375 200.867188 298.089844 C 234.527344 329.03125 277.777344 337.382812 313.3125 294.132812 Z M 252.472656 347.910156 C 284.304688 378.949219 324.289062 393.085938 364.96875 349.640625 C 338.425781 312.273438 292.457031 312.519531 254.003906 335.851562 C 220 331.203125 184.3125 326.757812 154.460938 309.011719 C 153.472656 308.371094 152.1875 310 153.175781 310.742188 C 175.171875 327.449219 202.550781 335.257812 228.945312 342.472656 C 236.65625 344.5 244.417969 346.328125 252.472656 347.910156 Z M 414.046875 407.46875 C 391.804688 374.550781 354.09375 362.984375 303.777344 388.339844 C 287.21875 385.722656 270.808594 382.113281 254.695312 377.714844 C 237.597656 372.722656 220.050781 366.890625 205.515625 356.410156 C 204.582031 355.71875 203.195312 357.25 204.132812 358.042969 C 230.773438 380.480469 268.488281 391.058594 301.652344 400.402344 C 333.335938 435.9375 375.792969 446.21875 414.046875 407.46875 Z M 348.457031 455.3125 C 378.855469 492.480469 420.722656 504.394531 460.558594 467.472656 C 438.464844 429.316406 393.386719 422.988281 351.128906 443.351562 C 317.664062 435.445312 282.226562 427.386719 254.253906 406.628906 C 253.367188 405.789062 251.878906 407.320312 252.769531 408.160156 C 273.230469 427.191406 299.675781 437.71875 325.523438 447.503906 C 333.085938 450.273438 340.601562 452.941406 348.457031 455.3125 Z M 392.992188 512.351562 C 421.3125 550.707031 462.980469 564.839844 504.449219 529.402344 C 484.085938 490.308594 438.859375 482.101562 396.105469 500.539062 C 362.890625 491.148438 327.945312 481.359375 300.761719 459.21875 C 299.925781 458.378906 298.390625 459.8125 299.230469 460.699219 C 318.804688 480.71875 344.949219 492.53125 370.304688 503.601562 C 377.71875 506.714844 385.183594 509.632812 392.992188 512.351562 Z M 435.054688 571.464844 C 460.902344 609.324219 501.53125 627.910156 545.867188 593.015625 C 526.988281 553.277344 482.554688 543.09375 438.710938 559.75 C 406.089844 548.976562 370.902344 537.460938 345.097656 514.128906 C 344.261719 513.191406 342.675781 514.574219 343.46875 515.515625 C 362.050781 536.519531 387.804688 549.519531 412.761719 561.679688 C 420.175781 565.039062 427.394531 568.398438 435.054688 571.464844 Z M 470.886719 631.765625 C 495.058594 670.664062 535.390625 690.679688 580.761719 657.417969 C 562.425781 615.304688 517.199219 605.964844 474.941406 620.25 C 442.46875 608.089844 408.316406 595.289062 383.109375 570.871094 C 382.273438 569.933594 380.636719 571.21875 381.425781 572.207031 C 399.320312 593.953125 424.429688 607.992188 448.945312 621.089844 C 456.109375 624.84375 463.328125 628.402344 470.886719 631.765625 Z M 509.195312 694.4375 C 534.152344 732.097656 570.136719 754.738281 619.316406 720.335938 C 602.019531 680.152344 558.027344 668.042969 513.296875 682.871094 C 481.023438 670.664062 446.277344 657.566406 421.363281 632.949219 C 420.578125 632.011719 418.941406 633.296875 419.734375 634.285156 C 437.429688 656.179688 462.734375 670.414062 487.25 683.613281 C 494.515625 687.367188 501.632812 691.027344 509.195312 694.4375 Z M 633.453125 760.222656 C 610.570312 742.035156 582.589844 739.710938 549.476562 748.855469 C 517.203125 735.757812 483.148438 721.621094 458.582031 696.214844 C 457.796875 695.277344 456.109375 696.511719 456.902344 697.5 C 479.539062 726.117188 513.148438 743.714844 545.027344 760.320312 C 568.40625 799.8125 608.144531 821.511719 654.605469 789.136719 C 651.9375 781.277344 643.535156 768.179688 633.453125 760.222656 Z M 119.816406 207.046875 C 147.941406 227.457031 179.472656 233.933594 205.917969 196.121094 C 183.132812 171.65625 147.542969 174.820312 119.667969 197.65625 C 99.800781 197.804688 79.535156 197.410156 60.109375 193.257812 C 53.238281 191.824219 46.566406 189.945312 40.390625 186.980469 C 39.996094 186.78125 39.503906 186.929688 39.300781 187.375 C 39.097656 187.71875 39.300781 188.164062 39.554688 188.363281 C 51.8125 195.628906 65.847656 199.1875 79.734375 202.003906 C 93.03125 204.375 106.226562 206.15625 119.820312 207.046875 Z M 205.125 85.410156 C 191.433594 119.167969 197.910156 154.160156 225.835938 172.449219 C 260.382812 139.132812 242.988281 105.625 214.765625 83.429688 C 202.804688 54.914062 187.726562 26.046875 162.867188 6.621094 C 162.019531 5.980469 160.941406 7.214844 161.832031 7.90625 C 183.972656 28.417969 196.085938 57.234375 205.128906 85.410156 Z M 256.378906 104.734375 C 234.832031 157.175781 247.285156 194.492188 278.820312 219.007812 C 323.699219 180.503906 307.339844 134.585938 268.984375 102.707031 C 254.5 64.699219 235.277344 26.492188 203.199219 0.246094 C 202.058594 -0.640625 200.675781 0.890625 201.8125 1.878906 C 230.332031 29.410156 245.457031 67.464844 256.378906 104.734375 Z M 317.667969 157.71875 C 296.316406 199.78125 300.417969 245.945312 334.277344 272.832031 C 382.21875 235.8125 365.21875 188.066406 330.421875 156.335938 C 318.113281 117.882812 300.914062 78.339844 270.367188 50.710938 C 269.332031 49.722656 267.847656 51.207031 268.9375 52.242188 C 295.875 81.058594 308.96875 120.054688 317.667969 157.71875 Z M 376.140625 213.621094 C 352.910156 254.097656 354.144531 300.214844 386.964844 329.324219 C 435.203125 295.46875 423.738281 248.367188 388.941406 212.828125 C 378.414062 173.832031 363.636719 133.699219 334.625 104.488281 C 333.636719 103.5 332.050781 104.882812 333.089844 105.96875 C 358.398438 136.070312 369.371094 175.710938 376.140625 213.621094 Z M 431.695312 272.140625 C 402.484375 320.875 409.15625 359.277344 436.933594 388.191406 C 486.707031 356.511719 477.363281 309.0625 444.445312 271.992188 C 435.996094 232.550781 423.09375 192.070312 395.863281 161.277344 C 394.875 160.238281 393.242188 161.574219 394.230469 162.710938 C 417.804688 194.195312 426.703125 233.933594 431.695312 272.140625 Z M 484.1875 333.132812 C 456.902344 371.585938 454.480469 417.800781 484.3125 449.136719 C 535.222656 419.875 528.253906 371.882812 497.015625 333.527344 C 491.480469 298.929688 482.140625 264.035156 463.40625 233.984375 C 460.539062 229.4375 457.375 225.085938 453.917969 220.984375 C 452.980469 219.898438 451.296875 221.085938 452.183594 222.269531 C 474.230469 254.792969 481.148438 294.828125 484.214844 333.132812 Z M 533.859375 396.25 C 505.191406 433.171875 500.152344 478.9375 528.917969 512.105469 C 568.804688 491.246094 577.652344 456.152344 559.859375 419.28125 C 555.558594 410.238281 550.566406 402.574219 546.660156 397.140625 C 545.675781 388.339844 544.386719 379.742188 542.808594 370.992188 C 536.875 340.152344 527.980469 308.566406 508.800781 283.0625 C 507.964844 281.976562 506.230469 283.0625 507.070312 284.300781 C 527.484375 317.613281 532.476562 357.992188 533.859375 396.25 Z M 580.714844 461.292969 C 550.171875 497.226562 543.84375 543.042969 570.980469 576.703125 C 625.347656 551.101562 619.960938 501.476562 593.371094 462.726562 C 590.304688 422.890625 583.238281 381.324219 560.75 347.367188 C 559.964844 346.179688 558.175781 347.265625 558.917969 348.503906 C 577.699219 382.753906 580.960938 422.988281 580.714844 461.292969 Z M 625.792969 523.964844 C 595.246094 557.429688 584.917969 602.503906 611.804688 638.980469 C 667.164062 615.207031 663.457031 565.730469 638.445312 525.84375 C 637.207031 491.046875 632.515625 455.511719 618.082031 423.433594 C 615.808594 418.589844 613.289062 413.945312 610.371094 409.445312 C 610.082031 408.953125 609.4375 408.753906 608.941406 409 C 608.449219 409.246094 608.242188 409.9375 608.546875 410.53125 C 625.996094 445.328125 627.527344 485.859375 625.796875 523.964844 Z M 667.261719 592.71875 C 632.8125 624.945312 621.542969 669.773438 644.921875 706.152344 C 703.492188 685.492188 700.773438 635.964844 679.667969 595.535156 C 681.050781 555.746094 678.882812 513.882812 660.539062 477.703125 C 659.894531 476.46875 657.96875 477.308594 658.613281 478.640625 C 673.191406 514.675781 671.808594 554.855469 667.261719 592.71875 Z M 707.199219 663.148438 C 671.265625 693.546875 657.722656 737.832031 679.421875 775.199219 C 736.851562 758.246094 739.570312 709.117188 719.453125 666.609375 C 722.765625 627.070312 722.867188 585.253906 706.308594 548.382812 C 705.765625 547.148438 703.789062 547.839844 704.332031 549.222656 C 714.761719 577.988281 713.921875 609.324219 710.804688 639.277344 C 709.820312 647.285156 708.683594 655.339844 707.199219 663.148438 Z M 1061.484375 219.75 C 1083.875 230.769531 1106.363281 191.082031 1109.871094 172.050781 C 1112.589844 160.140625 1114.46875 143.828125 1114.617188 132.855469 L 1124.503906 115.804688 C 1132.359375 101.71875 1153.664062 69 1162.410156 54.914062 C 1162.753906 54.417969 1162.613281 53.777344 1162.171875 53.429688 C 1161.675781 53.035156 1160.980469 53.183594 1160.636719 53.675781 C 1151 67.613281 1128.414062 99 1119.8125 112.890625 C 1119.8125 112.890625 1109.433594 128.953125 1109.433594 128.953125 C 1099.746094 134.09375 1085.015625 143.582031 1076.320312 152.628906 C 1061.242188 166.464844 1038.65625 205.957031 1061.492188 219.746094 Z M 1011.316406 293.839844 C 1031.136719 262.796875 1020.015625 224.097656 991.054688 197.804688 C 986.457031 165.675781 985.074219 131.671875 996.835938 100.78125 C 997.328125 99.691406 995.699219 98.902344 995.207031 99.988281 C 980.179688 131.078125 978.695312 166.515625 980.527344 200.324219 C 963.027344 234.773438 961.597656 277.082031 1011.320312 293.839844 Z M 952.746094 334.367188 C 959.46875 342.226562 969.847656 348.949219 984.773438 353.59375 C 1003.507812 321.714844 991.25 284.152344 961.050781 258.449219 C 955.464844 226.617188 952.449219 192.710938 963.175781 161.523438 C 963.621094 160.4375 961.988281 159.695312 961.492188 160.832031 C 947.507812 192.265625 947.804688 227.707031 950.621094 261.316406 C 940.242188 283.605469 935.003906 313.460938 952.746094 334.367188 Z M 915.578125 370.398438 C 918.199219 388.539062 930.257812 406.035156 960.359375 414.242188 C 978.101562 380.382812 963.769531 344.203125 933.273438 319.984375 C 926.847656 288.449219 922.203125 254.742188 931.9375 223.308594 C 932.332031 222.171875 930.699219 221.527344 930.207031 222.664062 C 917.308594 254.445312 919.1875 289.835938 922.941406 323.199219 C 918.644531 333.527344 912.8125 352.308594 915.578125 370.398438 Z M 891.605469 433.171875 C 896.203125 456.054688 912.414062 469.398438 937.871094 475.578125 C 951.511719 444.09375 945.925781 412.363281 907.621094 382.261719 C 900.355469 351.023438 894.324219 317.5625 902.972656 285.929688 C 903.367188 284.792969 901.691406 284.199219 901.292969 285.335938 C 889.578125 317.066406 892.445312 353.050781 897.539062 385.871094 C 893.632812 396.347656 888.296875 415.179688 891.605469 433.171875 Z M 869.710938 496.585938 C 873.816406 514.527344 886.515625 531.183594 917.160156 537.558594 C 929.46875 511.855469 924.03125 472.464844 884.195312 445.28125 C 875.691406 415.179688 868.824219 380.285156 876.285156 349.34375 C 876.628906 348.15625 874.902344 347.664062 874.554688 348.800781 C 864.078125 379.9375 867.980469 417.453125 874.214844 449.183594 C 869.667969 462.28125 865.960938 481.210938 869.714844 496.582031 Z M 852.757812 513.042969 C 841.242188 550.113281 846.628906 591.085938 898.230469 600.082031 C 912.117188 568.351562 897.738281 531.28125 862.691406 508.890625 C 853.105469 478.691406 845.394531 444.984375 851.671875 413.351562 C 851.914062 412.164062 850.238281 411.71875 849.890625 412.855469 C 842.328125 438.261719 844.453125 465.496094 848.359375 491.296875 C 849.644531 498.660156 851.03125 505.828125 852.757812 513.042969 Z M 833.183594 577.394531 C 821.421875 617.679688 832.792969 656.527344 880.980469 663.050781 C 894.671875 628.800781 876.976562 593.507812 843.019531 572.949219 C 832.441406 542.75 824.089844 510.125 829.082031 477.949219 C 829.324219 476.765625 827.601562 476.320312 827.304688 477.503906 C 820.828125 503.15625 823.347656 530.195312 828.238281 555.84375 C 829.671875 563.109375 831.253906 570.230469 833.183594 577.394531 Z M 813.414062 639.179688 C 803.433594 677.929688 813.289062 717.964844 863.535156 723.648438 C 873.765625 691.074219 864.671875 660.136719 823.152344 634.484375 C 811.980469 604.53125 802.441406 572.207031 806.792969 539.882812 C 806.996094 538.746094 805.261719 538.398438 805.015625 539.535156 C 799.035156 565.335938 802.492188 592.222656 807.976562 617.726562 C 809.558594 624.992188 811.339844 632.0625 813.414062 639.179688 Z M 797.695312 705.015625 C 790.480469 740.304688 799.972656 783.550781 852.808594 786.171875 C 861.160156 753.699219 849.941406 722.265625 807.039062 699.773438 C 794.136719 670.613281 782.472656 639.03125 784.945312 606.605469 C 785.097656 605.421875 783.363281 605.171875 783.164062 606.359375 C 779.953125 623.757812 781.632812 641.550781 784.894531 658.703125 C 787.910156 674.617188 792.0625 689.890625 797.695312 705.015625 Z M 782.621094 771.839844 C 776.890625 809.894531 788.257812 849.488281 840.550781 850.722656 C 848.507812 823.289062 835.65625 785.527344 791.816406 766.203125 C 777.730469 737.734375 764.929688 706.496094 766.066406 674.171875 C 766.191406 672.988281 764.433594 672.835938 764.285156 673.976562 C 761.617188 691.371094 764.414062 709.167969 768.042969 726.121094 C 771.453125 741.789062 776.644531 756.960938 782.625 771.839844 Z M 1036.773438 239.222656 C 1049.773438 221.28125 1049.722656 190.339844 1023.128906 164.886719 C 1020.707031 140.320312 1019.078125 114.074219 1028.914062 90.796875 C 1029.359375 89.957031 1028.128906 89.363281 1027.675781 90.152344 C 1015.417969 113.433594 1014.722656 140.863281 1014.921875 166.613281 C 1001.132812 192.859375 998.90625 225.035156 1036.769531 239.222656 Z M 1128.113281 222.515625 C 1092.128906 212.632812 1067.367188 230.472656 1060.199219 251.085938 C 1093.464844 272.140625 1116.84375 255.335938 1131.128906 229.878906 C 1149.613281 220.046875 1167.40625 208.726562 1181.691406 193.40625 C 1183.765625 191.128906 1185.695312 188.757812 1187.421875 186.238281 C 1187.625 185.941406 1187.574219 185.59375 1187.273438 185.347656 C 1186.980469 185.101562 1186.527344 185.152344 1186.285156 185.449219 C 1174.222656 199.042969 1158.011719 208.234375 1141.800781 216.292969 C 1137.304688 218.464844 1132.707031 220.589844 1128.109375 222.519531 Z M 1121.539062 264.726562 C 1082.691406 255.433594 1047.003906 268.285156 1034.597656 304.070312 C 1078.585938 329.917969 1107.796875 307.382812 1125.839844 274.214844 C 1138.9375 266.851562 1151.34375 258.746094 1163.304688 249.800781 C 1176.058594 240.507812 1188.414062 230.175781 1197.011719 216.832031 C 1197.214844 216.4375 1197.140625 215.941406 1196.757812 215.648438 C 1196.367188 215.351562 1195.773438 215.398438 1195.519531 215.796875 C 1185.878906 227.953125 1172.832031 236.851562 1159.535156 244.757812 C 1147.425781 251.925781 1134.378906 259.042969 1121.527344 264.726562 Z M 1166.21875 268.679688 C 1156.980469 281.234375 1144.175781 290.527344 1131.226562 299.078125 C 1119.414062 307.085938 1106.761719 314.203125 1093.960938 320.578125 C 1054.515625 312.570312 1019.472656 327.25 1008.351562 363.035156 C 1053.378906 387.054688 1081.40625 364.367188 1098.554688 329.871094 C 1118.078125 317.910156 1136.710938 304.117188 1153.121094 288.152344 C 1154.453125 287.265625 1173.089844 266.011719 1166.21875 268.679688 Z M 1126.285156 342.820312 C 1127.617188 341.832031 1145.609375 319.933594 1138.789062 322.851562 C 1132.261719 332.441406 1123.464844 340.445312 1114.273438 347.5625 C 1099.988281 358.980469 1084.371094 368.769531 1068.253906 377.417969 C 1052.589844 375.195312 1038.105469 375.488281 1024.464844 380.085938 C 1003.804688 386.609375 988.039062 405.292969 984.28125 422.9375 C 1028.960938 446.464844 1060.25 418.789062 1073.152344 386.609375 C 1092.476562 373.910156 1110.515625 359.625 1126.285156 342.820312 Z M 1113.234375 378.160156 C 1109.132812 384.683594 1103.894531 390.515625 1098.257812 395.953125 C 1082.195312 411.421875 1063.664062 424.074219 1044.382812 435.296875 C 997.183594 430.453125 970.046875 450.914062 961.992188 483.535156 C 1004.941406 504.441406 1036.230469 480.519531 1049.722656 444.339844 C 1074.335938 426.003906 1099.792969 406.28125 1114.816406 379 C 1115.308594 378.058594 1113.777344 377.21875 1113.234375 378.160156 Z M 1089.460938 434.503906 C 1073.199219 460.058594 1047.449219 477.605469 1022.539062 494.015625 C 974.792969 489.21875 946.078125 516.402344 941.53125 544.824219 C 988.4375 564.839844 1014.78125 538.449219 1028.125 502.960938 C 1047.648438 487.292969 1067.222656 471.082031 1081.800781 450.570312 C 1082.738281 449.433594 1095.34375 431.339844 1089.460938 434.503906 Z M 1067.464844 491.742188 C 1063.5625 498.511719 1058.917969 504.738281 1053.777344 510.621094 C 1038.847656 527.179688 1020.660156 540.769531 1002.421875 553.523438 C 960.3125 550.65625 928.53125 571.710938 922.796875 606.65625 C 969.949219 626.277344 997.675781 595.585938 1008.203125 562.273438 C 1031.632812 542.15625 1055.953125 520.953125 1069.097656 492.480469 C 1069.539062 491.492188 1067.910156 490.75 1067.464844 491.742188 Z M 1047.105469 549.765625 C 1043.691406 556.785156 1039.097656 563.160156 1034.054688 569.191406 C 1019.476562 586.046875 1001.929688 600.476562 983.9375 613.625 C 943.851562 612.042969 911.230469 631.914062 905.695312 668.984375 C 953.9375 686.28125 978.304688 659 989.917969 622.226562 C 1001.484375 612.289062 1012.109375 601.761719 1022.195312 590.445312 C 1032.917969 578.484375 1043.003906 565.582031 1048.785156 550.507812 C 1049.175781 549.519531 1047.542969 548.777344 1047.105469 549.765625 Z M 1031.734375 607.296875 C 1028.472656 614.367188 1024.023438 620.839844 1019.179688 627.019531 C 1004.945312 644.21875 987.941406 659.246094 970.148438 672.789062 C 922.351562 673.234375 897.886719 697.351562 893.539062 730.121094 C 938.765625 746.1875 966.789062 719.050781 976.375 681.191406 C 989.128906 669.625 1001.089844 657.367188 1011.667969 643.875 C 1020.5625 633.050781 1028.71875 621.1875 1033.464844 607.941406 C 1033.804688 606.902344 1032.179688 606.261719 1031.734375 607.296875 Z M 1016.90625 669.03125 C 1013.542969 676.050781 1008.996094 682.523438 1004.003906 688.652344 C 989.769531 705.953125 972.421875 720.683594 954.53125 734.125 C 906.339844 734.519531 882.367188 757.457031 877.226562 790.71875 C 924.875 808.5625 952.054688 776.1875 960.707031 742.578125 C 983.34375 721.421875 1006.773438 698.785156 1018.636719 669.675781 C 1018.976562 668.6875 1017.351562 667.992188 1016.90625 669.03125 Z M 1002.472656 730.863281 C 988.730469 758.097656 964.414062 778.261719 941.039062 797.09375 C 892.699219 796.550781 866.898438 826.207031 864.328125 854.824219 C 912.816406 871.183594 937.132812 841.972656 947.3125 805.496094 C 969.65625 783.898438 992.6875 760.914062 1004.152344 731.507812 C 1004.496094 730.519531 1002.871094 729.875 1002.472656 730.863281 Z M 1362.789062 597.214844 C 1350.382812 608.039062 1335.457031 621.1875 1318.699219 636.359375 C 1280.792969 670.761719 1240.558594 709.414062 1202.15625 748.609375 C 1092.328125 860.113281 980.921875 998.359375 905.101562 1130.128906 C 886.222656 1162.15625 868.972656 1194.285156 850.683594 1226.507812 C 842.332031 1241.335938 833.089844 1258.636719 817.421875 1266.839844 C 800.960938 1275.390625 804.226562 1244.597656 805.214844 1237.035156 C 808.277344 1201.796875 804.175781 1166.605469 792.855469 1133.09375 C 696.625 820.523438 539.792969 521.050781 310.308594 285.683594 C 288.710938 263.835938 188.425781 172.546875 193.714844 165.972656 C 200.039062 158.066406 312.136719 257.066406 338.039062 283.507812 C 370.90625 317.117188 402.144531 352.359375 432.046875 388.636719 C 606.421875 602.851562 730.234375 855.417969 809.167969 1119.402344 C 828.988281 866.589844 881.378906 614.664062 977.660156 379.542969 C 989.621094 346.03125 1046.5625 235.863281 1059.808594 223.503906 C 1060.300781 239.023438 1008.550781 348.652344 994.566406 386.414062 C 990.808594 396.003906 985.816406 407.714844 982.257812 417.453125 C 914.886719 594.25 870.207031 779.597656 843.664062 966.824219 C 836.398438 1017.882812 830.46875 1069.433594 826.117188 1120.738281 C 825.082031 1132.996094 823.300781 1145.203125 823.003906 1157.511719 C 822.878906 1162.847656 821.472656 1174.019531 824.4375 1178.417969 C 823.691406 1177.378906 835.65625 1150.984375 837.140625 1147.773438 C 848.210938 1123.554688 863.980469 1100.523438 877.125 1077.441406 C 890.273438 1054.359375 904.65625 1033.152344 920.027344 1011.457031 C 966.09375 946.460938 1018.335938 885.964844 1073.890625 828.925781 C 1128.753906 772.578125 1187.078125 719.59375 1248.167969 670.117188 C 1284.59375 640.613281 1321.863281 612.4375 1356.214844 588.765625 C 1371.929688 577.941406 1380.976562 574.085938 1382.261719 575.8125 C 1383.5 577.542969 1377.070312 584.761719 1362.789062 597.214844 "
       fill-opacity="1"
       fill-rule="nonzero"
       id="path6" />
  </g>
  <g
     clip-path="url(#d1ff4ec410)"
     id="g8"
     transform="translate(-35.762019,-43.709134)">
    <g
       clip-path="url(#3ba59a9ad5)"
       id="g7">
      <path
         fill="#e8ea86"
         d="m 691.23437,1508.3203 h 144 v 144 h -144 z m 0,0"
         fill-opacity="1"
         fill-rule="nonzero"
         id="path7" />
    </g>
  </g>
</svg>
