<svg xmlns="http://www.w3.org/2000/svg" xmlns:xlink="http://www.w3.org/1999/xlink" viewBox="0 0 50.8 44"><defs><style>.cls-1{fill:none;}.cls-2{isolation:isolate;}.cls-3{clip-path:url(#clip-path);}.cls-20,.cls-4{opacity:0.5;}.cls-5{fill:#0d2e4e;}.cls-10,.cls-11,.cls-12,.cls-13,.cls-14,.cls-15,.cls-16,.cls-17,.cls-18,.cls-5,.cls-6,.cls-8,.cls-9{fill-rule:evenodd;}.cls-6{fill:#a0cd6b;}.cls-7{opacity:0.27;}.cls-8{fill:#08a1b0;}.cls-9{fill:#13bcc5;}.cls-10{fill:#33b393;}.cls-11{fill:#2f828b;}.cls-12{fill:#80c367;}.cls-13{fill:#e2e559;}.cls-14{fill:#79c483;}.cls-15{fill:#fdc35f;}.cls-16{fill:#a5ca3f;}.cls-17{fill:#04a6a3;}.cls-18{fill:#f9a426;}.cls-19{opacity:0.45;}.cls-20{mix-blend-mode:multiply;}.cls-21{fill:#fff;}</style><clipPath id="clip-path"><path class="cls-1" d="M35.1,0H15.4a5,5,0,0,0-4.3,2.5L1.3,19.6a4.8,4.8,0,0,0,0,4.9l9.8,17.1a5,5,0,0,0,4.3,2.5H35.1a5,5,0,0,0,4.3-2.5l9.4-16.3a6.8,6.8,0,0,0,0-6.5L39.4,2.5A5,5,0,0,0,35.1,0Z"/></clipPath></defs><title>Asset 2</title><g class="cls-2"><g id="Layer_2" data-name="Layer 2"><g id="Layer_1-2" data-name="Layer 1"><g class="cls-3"><g class="cls-4"><polygon class="cls-5" points="31.7 22 28.6 27.5 25.4 33 25.4 33 22.2 27.5 19 22 22.2 16.5 25.4 11 25.4 11 28.6 16.5 31.7 22"/></g><polygon class="cls-6" points="25.4 0 28.6 5.5 31.7 11 31.7 11 34.9 5.5 38.1 0 25.4 0"/><g class="cls-7"><polygon class="cls-5" points="25.4 0 28.6 5.5 31.7 11 31.7 11 34.9 5.5 38.1 0 25.4 0"/></g><polygon class="cls-5" points="12.7 22 9.5 27.5 6.3 33 6.3 33 3.2 27.5 0 22 3.2 16.5 6.3 11 6.3 11 9.5 16.5 12.7 22"/><polygon class="cls-8" points="12.7 22 15.9 27.5 19 33 19 33 22.2 27.5 25.4 22 22.2 16.5 19 11 19 11 15.9 16.5 12.7 22"/><polygon class="cls-9" points="12.7 22 15.9 27.5 19 33 19 33 22.2 27.5 25.4 22 22.2 16.5 19 11 19 11 15.9 16.5 12.7 22"/><polygon class="cls-10" points="31.7 11 28.6 16.5 25.4 22 25.4 22 22.2 16.5 19 11 22.2 5.5 25.4 0 25.4 0 28.6 5.5 31.7 11"/><polygon class="cls-11" points="6.3 11 9.5 16.5 12.7 22 12.7 22 15.9 16.5 19 11 15.9 5.5 12.7 0 12.7 0 9.5 5.5 6.3 11"/><polygon class="cls-12" points="38.1 22 34.9 27.5 31.7 33 31.7 33 28.6 27.5 25.4 22 28.6 16.5 31.7 11 31.7 11 34.9 16.5 38.1 22"/><polygon class="cls-13" points="38.1 22 41.2 27.5 44.4 33 44.4 33 47.6 27.5 50.8 22 47.6 16.5 44.4 11 44.4 11 41.2 16.5 38.1 22"/><polygon class="cls-11" points="6.3 33 9.5 38.5 12.7 44 12.7 44 15.9 38.5 19 33 15.9 27.5 12.7 22 12.7 22 9.5 27.5 6.3 33"/><polygon class="cls-14" points="31.7 33 28.6 38.5 25.4 44 25.4 44 22.2 38.5 19 33 22.2 27.5 25.4 22 25.4 22 28.6 27.5 31.7 33"/><polygon class="cls-15" points="31.7 33 34.9 38.5 38.1 44 38.1 44 41.2 38.5 44.4 33 41.2 27.5 38.1 22 38.1 22 34.9 27.5 31.7 33"/><polygon class="cls-16" points="31.7 11 34.9 16.5 38.1 22 38.1 22 41.2 16.5 44.4 11 41.2 5.5 38.1 0 38.1 0 34.9 5.5 31.7 11"/><polygon class="cls-9" points="25.4 0 22.2 5.5 19 11 19 11 15.9 5.5 12.7 0 25.4 0"/><polygon class="cls-17" points="25.4 44 12.7 44 15.9 38.5 19 33 19 33 22.2 38.5 25.4 44"/><polygon class="cls-18" points="25.4 44 38.1 44 34.9 38.5 31.7 33 31.7 33 28.6 38.5 25.4 44"/><g class="cls-19"><polygon class="cls-15" points="31.7 33 28.6 38.5 25.4 44 25.4 44 22.2 38.5 19 33 22.2 27.5 25.4 22 25.4 22 28.6 27.5 31.7 33"/></g><g class="cls-20"><polygon class="cls-18" points="25.4 44 12.7 44 15.9 38.5 19 33 19 33 22.2 38.5 25.4 44"/></g></g><path class="cls-21" d="M31.6,33l6.3-10.8-.3-.7a6.4,6.4,0,0,1-.8-1.4.8.8,0,0,0-.8-.4H23.7l-.4.6-1,1.8h-.1v.2l.5,1H23l.4.8.4.5h6.8c.2,0-.4.9-.5.9a13,13,0,0,1-1.5,2.7H22a1,1,0,0,1-.7-.4l-1.7-3-1.2-2.2-.2-.5c-.1,0,.2-.5.3-.6s1.1-1.9,1.6-2.8l1.3-2.2a.8.8,0,0,1,.8-.5h9.2a.5.5,0,0,0,.4-.2l.6-1.1.7-1.2-.4-.7a16.2,16.2,0,0,0-1-1.8H18.9l-.3.5-2,3.3-1.3,2.1-2.8,4.9c-.2.2-.2.3-.1.4l.8,1.4,4.6,8.2.5.9.3.5H31.2C31.4,33.2,31.4,33.2,31.6,33Z"/></g></g></g></svg>