<?xml version="1.0" encoding="UTF-8" standalone="no"?>
<svg
   width="1643"
   zoomAndPan="magnify"
   viewBox="0 0 1232.25 1569.749953"
   height="2093"
   preserveAspectRatio="xMidYMid meet"
   version="1.0"
   id="svg16"
   sodipodi:docname="ecosystem.svg"
   inkscape:version="1.4 (e7c3feb1, 2024-10-09)"
   xmlns:inkscape="http://www.inkscape.org/namespaces/inkscape"
   xmlns:sodipodi="http://sodipodi.sourceforge.net/DTD/sodipodi-0.dtd"
   xmlns="http://www.w3.org/2000/svg"
   xmlns:svg="http://www.w3.org/2000/svg">
  <sodipodi:namedview
     id="namedview16"
     pagecolor="#ffffff"
     bordercolor="#000000"
     borderopacity="0.25"
     inkscape:showpageshadow="2"
     inkscape:pageopacity="0.0"
     inkscape:pagecheckerboard="0"
     inkscape:deskcolor="#d1d1d1"
     inkscape:zoom="0.19875776"
     inkscape:cx="875.4375"
     inkscape:cy="1479.1875"
     inkscape:window-width="1680"
     inkscape:window-height="923"
     inkscape:window-x="0"
     inkscape:window-y="25"
     inkscape:window-maximized="1"
     inkscape:current-layer="svg16" />
  <defs
     id="defs3">
    <clipPath
       id="ca9a71667a">
      <path
         d="M 199 908 L 573 908 L 573 1214.613281 L 199 1214.613281 Z M 199 908 "
         clip-rule="nonzero"
         id="path1" />
    </clipPath>
    <clipPath
       id="68036d7958">
      <path
         d="M 543.683594 1424.660156 L 687.597656 1424.660156 L 687.597656 1568.574219 L 543.683594 1568.574219 Z M 543.683594 1424.660156 "
         clip-rule="nonzero"
         id="path2" />
    </clipPath>
    <clipPath
       id="0f0349e136">
      <path
         d="M 566.171875 1424.660156 L 665.109375 1424.660156 C 677.527344 1424.660156 687.597656 1434.730469 687.597656 1447.148438 L 687.597656 1546.089844 C 687.597656 1558.507812 677.527344 1568.574219 665.109375 1568.574219 L 566.171875 1568.574219 C 553.75 1568.574219 543.683594 1558.507812 543.683594 1546.089844 L 543.683594 1447.148438 C 543.683594 1434.730469 553.75 1424.660156 566.171875 1424.660156 Z M 566.171875 1424.660156 "
         clip-rule="nonzero"
         id="path3" />
    </clipPath>
  </defs>
  <path
     fill="#406078"
     d="M 109.261719 414.179688 L 73.441406 399.773438 C 45.367188 469.582031 31.132812 543.460938 31.132812 619.347656 C 31.132812 716.894531 55.480469 813.53125 101.550781 898.816406 L 135.523438 880.464844 C 92.492188 800.800781 69.746094 710.507812 69.746094 619.347656 C 69.746094 548.417969 83.042969 479.386719 109.261719 414.179688 Z M 109.261719 414.179688 "
     fill-opacity="1"
     fill-rule="nonzero"
     id="path4" />
  <path
     fill="#406078"
     d="M 1162.347656 526.066406 C 1167.570312 556.660156 1170.222656 588.046875 1170.222656 619.347656 C 1170.222656 902.976562 957.734375 1138.316406 675.960938 1166.777344 L 679.839844 1205.191406 C 824.210938 1190.613281 957.714844 1123.207031 1055.753906 1015.394531 C 1154.464844 906.839844 1208.832031 766.1875 1208.832031 619.347656 C 1208.832031 585.871094 1206 552.300781 1200.410156 519.566406 L 1162.351562 526.0625 Z M 1162.347656 526.066406 "
     fill-opacity="1"
     fill-rule="nonzero"
     id="path5" />
  <path
     fill="#406078"
     d="M 619.984375 69.113281 C 750.28125 69.113281 876.667969 115.480469 975.855469 199.667969 L 1000.839844 170.230469 C 894.6875 80.125 759.429688 30.5 619.984375 30.5 C 579.667969 30.5 539.382812 34.597656 500.238281 42.683594 L 508.054688 80.5 C 544.625 72.945312 582.289062 69.113281 619.984375 69.113281 Z M 619.984375 69.113281 "
     fill-opacity="1"
     fill-rule="nonzero"
     id="path6" />
  <path
     fill="#406078"
     d="M 901.84375 630.765625 C 901.84375 475.347656 775.398438 348.90625 619.984375 348.90625 C 464.566406 348.90625 338.125 475.347656 338.125 630.765625 C 338.125 786.183594 464.566406 912.625 619.984375 912.625 C 775.398438 912.625 901.84375 786.179688 901.84375 630.765625 Z M 858.753906 677.261719 L 858.402344 676.761719 C 856.160156 673.5625 853 671.117188 849.339844 669.75 L 747.914062 631.882812 L 696.488281 546.195312 L 697.007812 545.675781 L 720.023438 556.824219 C 726.71875 560.066406 734.6875 559.171875 740.5 554.523438 L 790.546875 514.484375 L 838.546875 524.082031 C 854.34375 556.3125 863.230469 592.519531 863.230469 630.765625 C 863.230469 646.664062 861.675781 662.207031 858.753906 677.265625 Z M 470.84375 438.742188 L 498.628906 489.789062 C 502.007812 496 508.515625 499.863281 515.585938 499.863281 L 543.691406 499.863281 L 538.347656 523.820312 C 537.601562 527.15625 537.757812 530.632812 538.796875 533.886719 L 570.261719 632.59375 C 572.074219 638.265625 576.402344 642.789062 581.988281 644.847656 L 619.078125 658.5 L 639.273438 692.082031 L 602.175781 740.363281 L 550.019531 761.230469 C 543.960938 763.652344 539.539062 768.96875 538.257812 775.367188 L 522.601562 853.636719 C 502.527344 844.832031 483.867188 833.398438 467.046875 819.761719 L 522.417969 708.394531 C 526.390625 700.414062 524.375 690.75 517.546875 685.015625 L 501.363281 671.425781 L 528.792969 616.5625 C 532.0625 610.023438 531.355469 602.191406 526.972656 596.34375 L 492.726562 550.683594 C 488.066406 544.472656 480.144531 541.65625 472.597656 543.539062 L 437.546875 552.300781 L 411.03125 525.789062 C 408.757812 523.519531 405.984375 521.871094 402.96875 520.960938 C 419.308594 488.789062 442.59375 460.722656 470.839844 438.734375 Z M 376.738281 630.761719 C 376.738281 605.703125 380.550781 581.515625 387.621094 558.75 L 389.382812 558.75 L 417.972656 587.339844 C 422.769531 592.132812 429.730469 594.0625 436.308594 592.417969 L 469.535156 584.109375 L 488.925781 609.96875 L 460.019531 667.785156 C 456.023438 675.777344 458.03125 685.460938 464.871094 691.207031 L 481.085938 704.820312 L 437.84375 791.789062 C 399.847656 748.863281 376.742188 692.464844 376.742188 630.761719 Z M 619.984375 874.007812 C 599.089844 874.007812 578.800781 871.359375 559.433594 866.378906 L 574.070312 793.199219 L 621.4375 774.25 C 624.652344 772.964844 627.460938 770.835938 629.574219 768.085938 L 677.914062 705.171875 C 682.75 698.878906 683.238281 690.261719 679.148438 683.460938 L 648.667969 632.78125 C 646.402344 629.011719 642.917969 626.128906 638.792969 624.613281 L 604.183594 611.871094 L 577.171875 527.136719 L 586.625 484.761719 C 587.902344 479.039062 586.511719 473.054688 582.847656 468.480469 C 579.1875 463.90625 573.644531 461.246094 567.785156 461.246094 L 527.058594 461.246094 L 503.207031 417.433594 C 537.890625 398.371094 577.691406 387.511719 619.984375 387.511719 C 696.742188 387.511719 765.296875 423.257812 809.910156 478.96875 L 789.300781 474.847656 C 783.703125 473.730469 777.902344 475.140625 773.449219 478.703125 L 725.890625 516.753906 L 701.476562 504.929688 C 694.070312 501.34375 685.210938 502.839844 679.402344 508.660156 L 658.527344 529.558594 C 652.269531 535.824219 651.074219 545.546875 655.632812 553.136719 L 718.28125 657.539062 C 720.53125 661.289062 723.988281 664.164062 728.085938 665.691406 L 830.21875 703.824219 L 844.53125 724.261719 C 807.8125 812.109375 720.996094 874.003906 619.988281 874.003906 Z M 619.984375 874.007812 "
     fill-opacity="1"
     fill-rule="nonzero"
     id="path7" />
  <g
     clip-path="url(#ca9a71667a)"
     id="g8">
    <path
       fill="#406078"
       d="M 501.527344 1118.253906 C 509.390625 1076.175781 496.28125 1033.730469 465.679688 1004.75 C 443.140625 983.40625 409.066406 978.457031 372.992188 973.21875 C 326.414062 966.457031 273.621094 958.789062 234.238281 915.296875 C 229.148438 909.675781 221.242188 907.554688 214.027344 909.871094 C 206.808594 912.1875 201.613281 918.515625 200.746094 926.046875 C 200.480469 928.355469 194.40625 983.316406 209.53125 1045.335938 C 230.1875 1130.03125 280.367188 1186.707031 354.640625 1209.238281 C 365.726562 1212.601562 376.921875 1214.199219 387.953125 1214.199219 C 429.398438 1214.199219 468.296875 1191.574219 488.59375 1154.929688 C 510.605469 1159.414062 533.765625 1162.027344 558.371094 1162.027344 C 563.027344 1162.027344 567.738281 1161.933594 572.5 1161.742188 L 570.945312 1123.160156 C 546.515625 1124.140625 523.761719 1122.402344 501.53125 1118.253906 Z M 365.847656 1172.285156 C 304.808594 1153.769531 264.914062 1108.316406 247.292969 1037.199219 C 241.160156 1012.449219 238.859375 988.625 238.199219 969.785156 C 280.339844 998.78125 327.71875 1005.660156 367.441406 1011.429688 C 398.582031 1015.953125 425.480469 1019.859375 439.128906 1032.789062 C 459.546875 1052.117188 468.542969 1080.425781 463.964844 1108.90625 C 430.660156 1098.601562 397.0625 1083.117188 359.175781 1063.398438 L 341.347656 1097.648438 C 375.117188 1115.222656 410.496094 1132.5 449.320312 1144.726562 C 430.628906 1169.851562 397.488281 1181.882812 365.84375 1172.285156 Z M 365.847656 1172.285156 "
       fill-opacity="1"
       fill-rule="nonzero"
       id="path8" />
  </g>
  <path
     fill="#406078"
     d="M 410.128906 301.628906 C 410.128906 262.554688 394.824219 222.199219 368.144531 190.910156 C 339.480469 157.296875 302.222656 138.785156 263.230469 138.785156 C 224.238281 138.785156 186.980469 157.292969 158.320312 190.910156 C 131.636719 222.199219 116.335938 262.554688 116.335938 301.628906 C 116.335938 374.714844 169.875 416.628906 263.230469 416.628906 C 356.585938 416.628906 410.128906 374.714844 410.128906 301.628906 Z M 154.949219 301.628906 C 154.949219 244.179688 202.25 177.398438 263.230469 177.398438 C 324.214844 177.398438 371.515625 244.179688 371.515625 301.628906 C 371.515625 352.316406 335.082031 378.015625 263.230469 378.015625 C 191.378906 378.015625 154.949219 352.316406 154.949219 301.628906 Z M 154.949219 301.628906 "
     fill-opacity="1"
     fill-rule="nonzero"
     id="path9" />
  <path
     fill="#406078"
     d="M 322.765625 121.609375 C 330.578125 125.640625 345.421875 133.300781 360.527344 133.300781 C 373.234375 133.300781 386.121094 127.882812 395.183594 110.335938 C 408.898438 83.757812 408.664062 32.75 377.046875 16.433594 C 362.113281 8.726562 343.449219 10.488281 324.496094 21.386719 C 309.710938 29.894531 296.816406 42.855469 290.003906 56.050781 C 281.867188 71.8125 282.996094 87.519531 293.175781 100.273438 C 300.769531 109.785156 312.429688 116.273438 322.765625 121.605469 Z M 324.320312 73.765625 C 326.644531 66.238281 350.25 46.878906 359.339844 50.746094 C 365.382812 53.863281 368.40625 78.023438 360.871094 92.625 C 360.257812 93.8125 359.769531 94.488281 359.472656 94.847656 C 357.351562 94.84375 352.3125 93.40625 340.476562 87.296875 C 328.644531 81.191406 324.554688 77.914062 323.320312 76.1875 C 323.4375 75.742188 323.707031 74.945312 324.320312 73.765625 Z M 324.320312 73.765625 "
     fill-opacity="1"
     fill-rule="nonzero"
     id="path10" />
  <path
     fill="#406078"
     d="M 413.125 213.222656 C 420.621094 222.054688 437.007812 241.359375 457.804688 241.359375 C 466.0625 241.359375 475.015625 238.316406 484.378906 230.367188 C 507.183594 211.011719 526.382812 163.757812 503.363281 136.636719 C 492.484375 123.820312 474.5625 118.34375 452.882812 121.210938 C 435.96875 123.449219 419.113281 130.523438 407.789062 140.132812 C 374.832031 168.105469 402.652344 200.882812 413.125 213.226562 Z M 432.777344 169.570312 C 437.464844 165.589844 447.066406 160.929688 457.949219 159.492188 C 467.222656 158.261719 472.671875 160.144531 473.921875 161.621094 C 478.324219 166.800781 471.921875 190.296875 459.394531 200.929688 C 458.378906 201.792969 457.664062 202.234375 457.257812 202.449219 C 455.296875 201.640625 451.179688 198.390625 442.566406 188.238281 C 433.945312 178.082031 431.410156 173.496094 430.929688 171.429688 C 431.207031 171.066406 431.761719 170.433594 432.777344 169.570312 Z M 432.777344 169.570312 "
     fill-opacity="1"
     fill-rule="nonzero"
     id="path11" />
  <path
     fill="#406078"
     d="M 172.59375 132.394531 C 186.398438 132.394531 199.957031 126.71875 207.390625 123.605469 C 222.316406 117.355469 261.972656 100.746094 245.273438 60.871094 C 233.71875 33.285156 194.476562 0.699219 161.667969 14.433594 C 128.855469 28.179688 124.550781 79.003906 136.101562 106.59375 C 144.492188 126.617188 158.667969 132.394531 172.59375 132.394531 Z M 176.582031 50.050781 C 182.84375 47.429688 203.308594 60.632812 209.65625 75.789062 C 210.171875 77.015625 210.378906 77.828125 210.460938 78.28125 C 209.09375 79.90625 204.757812 82.84375 192.472656 87.988281 C 180.179688 93.136719 175.046875 94.148438 172.929688 93.996094 C 172.667969 93.621094 172.230469 92.902344 171.714844 91.675781 C 165.367188 76.519531 170.3125 52.675781 176.582031 50.050781 Z M 176.582031 50.050781 "
     fill-opacity="1"
     fill-rule="nonzero"
     id="path12" />
  <path
     fill="#406078"
     d="M 42.082031 230.367188 C 51.449219 238.316406 60.402344 241.359375 68.65625 241.359375 C 89.453125 241.359375 105.839844 222.054688 113.335938 213.222656 C 123.8125 200.882812 151.628906 168.105469 118.671875 140.128906 C 107.351562 130.519531 90.492188 123.449219 73.578125 121.207031 C 51.894531 118.339844 33.976562 123.820312 23.097656 136.632812 C 0.078125 163.757812 19.28125 211.011719 42.082031 230.367188 Z M 52.539062 161.617188 C 63.238281 154.4375 89.339844 163.691406 95.53125 171.425781 C 95.046875 173.492188 92.511719 178.082031 83.894531 188.234375 C 75.277344 198.386719 71.164062 201.632812 69.203125 202.445312 C 68.792969 202.230469 68.082031 201.785156 67.066406 200.925781 C 54.539062 190.292969 48.136719 166.796875 52.535156 161.617188 Z M 52.539062 161.617188 "
     fill-opacity="1"
     fill-rule="nonzero"
     id="path13" />
  <path
     fill="#406078"
     d="M 1210.164062 310.691406 C 1198.515625 299.160156 1172.652344 289.820312 1148.023438 283.082031 C 1150.546875 276.59375 1151.941406 269.546875 1151.941406 262.175781 C 1151.941406 230.238281 1125.957031 204.253906 1094.023438 204.253906 C 1062.085938 204.253906 1036.101562 230.238281 1036.101562 262.175781 C 1036.101562 269.546875 1037.503906 276.589844 1040.023438 283.082031 C 1015.394531 289.820312 989.527344 299.15625 977.882812 310.691406 C 965.054688 323.390625 957.9375 340.320312 957.847656 358.371094 C 956.390625 398.925781 997.019531 432.980469 1036.125 425.386719 C 1036.121094 425.683594 1036.113281 426 1036.113281 426.285156 C 1036.113281 458.496094 1077.792969 478.78125 1086.144531 482.519531 C 1091.160156 484.761719 1096.902344 484.761719 1101.917969 482.519531 C 1110.269531 478.78125 1151.949219 458.496094 1151.949219 426.285156 C 1151.949219 426.015625 1151.941406 425.714844 1151.9375 425.4375 C 1191.757812 432.816406 1231.421875 398.875 1230.195312 358.371094 C 1230.105469 340.324219 1222.992188 323.390625 1210.160156 310.691406 Z M 1074.714844 262.175781 C 1074.714844 251.53125 1083.378906 242.871094 1094.023438 242.871094 C 1104.667969 242.871094 1113.328125 251.53125 1113.328125 262.175781 C 1113.328125 266.640625 1111.792969 270.746094 1109.234375 274.019531 C 1102.832031 272.90625 1099.257812 271.738281 1094.0625 271.519531 C 1088.828125 271.71875 1085.246094 272.90625 1078.804688 274.019531 C 1076.253906 270.746094 1074.714844 266.640625 1074.714844 262.175781 Z M 1004.84375 379.082031 C 993.660156 368.246094 993.757812 348.855469 1005.046875 338.128906 C 1011.648438 331.59375 1039.472656 322.605469 1068.847656 315.71875 C 1061.664062 345.023438 1052.398438 372.753906 1045.796875 379.292969 C 1034.445312 390.523438 1016.074219 390.433594 1004.839844 379.085938 Z M 1094.03125 443.183594 C 1083.660156 437.132812 1075.339844 429.625 1074.726562 426.285156 C 1074.726562 422.789062 1075.480469 414.101562 1077.144531 401.875 C 1083.492188 393.449219 1089.15625 381.019531 1094.023438 367.429688 C 1098.898438 381.035156 1104.566406 393.472656 1110.921875 401.902344 C 1112.585938 414.109375 1113.339844 422.769531 1113.351562 426.113281 C 1112.726562 429.59375 1104.394531 437.136719 1094.03125 443.1875 Z M 1183.203125 379.085938 C 1172.480469 390.371094 1153.089844 390.472656 1142.25 379.292969 C 1135.648438 372.757812 1126.382812 345.023438 1119.199219 315.71875 C 1148.574219 322.605469 1176.394531 331.59375 1183 338.128906 C 1194.289062 348.855469 1194.386719 368.246094 1183.203125 379.085938 Z M 1183.203125 379.085938 "
     fill-opacity="1"
     fill-rule="nonzero"
     id="path14" />
  <g
     clip-path="url(#68036d7958)"
     id="g16"
     transform="translate(0,-41.507812)">
    <g
       clip-path="url(#0f0349e136)"
       id="g15">
      <path
         fill="#7ed957"
         d="m 543.68359,1424.6602 h 143.91407 v 143.914 H 543.68359 Z m 0,0"
         fill-opacity="1"
         fill-rule="nonzero"
         id="path15" />
    </g>
  </g>
</svg>
