<?xml version="1.0" encoding="UTF-8" standalone="no"?>
<svg
   width="1745"
   zoomAndPan="magnify"
   viewBox="0 0 1308.75 1675.499945"
   height="2234"
   preserveAspectRatio="xMidYMid meet"
   version="1.0"
   id="svg8"
   sodipodi:docname="water.svg"
   inkscape:version="1.4 (e7c3feb1, 2024-10-09)"
   xmlns:inkscape="http://www.inkscape.org/namespaces/inkscape"
   xmlns:sodipodi="http://sodipodi.sourceforge.net/DTD/sodipodi-0.dtd"
   xmlns="http://www.w3.org/2000/svg"
   xmlns:svg="http://www.w3.org/2000/svg">
  <sodipodi:namedview
     id="namedview8"
     pagecolor="#ffffff"
     bordercolor="#000000"
     borderopacity="0.25"
     inkscape:showpageshadow="2"
     inkscape:pageopacity="0.0"
     inkscape:pagecheckerboard="0"
     inkscape:deskcolor="#d1d1d1"
     inkscape:zoom="0.18621307"
     inkscape:cx="547.75962"
     inkscape:cy="1584.2067"
     inkscape:window-width="1680"
     inkscape:window-height="923"
     inkscape:window-x="0"
     inkscape:window-y="25"
     inkscape:window-maximized="1"
     inkscape:current-layer="svg8" />
  <defs
     id="defs4">
    <clipPath
       id="a05dbc5f59">
      <path
         d="M 0.0703125 0 L 1307.679688 0 L 1307.679688 1328.601562 L 0.0703125 1328.601562 Z M 0.0703125 0 "
         clip-rule="nonzero"
         id="path1" />
    </clipPath>
    <clipPath
       id="de692b9114">
      <path
         d="M 0.0703125 3 L 1307.679688 3 L 1307.679688 1326 L 0.0703125 1326 Z M 0.0703125 3 "
         clip-rule="nonzero"
         id="path2" />
    </clipPath>
    <clipPath
       id="945d46e72e">
      <path
         d="M 582 1530.933594 L 725.957031 1530.933594 L 725.957031 1674.890625 L 582 1674.890625 Z M 582 1530.933594 "
         clip-rule="nonzero"
         id="path3" />
    </clipPath>
    <clipPath
       id="1bed5824c4">
      <path
         d="M 604.496094 1530.933594 L 703.464844 1530.933594 C 715.886719 1530.933594 725.957031 1541.003906 725.957031 1553.429688 L 725.957031 1652.398438 C 725.957031 1664.820312 715.886719 1674.890625 703.464844 1674.890625 L 604.496094 1674.890625 C 592.070312 1674.890625 582 1664.820312 582 1652.398438 L 582 1553.429688 C 582 1541.003906 592.070312 1530.933594 604.496094 1530.933594 Z M 604.496094 1530.933594 "
         clip-rule="nonzero"
         id="path4" />
    </clipPath>
  </defs>
  <g
     clip-path="url(#de692b9114)"
     id="g6">
    <path
       fill="#406078"
       d="M 1265.78125 499.480469 C 1238.832031 495.695312 1213.554688 513.953125 1208.375 540.382812 C 1198.527344 540.703125 1189 543.929688 1180.785156 549.871094 C 1169.625 557.964844 1162.449219 569.964844 1160.613281 583.675781 C 1151.683594 650.371094 1133.1875 770.128906 1109.308594 822.195312 C 1089.8125 864.808594 1042.015625 906.46875 1005.335938 933.9375 C 1001.789062 936.609375 998.601562 934.894531 997.40625 934.058594 C 996.25 933.21875 993.617188 930.789062 994.972656 926.601562 L 1029.375 819.363281 C 1108.828125 729.546875 1152.5625 614.175781 1152.5625 494.140625 C 1152.5625 469.980469 1150.726562 446.261719 1147.339844 423.019531 C 1147.339844 423.019531 1147.339844 422.976562 1147.339844 422.976562 C 1112.773438 185.816406 908.144531 3.113281 661.535156 3.113281 C 414.808594 3.113281 210.097656 186.015625 175.652344 423.335938 C 175.652344 423.574219 175.550781 423.816406 175.53125 424.054688 C 175.429688 424.414062 175.429688 424.8125 175.410156 425.171875 C 172.21875 447.734375 170.503906 470.738281 170.503906 494.136719 C 170.503906 603.609375 205.707031 707.0625 272.320312 793.53125 L 315.019531 926.601562 C 316.375 930.785156 313.742188 933.21875 312.585938 934.054688 C 311.390625 934.933594 308.203125 936.648438 304.652344 933.9375 C 267.976562 906.46875 220.214844 864.808594 200.683594 822.234375 C 176.804688 770.128906 158.304688 650.410156 149.375 583.675781 C 147.542969 569.960938 140.367188 557.964844 129.203125 549.871094 C 120.992188 543.929688 111.503906 540.703125 101.617188 540.421875 C 96.476562 513.953125 71.039062 495.691406 44.210938 499.519531 C 17.859375 503.1875 -1.078125 525.992188 0.121094 552.542969 C 4.226562 643.914062 16.304688 863.136719 39.464844 924.765625 C 52.941406 960.648438 86.03125 1005.214844 124.339844 1056.804688 C 162.929688 1108.746094 206.664062 1167.628906 233.773438 1224.238281 C 239.910156 1237.035156 243.140625 1251.546875 243.140625 1266.257812 L 243.140625 1314.613281 C 243.140625 1317.40625 244.257812 1320.074219 246.210938 1322.027344 C 248.203125 1324.023438 250.875 1325.140625 253.625 1325.140625 L 528.816406 1324.941406 C 531.648438 1324.941406 534.359375 1323.785156 536.3125 1321.789062 C 538.304688 1319.757812 539.382812 1317.046875 539.300781 1314.214844 C 539.136719 1306.722656 535.394531 1129.957031 522.160156 1041.335938 C 519.210938 1021.722656 509.683594 991.820312 496.367188 956.699219 C 549.230469 975.597656 604.683594 985.164062 661.53125 985.164062 C 701.753906 985.164062 741.382812 980.222656 779.890625 970.691406 C 780.054688 970.652344 780.167969 970.652344 780.332031 970.574219 C 790.894531 967.941406 801.339844 965.074219 811.707031 961.761719 C 799.386719 994.691406 790.617188 1022.679688 787.824219 1041.375 C 774.589844 1129.957031 770.804688 1306.761719 770.644531 1314.214844 C 770.644531 1317.046875 771.679688 1319.757812 773.632812 1321.789062 C 775.625 1323.785156 778.296875 1324.941406 781.128906 1324.941406 L 1056.359375 1325.140625 C 1059.152344 1325.140625 1061.824219 1324.023438 1063.777344 1322.03125 C 1065.730469 1320.074219 1066.84375 1317.40625 1066.84375 1314.613281 L 1066.84375 1266.21875 C 1066.84375 1251.546875 1070.113281 1236.996094 1076.253906 1224.199219 C 1103.320312 1167.589844 1147.054688 1108.707031 1185.644531 1056.765625 C 1223.953125 1005.175781 1257.042969 960.609375 1270.558594 924.730469 C 1293.71875 863.097656 1305.757812 643.875 1309.90625 552.503906 C 1311.058594 525.992188 1292.125 503.1875 1265.773438 499.480469 Z M 1047.875 761.757812 L 1060.074219 723.726562 C 1065.417969 707.101562 1063.941406 689.402344 1055.929688 673.894531 C 1047.914062 658.386719 1034.320312 646.945312 1017.699219 641.640625 C 987.039062 631.914062 953.3125 646.347656 939.28125 675.289062 C 915.640625 724.042969 884.386719 789.863281 856.320312 853.609375 C 843.683594 853.25 814.542969 849.902344 808.441406 826.539062 C 804.535156 811.628906 808.238281 798.035156 811.832031 784.839844 C 816.535156 767.65625 821.835938 748.164062 806.210938 730.023438 C 798.039062 720.535156 779.382812 713.082031 753.546875 702.757812 C 701.683594 682.066406 630.644531 653.722656 624.664062 599.027344 C 615.535156 515.269531 667.476562 453.835938 707.265625 448.332031 C 727.277344 445.542969 776.628906 454.910156 824.351562 463.960938 C 884.746094 475.402344 941.792969 486.285156 969.582031 480.585938 C 998.285156 474.726562 1021.605469 456.148438 1042.136719 439.722656 C 1057.445312 427.484375 1071.914062 415.921875 1083.476562 414.527344 C 1104.085938 412.054688 1120.792969 423.496094 1126.890625 428.359375 C 1129.917969 449.886719 1131.59375 471.816406 1131.59375 494.140625 C 1131.59375 590.453125 1102.132812 683.542969 1047.875 761.757812 Z M 1104.566406 337.226562 C 1095.472656 345.679688 1072.113281 363.898438 1040.78125 362.621094 C 1022.121094 361.824219 1009.402344 347.234375 994.652344 330.332031 C 978.585938 311.832031 960.328125 290.902344 930.472656 285.480469 C 902.246094 280.378906 880.957031 291.78125 860.347656 302.863281 C 838.382812 314.625 817.652344 325.785156 786.832031 319.289062 C 750.914062 311.714844 745.332031 285.203125 738.914062 254.464844 C 735.40625 237.84375 731.820312 220.660156 722.25 207.902344 C 711.367188 193.390625 693.152344 186.65625 673.855469 179.558594 C 646.066406 169.355469 619.835938 159.667969 615.972656 127.175781 C 610.109375 77.503906 679.753906 33.808594 694.148438 25.320312 C 884.066406 38.433594 1043.292969 164.769531 1104.566406 337.226562 Z M 483.976562 59.003906 C 485.171875 84.082031 498.964844 104.929688 511.640625 123.667969 C 525.078125 143.558594 537.792969 162.335938 534.523438 183.707031 C 530.5 209.816406 508.8125 219.105469 483.695312 229.871094 C 466.234375 237.363281 448.136719 245.136719 436.457031 259.6875 C 423.019531 276.394531 421.785156 294.96875 420.667969 311.394531 C 419.351562 330.769531 418.238281 347.511719 400.179688 363.300781 C 381.480469 379.683594 351.582031 376.855469 329.773438 371.550781 C 307.011719 366.089844 283.609375 375.058594 270.054688 394.394531 C 260.167969 408.507812 249.925781 418.515625 240.4375 423.335938 C 223.730469 431.828125 205.953125 425.011719 197.300781 420.546875 C 223.214844 256.378906 334.4375 120.277344 483.976562 59.003906 Z M 192.636719 462.964844 C 196.503906 468.386719 200.570312 473.527344 204.636719 478.632812 C 217.992188 495.335938 229.472656 509.765625 229.472656 530.734375 C 229.472656 549.074219 223.53125 564.421875 216.636719 582.164062 C 213.089844 591.371094 209.339844 601.179688 206.269531 611.941406 C 196.503906 573.910156 191.480469 534.445312 191.480469 494.140625 C 191.480469 483.65625 191.960938 473.25 192.636719 462.964844 Z M 518.101562 1303.972656 L 264.117188 1304.128906 L 264.117188 1266.21875 C 264.117188 1248.398438 260.167969 1230.738281 252.714844 1215.148438 C 224.730469 1156.746094 180.359375 1096.988281 141.171875 1044.285156 C 105.371094 996.046875 71.566406 950.480469 59.128906 917.351562 C 36.363281 856.878906 24.246094 622.066406 21.097656 551.585938 C 20.382812 535.917969 31.582031 522.484375 47.128906 520.292969 C 48.523438 520.09375 49.917969 520.011719 51.273438 520.011719 C 65.46875 520.011719 78.105469 530.097656 80.972656 544.171875 C 60.960938 552.503906 48.003906 573.390625 50.4375 595.636719 C 60.800781 689.917969 80.019531 854.164062 92.136719 895.148438 C 108.523438 950.519531 156.761719 999.953125 158.792969 1002.027344 C 162.859375 1006.171875 169.515625 1006.214844 173.621094 1002.148438 C 177.769531 998.082031 177.808594 991.421875 173.746094 987.316406 C 173.304688 986.839844 127.179688 939.597656 112.273438 889.167969 C 100.191406 848.304688 79.621094 668.671875 71.328125 593.324219 C 69.695312 578.453125 79.941406 564.660156 94.691406 561.871094 C 94.691406 561.871094 94.691406 561.871094 94.792969 561.871094 C 102.644531 560.433594 110.5 562.1875 116.917969 566.851562 C 123.414062 571.558594 127.5625 578.496094 128.597656 586.46875 C 137.6875 654.320312 156.625 776.386719 181.621094 830.964844 C 202.988281 877.566406 253.496094 921.816406 292.089844 950.71875 C 301.933594 958.136719 314.773438 958.292969 324.777344 951.160156 C 334.746094 944.023438 338.769531 931.902344 335.023438 920.222656 L 269.960938 717.347656 C 266.335938 706.066406 267.332031 694.066406 272.753906 683.539062 C 278.175781 673.015625 287.382812 665.242188 298.664062 661.65625 C 319.4375 655.035156 342.320312 664.84375 351.847656 684.457031 C 379.832031 742.0625 433.210938 854.363281 468.292969 942.308594 C 468.292969 942.347656 468.292969 942.429688 468.292969 942.46875 C 485.355469 985.285156 498.113281 1022.320312 501.421875 1044.484375 C 512.585938 1119.390625 517.011719 1263.625 518.085938 1303.96875 Z M 486.046875 930.230469 C 483.136719 922.972656 480.109375 915.597656 477 908.066406 C 484.214844 897.980469 504.746094 873.140625 534.007812 870.3125 C 549.953125 868.757812 563.867188 871.828125 577.859375 879.917969 C 596.277344 890.5625 619.320312 891.878906 639.453125 883.46875 C 665.960938 872.34375 702.679688 862.816406 718.425781 867.082031 C 731.34375 870.550781 732.855469 887.894531 731.859375 901.804688 C 730.746094 917.234375 736.085938 932.542969 746.492188 943.785156 L 756.417969 954.507812 C 725.363281 960.847656 693.667969 964.195312 661.539062 964.195312 C 600.820312 964.195312 541.820312 952.714844 486.046875 930.230469 Z M 779.9375 949.085938 L 761.917969 929.550781 C 755.417969 922.535156 752.070312 912.96875 752.75 903.320312 C 755.738281 861.742188 735.925781 850.101562 723.847656 846.832031 C 699.167969 840.214844 654.078125 854.566406 631.359375 864.09375 C 617.207031 869.992188 601.136719 869.15625 588.34375 861.78125 C 570.402344 851.375 552.542969 847.429688 531.972656 849.421875 C 502.035156 852.332031 480.105469 871.667969 467.707031 885.980469 C 436.496094 812.824219 398.421875 732.375 370.675781 675.289062 C 356.644531 646.347656 322.957031 631.914062 292.261719 641.640625 C 275.636719 646.945312 262.082031 658.386719 254.070312 673.894531 C 246.773438 688.007812 244.980469 703.914062 248.726562 719.222656 C 237.964844 699.566406 228.714844 679.277344 220.902344 658.425781 C 220.421875 630.558594 228.433594 609.789062 236.207031 589.738281 C 243.226562 571.679688 250.480469 552.980469 250.480469 530.734375 C 250.480469 502.429688 235.492188 483.65625 221.019531 465.515625 C 215.957031 459.175781 211.054688 452.917969 206.789062 446.421875 C 211.769531 447.617188 217.273438 448.453125 223.054688 448.453125 C 231.585938 448.453125 240.753906 446.699219 249.921875 442.035156 C 262.640625 435.578125 275.195312 423.578125 287.238281 406.394531 C 295.808594 394.195312 310.597656 388.496094 324.832031 391.964844 C 362.980469 401.171875 393.835938 396.707031 413.96875 379.085938 C 438.566406 357.558594 440.160156 333.800781 441.597656 312.789062 C 442.632812 297.523438 443.511719 284.367188 452.800781 272.804688 C 461.171875 262.359375 476.121094 255.941406 491.949219 249.164062 C 518.898438 237.5625 549.433594 224.488281 555.214844 186.894531 C 559.757812 157.355469 544.132812 134.230469 528.984375 111.867188 C 515.585938 92.054688 503.070312 73.199219 505.0625 50.953125 C 552.980469 33.96875 604.488281 24.519531 658.066406 24.164062 C 629.203125 45.808594 589.777344 84.242188 595.121094 129.648438 C 600.460938 174.894531 637.136719 188.410156 666.597656 199.253906 C 682.902344 205.273438 698.292969 210.894531 705.46875 220.5 C 712.246094 229.511719 715.195312 243.703125 718.34375 258.773438 C 724.960938 290.226562 733.175781 329.414062 782.488281 339.78125 C 820.71875 347.871094 847.03125 333.757812 870.234375 321.320312 C 889.25 311.117188 905.671875 302.265625 926.722656 306.09375 C 949.328125 310.199219 963.636719 326.664062 978.824219 344.085938 C 995.210938 362.902344 1012.195312 382.355469 1039.820312 383.589844 C 1041.253906 383.632812 1042.691406 383.671875 1044.125 383.671875 C 1074.503906 383.671875 1098.023438 369.640625 1111.617188 358.835938 C 1115.765625 372.589844 1119.351562 386.582031 1122.222656 400.816406 C 1111.378906 395.671875 1097.1875 391.644531 1080.921875 393.679688 C 1063.460938 395.792969 1046.71875 409.148438 1029.015625 423.300781 C 1010.320312 438.25 989.109375 455.152344 965.351562 460.015625 C 941.589844 464.800781 881.394531 453.4375 828.25 443.3125 C 776.625 433.546875 727.910156 424.296875 704.390625 427.527344 C 648.777344 435.179688 593.960938 511.164062 603.769531 601.300781 C 611.144531 668.515625 692.148438 700.84375 745.769531 722.253906 C 765.265625 730.027344 785.476562 738.121094 790.300781 743.699219 C 798.273438 752.988281 796.238281 762.277344 791.574219 779.339844 C 787.667969 793.691406 782.804688 811.511719 788.105469 831.84375 C 794.285156 855.5625 815.894531 870.632812 847.46875 873.902344 C 838.179688 895.390625 829.40625 916.398438 821.554688 936.171875 C 807.882812 941.15625 794.007812 945.421875 779.9375 949.089844 Z M 1250.910156 917.351562 C 1238.433594 950.480469 1204.628906 996.046875 1168.828125 1044.285156 C 1129.679688 1096.988281 1085.269531 1156.746094 1057.324219 1215.148438 C 1049.832031 1230.738281 1045.882812 1248.398438 1045.882812 1266.21875 L 1045.882812 1304.128906 L 791.898438 1303.972656 C 792.972656 1263.628906 797.398438 1119.394531 808.601562 1044.445312 C 811.753906 1023.4375 823.351562 988.992188 839.140625 948.886719 C 839.140625 948.847656 839.140625 948.726562 839.242188 948.6875 C 874.242188 859.828125 929.535156 743.460938 958.199219 684.457031 C 967.726562 664.84375 990.609375 655.039062 1011.382812 661.65625 C 1022.664062 665.242188 1031.875 673.015625 1037.292969 683.542969 C 1042.753906 694.066406 1043.710938 706.066406 1040.125 717.347656 L 975.023438 920.222656 C 971.277344 931.90625 975.296875 944.023438 985.269531 951.160156 C 995.273438 958.296875 1008.109375 958.136719 1017.957031 950.761719 C 1056.589844 921.820312 1107.058594 877.566406 1128.425781 830.964844 C 1153.421875 776.390625 1172.359375 654.320312 1181.449219 586.46875 C 1182.523438 578.496094 1186.671875 571.558594 1193.128906 566.855469 C 1199.589844 562.191406 1207.441406 560.4375 1215.292969 561.871094 C 1230.042969 564.660156 1240.328125 578.457031 1238.695312 593.324219 C 1230.402344 668.671875 1209.832031 848.304688 1197.753906 889.167969 C 1182.882812 939.480469 1136.71875 986.839844 1136.277344 987.316406 C 1132.210938 991.464844 1132.253906 998.082031 1136.402344 1002.148438 C 1140.546875 1006.214844 1147.164062 1006.175781 1151.230469 1002.027344 C 1153.265625 999.957031 1201.5 950.523438 1217.886719 895.148438 C 1230.003906 854.167969 1249.179688 689.921875 1259.585938 595.636719 C 1262.019531 573.351562 1249.0625 552.503906 1229.011719 544.171875 C 1232.199219 528.703125 1247.148438 518.097656 1262.894531 520.292969 C 1278.445312 522.484375 1289.644531 535.917969 1288.929688 551.585938 C 1285.738281 622.070312 1273.621094 856.878906 1250.898438 917.355469 Z M 1250.910156 917.351562 "
       fill-opacity="1"
       fill-rule="nonzero"
       id="path6" />
  </g>
  <g
     clip-path="url(#945d46e72e)"
     id="g8"
     transform="translate(0,-36.248798)">
    <g
       clip-path="url(#1bed5824c4)"
       id="g7">
      <path
         fill="#004aad"
         d="m 582,1530.9336 h 143.95703 v 143.957 H 582 Z m 0,0"
         fill-opacity="1"
         fill-rule="nonzero"
         id="path7" />
    </g>
  </g>
</svg>
